SplineFontDB: 3.2
FontName: TDATextCondensed
FullName: TDAText Condensed
FamilyName: TDAText Condensed
Weight: Regular
Copyright: Copyright (c) 2024-2025 Dmitry Tretyakov\n\nBased on Philips SAA52XX/SAA55XX/TDA93XX IC character set:\nCopyright (c) 1985-2001 NXP Semiconductors N.V.

StartChar: exclam
Encoding: 33 33 4
Width: 450
Flags: W
HStem: 0 100<112 188> 680 20G<112 188>
VStem: 112 76<0 100 200 700>
LayerCount: 2
Back
Fore
SplineSet
112 700 m 29
 188 700 l 25
 188 200 l 25
 112 200 l 25
 112 700 l 29
188 0 m 25
 112 0 l 1
 112 100 l 25
 188 100 l 1
 188 0 l 25
EndSplineSet
Validated: 1
EndChar

StartChar: asterisk
Encoding: 42 42 5
Width: 450
Flags: W
HStem: 0 21G<112 188> 100 100<-38 0 300 338> 300 100<75 112 188 225> 500 100<-38 0 300 338> 680 20G<112 188>
VStem: -38 76<100 200 500 600> 0 75<200 300 400 500> 112 76<0 300 400 700> 225 75<200 300 400 500> 262 76<100 200 500 600>
LayerCount: 2
Back
Fore
SplineSet
-38 600 m 29xfd
 38 600 l 25
 38 500 l 25xfd
 74 500 l 25
 75 400 l 25
 112 400 l 25
 112 700 l 25
 188 700 l 25
 188 400 l 25
 225 400 l 25
 225 500 l 25xfb80
 262 500 l 25
 262 600 l 25
 338 600 l 25
 338 500 l 25xf940
 300 500 l 25
 300 400 l 25xf980
 262 400 l 25
 262 300 l 25xf940
 300 300 l 25
 300 200 l 25xf980
 338 200 l 25
 338 100 l 25
 262 100 l 25
 262 200 l 25xf940
 225 200 l 25
 225 300 l 25
 188 300 l 25
 188 0 l 25
 112 0 l 25
 112 300 l 25
 75 300 l 25
 75 200 l 25xfb80
 38 200 l 25
 38 100 l 25
 -38 100 l 25
 -38 200 l 25xfd
 0 200 l 25
 0 300 l 25xfb
 38 300 l 25
 38 400 l 25xfd
 0 400 l 25
 0 500 l 25xfb
 -38 500 l 25
 -38 600 l 29xfd
EndSplineSet
Validated: 1
EndChar

StartChar: plus
Encoding: 43 43 6
Width: 450
Flags: W
HStem: 250 100<0 112 188 300>
VStem: 112 76<50 250 350 550>
LayerCount: 2
Back
Fore
SplineSet
112 550 m 29
 188 550 l 25
 188 350 l 25
 300 350 l 25
 300 250 l 25
 188 250 l 25
 188 50 l 25
 112 50 l 25
 112 250 l 25
 0 250 l 25
 0 350 l 25
 112 350 l 25
 112 550 l 29
EndSplineSet
Validated: 1
EndChar

StartChar: comma
Encoding: 44 44 7
Width: 450
Flags: W
HStem: -200 300<-7 31>
VStem: 68 75<-200 -100> 105 75<-100 0>
LayerCount: 2
Back
Fore
SplineSet
68 -100 m 5xc0
 105 -100 l 29
 105 0 l 5xa0
 68 0 l 29
 68 100 l 29xc0
 180 100 l 29
 180 -100 l 29xa0
 143 -100 l 29
 143 -200 l 29
 68 -200 l 29
 68 -100 l 5xc0
EndSplineSet
Validated: 1
EndChar

StartChar: hyphen
Encoding: 45 45 8
Width: 450
Flags: W
HStem: 250 100<0 300>
VStem: 0 300<250 350>
LayerCount: 2
Back
Fore
SplineSet
0 250 m 29
 0 350 l 25
 300 350 l 25
 300 250 l 25
 0 250 l 29
EndSplineSet
Validated: 1
EndChar

StartChar: period
Encoding: 46 46 9
Width: 450
Flags: W
HStem: 0 100<112 188>
VStem: 112 76<0 100>
LayerCount: 2
Back
Fore
SplineSet
188 0 m 29
 112 0 l 29
 112 100 l 29
 188 100 l 29
 188 0 l 29
EndSplineSet
Validated: 1
EndChar

StartChar: slash
Encoding: 47 47 10
Width: 450
Flags: W
HStem: 0 100<0 38> 600 100<262 300>
VStem: 0 75<0 100> 38 74<100 200> 75 75<200 300> 112 76<300 400> 150 75<400 500> 188 74<500 600> 225 75<600 700>
LayerCount: 2
Back
Fore
SplineSet
225 700 m 29xc080
 300 700 l 25
 300 600 l 25xc080
 262 600 l 25
 262 500 l 25xc1
 225 500 l 25
 225 400 l 25xc2
 188 400 l 25
 188 300 l 25xc4
 150 300 l 25
 150 200 l 25xc8
 112 200 l 25
 112 100 l 25xd0
 75 100 l 25
 75 0 l 25
 0 0 l 25
 0 100 l 25xe0
 38 100 l 25
 38 200 l 25xd0
 75 200 l 25
 75 300 l 25xc8
 112 300 l 25
 112 400 l 25xc4
 150 400 l 25
 150 500 l 25xc2
 188 500 l 25
 188 600 l 25xc1
 225 600 l 25
 225 700 l 29xc080
EndSplineSet
Validated: 1
EndChar

StartChar: zero
Encoding: 48 48 11
Width: 450
Flags: W
HStem: 0 100<119 231> 600 100<119 231>
VStem: 6 113<100 600> 44 262<0 100 600 700> 231 113<100 600>
LayerCount: 2
Back
Fore
SplineSet
231 600 m 29xe8
 119 600 l 25
 119 100 l 25
 231 100 l 25
 231 600 l 29xe8
44 700 m 25xd0
 306 700 l 25
 306 600 l 25xd0
 344 600 l 25
 344 100 l 25xc8
 306 100 l 25
 306 0 l 25
 44 0 l 25
 44 100 l 25xd0
 6 100 l 25
 6 600 l 25xe0
 44 600 l 25
 44 700 l 25xd0
EndSplineSet
Validated: 1
EndChar

StartChar: one
Encoding: 49 49 12
Width: 450
Flags: W
HStem: 0 21G<156 269> 500 100<81 156> 680 20G<156 269>
VStem: 81 188<500 600> 156 113<0 500 600 700>
LayerCount: 2
Back
Fore
SplineSet
81 500 m 29xf0
 81 600 l 29xf0
 156 600 l 29
 156 700 l 29
 269 700 l 29
 269 0 l 29
 156 0 l 29
 156 500 l 29xe8
 81 500 l 29xf0
EndSplineSet
Validated: 1
EndChar

StartChar: two
Encoding: 50 50 13
Width: 450
Flags: W
HStem: 0 100<6 44 194 344> 500 100<6 44> 600 100<81 231>
VStem: 6 75<500 600> 44 150<100 200> 119 150<200 300> 194 112<300 400> 231 113<400 600>
LayerCount: 2
Back
Fore
SplineSet
81 500 m 29xd1
 6 500 l 1
 6 600 l 25xd1
 44 600 l 25xc8
 44 700 l 25xa8
 306 700 l 25
 306 600 l 25xa2
 344 600 l 25
 344 400 l 25xa1
 306 400 l 25
 306 300 l 25xa2
 269 300 l 25
 269 200 l 25xa4
 194 200 l 25
 194 100 l 25xa8
 344 100 l 25
 344 0 l 25
 6 0 l 25
 6 100 l 25xb1
 44 100 l 25
 44 200 l 25xa8
 119 200 l 25
 119 300 l 25xa4
 194 300 l 25
 194 400 l 25xa2
 231 400 l 25
 231 600 l 25
 81 600 l 1xb1
 81 500 l 29xd1
EndSplineSet
Validated: 1
EndChar

StartChar: three
Encoding: 51 51 14
Width: 450
Flags: W
HStem: 0 100<6 269> 300 100<119 194> 600 100<6 231 306 344>
VStem: 194 75<400 500> 231 75<500 600> 269 75<100 300>
CounterMasks: 1 e0
LayerCount: 2
Back
Fore
SplineSet
6 700 m 29xe8
 344 700 l 25
 344 600 l 25xe4
 306 600 l 25
 306 500 l 25xe8
 269 500 l 25
 269 400 l 25xf0
 344 400 l 25
 344 100 l 25xe4
 306 100 l 25
 306 0 l 25xe8
 6 0 l 25
 6 100 l 25
 269 100 l 25
 269 300 l 25xe4
 119 300 l 25
 119 400 l 25
 194 400 l 25
 194 500 l 25xf0
 231 500 l 25
 231 600 l 25
 6 601 l 25
 6 700 l 29xe8
EndSplineSet
Validated: 1
EndChar

StartChar: four
Encoding: 52 52 15
Width: 450
Flags: W
HStem: 0 21G<231 344> 100 100<119 231> 600 100<306 344>
VStem: 6 113<200 300> 44 112<300 400> 119 112<400 500> 156 150<500 600> 231 113<0 100 200 300 600 700>
LayerCount: 2
Back
Fore
SplineSet
231 700 m 29xe1
 344 700 l 25
 344 600 l 25xe1
 306 600 l 25
 306 500 l 25xe2
 231 500 l 25
 231 400 l 25xe4
 156 400 l 25
 156 300 l 25xe8
 119 300 l 25
 119 200 l 25
 231 200 l 25
 231 300 l 25
 344 300 l 25
 344 0 l 25
 231 0 l 25
 231 100 l 25
 6 100 l 25
 6 300 l 25xf1
 44 300 l 25
 44 400 l 25xe8
 119 400 l 25
 119 500 l 25xe4
 156 500 l 25
 156 600 l 25xe2
 231 600 l 25
 231 700 l 29xe1
EndSplineSet
Validated: 1
EndChar

StartChar: five
Encoding: 53 53 16
Width: 450
Flags: W
HStem: 0 100<81 231> 100 100<6 44> 300 100<81 231> 600 100<81 306>
VStem: 6 300<300 400 600 700> 6 75<100 200 400 600> 231 113<100 300>
LayerCount: 2
Back
Fore
SplineSet
306 700 m 29xb8
 306 600 l 25xb8
 81 600 l 25
 81 400 l 25xb4
 306 400 l 25
 306 300 l 25xb8
 344 300 l 25
 344 100 l 25x72
 306 100 l 25x78
 306 0 l 25
 44 0 l 25xb8
 44 100 l 25
 6 100 l 25
 6 200 l 25
 81 200 l 25x74
 81 100 l 25
 231 100 l 25
 231 300 l 25xb6
 6 300 l 25
 6 700 l 25
 306 700 l 29xb8
EndSplineSet
Validated: 1
EndChar

StartChar: six
Encoding: 54 54 17
Width: 450
Flags: W
HStem: 0 100<118 269> 300 100<156 269> 680 20G<119 231>
VStem: 6 112<100 300> 44 112<400 500> 81 113<500 600> 119 112<600 700> 269 75<100 300>
LayerCount: 2
Back
Fore
SplineSet
269 300 m 29xf1
 118 300 l 25
 118 100 l 25
 269 100 l 25
 269 300 l 29xf1
231 700 m 25xe3
 231 600 l 25xe3
 194 600 l 25
 194 500 l 25xe5
 156 500 l 25
 156 400 l 25
 306 400 l 25
 306 300 l 25
 344 300 l 25
 344 100 l 25
 306 100 l 25
 306 0 l 25
 44 0 l 25
 44 100 l 25xe9
 6 100 l 25
 6 400 l 25xf1
 44 400 l 25
 44 500 l 25xe9
 81 500 l 25
 81 600 l 25xe5
 119 600 l 25
 119 700 l 25
 231 700 l 25xe3
EndSplineSet
Validated: 1
EndChar

StartChar: seven
Encoding: 55 55 18
Width: 450
Flags: W
HStem: 0 100<0 38> 600 100<-38 188 300 338>
VStem: 0 112<0 100> 38 112<100 200> 75 113<200 300> 112 113<300 400> 150 112<400 500> 188 112<500 600>
LayerCount: 2
Back
Fore
SplineSet
-38 700 m 1xc1
 338 700 l 25
 338 600 l 25
 300 600 l 25
 300 500 l 25xc1
 262 500 l 25
 262 400 l 25xc2
 225 400 l 25
 225 300 l 25xc4
 188 300 l 25
 188 200 l 25xc8
 150 200 l 25
 150 100 l 25xd0
 112 100 l 25
 112 0 l 25
 0 0 l 25
 0 100 l 25xe0
 38 100 l 25
 38 200 l 25xd0
 75 200 l 25
 75 300 l 25xc8
 112 300 l 25
 112 400 l 25xc4
 150 400 l 25
 150 500 l 25xc2
 188 500 l 25
 188 600 l 1
 -38 600 l 25
 -38 700 l 1xc1
EndSplineSet
Validated: 1
EndChar

StartChar: eight
Encoding: 56 56 19
Width: 450
Flags: W
HStem: 0 100<119 231> 300 100<119 231> 600 100<119 231>
VStem: 6 113<100 300 400 600> 44 262<0 100 600 700> 231 113<100 300 400 600>
CounterMasks: 1 e0
LayerCount: 2
Back
Fore
SplineSet
119 100 m 29xf4
 231 100 l 25
 231 300 l 25
 119 300 l 25
 119 100 l 29xf4
119 600 m 25
 119 400 l 25
 231 400 l 25
 231 600 l 25
 119 600 l 25
44 700 m 25xe8
 306 700 l 25
 306 600 l 25xe8
 344 600 l 25
 344 400 l 25
 269 400 l 25
 269 300 l 25
 344 300 l 25
 344 100 l 25xe4
 306 100 l 25
 306 0 l 25
 44 0 l 25
 44 100 l 25xe8
 6 100 l 25
 6 300 l 25
 81 300 l 25
 81 400 l 25
 6 400 l 25
 6 600 l 25xf0
 44 600 l 25
 44 700 l 25xe8
EndSplineSet
Validated: 1
EndChar

StartChar: nine
Encoding: 57 57 20
Width: 450
Flags: W
HStem: 0 21G<119 231> 300 100<81 194> 600 100<81 231>
VStem: 6 75<400 600> 119 112<0 100> 156 113<100 200> 194 112<200 300> 231 113<400 600>
LayerCount: 2
Back
Fore
SplineSet
81 600 m 29xf1
 81 400 l 25
 231 400 l 25
 231 600 l 25
 81 600 l 29xf1
44 600 m 25
 44 700 l 25
 306 700 l 25
 306 600 l 25xf2
 344 600 l 25
 344 300 l 25xf1
 306 300 l 25
 306 200 l 25xf2
 269 200 l 25
 269 100 l 25xf4
 231 100 l 25
 231 0 l 25
 119 0 l 25
 119 100 l 25xf8
 156 100 l 25
 156 200 l 25xf4
 194 200 l 25
 194 300 l 25xf2
 44 300 l 25
 44 400 l 25
 6 400 l 25
 6 600 l 25
 44 600 l 25
EndSplineSet
Validated: 1
EndChar

StartChar: colon
Encoding: 58 58 21
Width: 450
Flags: W
HStem: 0 21G<112 188> 480 20G<112 187.1>
VStem: 112 76<0 200 300 500>
LayerCount: 2
Back
Fore
SplineSet
112 200 m 29
 188 200 l 25
 188 0 l 25
 112 0 l 25
 112 200 l 29
112 500 m 25
 187 500 l 25
 188 300 l 25
 112 300 l 25
 112 500 l 25
EndSplineSet
Validated: 1
EndChar

StartChar: semicolon
Encoding: 59 59 22
Width: 450
Flags: W
HStem: -200 21G<69 144> 480 20G<106 181>
VStem: 69 75<-200 -100> 106 75<-100 100 300 500>
LayerCount: 2
Back
Fore
SplineSet
106 100 m 1xd0
 181 100 l 25
 181 -100 l 1xd0
 144 -100 l 25
 144 -200 l 25
 69 -200 l 25
 69 -100 l 25xe0
 106 -100 l 25
 106 100 l 1xd0
106 500 m 25
 181 500 l 25
 181 300 l 25
 106 300 l 25
 106 500 l 25
EndSplineSet
Validated: 1
EndChar

StartChar: less
Encoding: 60 60 23
Width: 450
Flags: W
HStem: 0 100<269 344> 300 100<6 81> 600 100<269 344>
VStem: 6 113<300 400> 81 113<200 300 400 500> 156 113<100 200 500 600> 231 113<0 100 600 700>
CounterMasks: 1 e0
LayerCount: 2
Back
Fore
SplineSet
231 700 m 29xe2
 344 700 l 25
 344 600 l 25xe2
 269 600 l 25
 269 500 l 25xe4
 194 500 l 25
 194 400 l 25xe8
 119 400 l 25
 119 300 l 25xf0
 194 300 l 25
 194 200 l 25xe8
 269 200 l 25
 269 100 l 25xe4
 344 100 l 25
 344 0 l 25
 231 0 l 25
 231 100 l 25xe2
 156 100 l 25
 156 200 l 25xe4
 81 200 l 25
 81 300 l 25xe8
 6 300 l 25
 6 400 l 25xf0
 81 400 l 25
 81 500 l 25xe8
 156 500 l 25
 156 600 l 25xe4
 231 600 l 25
 231 700 l 29xe2
EndSplineSet
Validated: 1
EndChar

StartChar: equal
Encoding: 61 61 24
Width: 450
Flags: W
HStem: 200 100<0 300> 400 100<0 300>
VStem: 0 300<200 300 400 500>
LayerCount: 2
Back
Fore
SplineSet
0 500 m 29
 300 500 l 25
 300 400 l 25
 0 400 l 25
 0 500 l 29
0 300 m 25
 300 300 l 25
 300 200 l 25
 0 200 l 25
 0 300 l 25
EndSplineSet
Validated: 1
EndChar

StartChar: greater
Encoding: 62 62 25
Width: 450
Flags: W
HStem: 0 100<6 81> 300 100<269 344> 600 100<6 81>
VStem: 6 113<0 100 600 700> 81 113<100 200 500 600> 156 113<200 300 400 500> 231 113<300 400>
CounterMasks: 1 e0
LayerCount: 2
Back
Fore
SplineSet
6 600 m 29xf0
 6 700 l 25
 119 700 l 25
 119 600 l 25xf0
 194 600 l 25
 194 500 l 25xe8
 269 500 l 25
 269 400 l 25xe4
 344 400 l 25
 344 300 l 25xe2
 269 300 l 25
 269 200 l 25xe4
 194 200 l 25
 194 100 l 25xe8
 119 100 l 25
 119 0 l 25
 6 0 l 25
 6 100 l 25xf0
 81 100 l 25
 81 200 l 25xe8
 156 200 l 25
 156 300 l 25xe4
 231 300 l 25
 231 400 l 25xe2
 156 400 l 25
 156 500 l 25xe4
 81 500 l 25
 81 600 l 25xe8
 6 600 l 29xf0
EndSplineSet
Validated: 1
EndChar

StartChar: question
Encoding: 63 63 26
Width: 450
Flags: W
HStem: 0 100<156 231> 200 100<156 231> 300 100<231 269> 600 100<81 269>
VStem: 6 75<400 600> 156 75<0 100 200 300> 231 75<300 400> 269 75<400 600>
LayerCount: 2
Back
Fore
SplineSet
156 300 m 1xdc
 231 300 l 1
 231 200 l 1
 156 200 l 1
 156 300 l 1xdc
231 0 m 25
 156 0 l 1
 156 100 l 25
 231 100 l 1
 231 0 l 25
6 600 m 25
 44 600 l 25
 44 700 l 25
 306 700 l 25
 306 600 l 25xba
 344 600 l 25
 344 400 l 25xb9
 306 400 l 25
 306 300 l 25xba
 231 300 l 25xdc
 231 400 l 25xba
 269 400 l 25
 269 600 l 25
 81 600 l 25
 81 400 l 25
 6 400 l 25xb9
 6 600 l 25
EndSplineSet
Validated: 5
EndChar

StartChar: at
Encoding: 64 64 27
Width: 450
Flags: W
HStem: -100 100<75 300> 100 100<188 262> 400 100<188 262> 600 100<75 262>
VStem: -38 76<100 500> 0 75<0 100 500 600> 38 262<-100 0 600 700> 112 76<200 400> 150 188<100 200 400 500> 262 76<200 400 500 600>
LayerCount: 2
Back
Fore
SplineSet
188 400 m 29xf140
 188 200 l 25
 262 200 l 25
 262 400 l 25
 188 400 l 29xf140
38 600 m 25xf2
 38 700 l 25
 300 700 l 25
 300 600 l 25xf2
 338 600 l 25xf040
 338 100 l 25
 150 100 l 25
 150 200 l 25xf080
 112 200 l 25
 112 400 l 25xf1
 150 400 l 25
 150 500 l 25xf080
 262 500 l 25
 262 600 l 25
 75 600 l 25
 75 500 l 25xf440
 38 500 l 25
 38 100 l 25xf8
 75 100 l 25
 75 0 l 25xf4
 300 0 l 25
 300 -100 l 25
 38 -100 l 25
 38 0 l 25xf2
 0 0 l 25
 0 100 l 25xf4
 -38 100 l 25
 -38 500 l 25xf8
 0 500 l 25
 0 600 l 25xf4
 38 600 l 25xf2
EndSplineSet
Validated: 1
EndChar

StartChar: A
Encoding: 65 65 28
Width: 450
Flags: W
HStem: 0 21G<-38 38 262 338> 200 100<38 262> 600 100<112 188>
VStem: -38 76<0 200 300 400> 0 75<400 500> 38 74<500 600> 188 74<500 600> 225 75<400 500> 262 76<0 200 300 400>
LayerCount: 2
Back
Fore
SplineSet
38 400 m 29xf0
 38 300 l 25
 262 300 l 25
 262 400 l 25xf080
 225 400 l 25
 225 500 l 25xe1
 188 500 l 25
 188 600 l 25
 112 600 l 25
 112 500 l 25xe6
 75 500 l 25
 75 400 l 25xe8
 38 400 l 29xf0
38 0 m 25
 -38 0 l 25
 -38 400 l 25xf080
 0 400 l 25
 0 500 l 25xe8
 38 500 l 25
 38 600 l 25xe4
 75 600 l 25
 75 700 l 25
 224 700 l 25
 225 600 l 25xe9
 262 600 l 25
 262 500 l 25xe2
 300 500 l 25
 300 400 l 25xe1
 338 400 l 25
 338 0 l 25
 262 0 l 25
 262 200 l 25
 38 200 l 25
 38 0 l 25
EndSplineSet
Validated: 1
EndChar

StartChar: B
Encoding: 66 66 29
Width: 450
Flags: W
HStem: 0 100<81 269> 300 100<81 269> 600 100<81 269>
VStem: 6 300<0 100 300 400 600 700> 6 75<100 300 400 600> 269 75<100 300 400 600>
CounterMasks: 1 e0
LayerCount: 2
Back
Fore
SplineSet
81 600 m 29xec
 81 400 l 25
 269 400 l 25
 269 600 l 25
 81 600 l 29xec
81 300 m 25
 81 100 l 25
 269 100 l 25
 269 300 l 25
 81 300 l 25
6 0 m 25xf0
 6 700 l 25
 306 700 l 25
 306 600 l 25xf0
 344 600 l 25
 344 400 l 25xe4
 306 400 l 25
 306 300 l 25xf0
 344 300 l 25
 344 100 l 25xe4
 306 100 l 25
 306 0 l 25
 6 0 l 25xf0
EndSplineSet
Validated: 1
EndChar

StartChar: C
Encoding: 67 67 30
Width: 450
Flags: W
HStem: 0 100<119 269> 100 100<306 344> 500 100<306 344> 600 100<119 269>
VStem: 6 75<200 500> 44 75<100 200 500 600> 81 225<0 100 600 700> 269 75<100 200 500 600>
LayerCount: 2
Back
Fore
SplineSet
81 700 m 29x12
 306 700 l 25x12
 306 600 l 25x22
 344 600 l 25
 344 500 l 25
 269 500 l 25x21
 269 600 l 25
 119 600 l 25x15
 119 500 l 25x25
 81 500 l 25
 81 200 l 25x68
 119 200 l 25x64
 119 100 l 25
 269 100 l 25x85
 269 200 l 25
 344 200 l 25
 344 100 l 25x45
 306 100 l 25x42
 306 0 l 25
 81 0 l 25x82
 81 100 l 25x42
 44 100 l 25
 44 200 l 25x44
 6 200 l 25
 6 500 l 25x68
 44 500 l 25x64
 44 600 l 25x14
 81 600 l 25
 81 700 l 29x12
EndSplineSet
Validated: 1
EndChar

StartChar: D
Encoding: 68 68 31
Width: 450
Flags: W
HStem: 0 100<81 231> 600 100<81 231>
VStem: 6 263<0 100 600 700> 6 75<100 600> 231 75<100 200 500 600> 269 75<200 500>
LayerCount: 2
Back
Fore
SplineSet
81 600 m 29xd8
 81 100 l 25
 231 100 l 25
 231 200 l 25xd8
 269 200 l 25
 269 500 l 25xc4
 231 500 l 25
 231 600 l 25
 81 600 l 29xd8
6 700 m 25xe0
 269 700 l 25
 269 600 l 25xe0
 306 600 l 25
 306 500 l 25xc8
 344 500 l 25
 344 200 l 25xc4
 306 200 l 25
 306 100 l 25xc8
 269 100 l 25
 269 0 l 25
 6 0 l 25
 6 700 l 25xe0
EndSplineSet
Validated: 1
EndChar

StartChar: E
Encoding: 69 69 32
Width: 450
Flags: W
HStem: 0 100<81 344> 300 100<81 269> 600 100<81 344>
VStem: 6 75<100 300 400 600>
CounterMasks: 1 e0
LayerCount: 2
Back
Fore
SplineSet
344 600 m 29
 81 600 l 25
 81 400 l 25
 269 400 l 25
 269 300 l 25
 81 300 l 25
 81 100 l 25
 344 100 l 25
 344 0 l 25
 6 0 l 25
 6 700 l 25
 344 700 l 25
 344 600 l 29
EndSplineSet
Validated: 1
EndChar

StartChar: F
Encoding: 70 70 33
Width: 450
Flags: W
HStem: 0 21G<6 81> 300 100<81 269> 600 100<81 344>
VStem: 6 75<0 300 400 600>
LayerCount: 2
Back
Fore
SplineSet
81 0 m 29
 6 0 l 25
 6 700 l 25
 344 700 l 25
 344 600 l 25
 81 600 l 25
 81 400 l 25
 269 400 l 25
 269 300 l 25
 81 300 l 25
 81 0 l 29
EndSplineSet
Validated: 1
EndChar

StartChar: G
Encoding: 71 71 34
Width: 450
Flags: W
HStem: 0 100<81 269> 200 100<156 269> 500 100<306 344> 600 100<81 269>
VStem: 6 75<100 600> 44 262<0 100 600 700> 156 188<200 300> 269 75<100 200 500 600>
LayerCount: 2
Back
Fore
SplineSet
269 600 m 29xd1
 81 600 l 25
 81 100 l 25
 269 100 l 25
 269 200 l 25xd9
 156 200 l 25
 156 300 l 25
 344 300 l 25xd2
 344 100 l 25xd1
 306 100 l 25
 306 0 l 25
 44 0 l 25
 44 100 l 25xd4
 6 100 l 25
 6 600 l 25xd8
 44 600 l 25
 44 700 l 25
 306 700 l 25xd4
 306 600 l 25xe4
 344 600 l 25
 344 500 l 25
 269 500 l 25xe1
 269 600 l 29xd1
EndSplineSet
Validated: 1
EndChar

StartChar: H
Encoding: 72 72 35
Width: 450
Flags: W
HStem: 0 21G<6 81 269 344> 300 100<81 269> 680 20G<6 81 269 344>
VStem: 6 75<0 300 400 700> 269 75<0 300 400 700>
LayerCount: 2
Back
Fore
SplineSet
6 700 m 29
 81 700 l 25
 81 400 l 25
 269 400 l 25
 269 700 l 25
 344 700 l 25
 344 0 l 25
 269 0 l 25
 269 300 l 25
 81 300 l 25
 81 0 l 25
 6 0 l 25
 6 700 l 29
EndSplineSet
Validated: 1
EndChar

StartChar: I
Encoding: 73 73 36
Width: 450
Flags: W
HStem: 0 100<0 112 188 300> 600 100<0 112 188 300>
VStem: 0 300<0 100 600 700> 112 76<100 600>
LayerCount: 2
Back
Fore
SplineSet
0 700 m 29xe0
 300 700 l 25
 300 600 l 25xe0
 188 600 l 25
 188 100 l 25xd0
 300 100 l 25
 300 0 l 25
 0 0 l 25
 0 100 l 25xe0
 112 100 l 25
 112 600 l 25xd0
 0 600 l 25
 0 700 l 29xe0
EndSplineSet
Validated: 1
EndChar

StartChar: J
Encoding: 74 74 37
Width: 450
Flags: W
HStem: 0 100<81 269> 100 100<6 44> 680 20G<269 344>
VStem: 6 75<100 200> 269 75<100 700>
LayerCount: 2
Back
Fore
SplineSet
269 700 m 29xb8
 344 700 l 25
 344 100 l 25
 306 100 l 25x78
 306 0 l 25
 44 0 l 25xb8
 44 100 l 25
 6 100 l 25
 6 200 l 25
 81 200 l 25x78
 81 100 l 25
 269 100 l 25
 269 700 l 29xb8
EndSplineSet
Validated: 1
EndChar

StartChar: K
Encoding: 75 75 38
Width: 450
Flags: W
HStem: 0 100<269 344> 200 100<156 194> 300 100<81 119> 400 100<156 194> 600 100<269 344>
VStem: 6 150<300 400> 6 75<0 300 400 700> 119 112<200 300 400 500> 194 75<100 200 500 600> 231 113<0 100 600 700>
LayerCount: 2
Back
Fore
SplineSet
6 700 m 29xab
 81 700 l 25
 81 400 l 25
 119 400 l 25xab
 119 500 l 25x9b
 194 500 l 25
 194 600 l 25x9880
 231 600 l 25
 231 700 l 25
 344 700 l 25
 344 600 l 25x9840
 269 600 l 25
 269 500 l 25x9880
 231 500 l 25
 231 400 l 25x99
 156 400 l 25
 156 300 l 25xdc
 231 300 l 25xa9
 231 200 l 25xc9
 269 200 l 25
 269 100 l 25xc880
 344 100 l 25
 344 0 l 25
 231 0 l 25
 231 100 l 25xc840
 194 100 l 25
 194 200 l 25xc880
 119 200 l 25xc9
 119 300 l 25
 81 300 l 25
 81 0 l 25
 6 0 l 25
 6 700 l 29xab
EndSplineSet
Validated: 1
EndChar

StartChar: L
Encoding: 76 76 39
Width: 450
Flags: W
HStem: 0 100<81 344> 680 20G<6 81>
VStem: 6 75<100 700>
LayerCount: 2
Back
Fore
SplineSet
6 700 m 29
 81 700 l 25
 81 100 l 25
 344 100 l 25
 344 0 l 25
 6 0 l 25
 6 700 l 29
EndSplineSet
Validated: 1
EndChar

StartChar: M
Encoding: 77 77 40
Width: 450
Flags: W
HStem: 0 21G<-38 38 262 338> 680 20G<-38 75 225 338>
VStem: -38 150<500 600> -38 113<600 700> -38 76<0 500> 75 150<400 500> 188 150<500 600> 225 113<600 700> 262 76<0 500>
LayerCount: 2
Back
Fore
SplineSet
38 0 m 29xcc
 -38 0 l 25xcc
 -38 700 l 25
 75 700 l 25
 75 600 l 25xd0
 112 600 l 25
 112 500 l 25
 188 500 l 25
 188 600 l 25xe2
 225 600 l 25
 225 700 l 25
 338 700 l 25xc1
 338 0 l 25
 262 0 l 25
 262 500 l 25
 225 500 l 25
 225 400 l 25xc480
 188 400 l 25
 188 300 l 25
 112 300 l 25
 112 400 l 25xe2
 75 400 l 25
 75 500 l 25
 38 500 l 25
 38 0 l 29xcc
EndSplineSet
Validated: 1
EndChar

StartChar: N
Encoding: 78 78 41
Width: 450
Flags: W
HStem: 0 21G<-38 38 225 338> 680 20G<-38 75 262 338>
VStem: -38 150<500 600> -38 113<600 700> -38 76<0 500> 75 75<400 500> 112 76<300 400> 150 75<200 300> 188 150<100 200> 225 113<0 100> 262 76<200 700>
LayerCount: 2
Back
Fore
SplineSet
-38 700 m 29xd0
 75 700 l 25
 75 600 l 25xd0
 112 600 l 25
 112 500 l 25xe0
 150 500 l 25
 150 400 l 25xc4
 188 400 l 25
 188 300 l 25xc2
 225 300 l 25
 225 200 l 25
 262 200 l 25
 262 700 l 25
 338 700 l 25xc120
 338 0 l 25
 225 0 l 25
 225 100 l 25xc040
 188 100 l 25
 188 200 l 25xc080
 150 200 l 25
 150 300 l 25xc1
 112 300 l 25
 112 400 l 25xc2
 75 400 l 25
 75 500 l 25
 38 500 l 25
 38 0 l 25
 -38 0 l 25xcc
 -38 700 l 29xd0
EndSplineSet
Validated: 1
EndChar

StartChar: O
Encoding: 79 79 42
Width: 450
Flags: W
HStem: 0 100<75 225> 600 100<75 225>
VStem: -38 76<200 500> 0 75<100 200 500 600> 38 224<0 100 600 700> 225 75<100 200 500 600> 262 76<200 500>
LayerCount: 2
Back
Fore
SplineSet
225 100 m 29xd4
 225 200 l 25xd4
 262 200 l 25
 262 500 l 25xc2
 225 500 l 25
 225 600 l 25
 75 600 l 25
 75 500 l 25xd4
 38 500 l 25
 38 200 l 25xe0
 75 200 l 25
 75 100 l 25
 225 100 l 29xd4
262 0 m 25xc8
 38 0 l 25
 38 100 l 25xc8
 0 100 l 25
 0 200 l 25xd0
 -38 200 l 25
 -38 500 l 25xe0
 0 500 l 25
 0 600 l 25xd0
 38 600 l 25
 38 700 l 25
 262 700 l 25
 262 600 l 25xc8
 300 600 l 25
 300 500 l 25xc4
 338 500 l 25
 338 200 l 25xc2
 300 200 l 25
 300 100 l 25xc4
 262 100 l 25
 262 0 l 25xc8
EndSplineSet
Validated: 1
EndChar

StartChar: P
Encoding: 80 80 43
Width: 450
Flags: W
HStem: 0 21G<6 81> 300 100<81 269> 600 100<81 269>
VStem: 6 75<0 300 400 600> 269 75<400 600>
LayerCount: 2
Back
Fore
SplineSet
81 600 m 29
 81 400 l 25
 269 400 l 25
 269 600 l 25
 81 600 l 29
6 700 m 25
 306 700 l 25
 306 650 l 25
 344 650 l 25
 344 400 l 25
 306 400 l 25
 306 300 l 25
 81 300 l 25
 81 0 l 25
 6 0 l 25
 6 700 l 25
EndSplineSet
Validated: 1
EndChar

StartChar: Q
Encoding: 81 81 44
Width: 450
Flags: W
HStem: -200 100<262 338> 0 100<38 150> 600 100<38 262>
VStem: -38 76<100 600> 0 300<0 100 600 700> 150 75<100 200> 188 74<-100 0> 225 113<-200 -100> 262 76<100 600>
LayerCount: 2
Back
Fore
SplineSet
38 600 m 29xf480
 38 100 l 25
 150 100 l 25
 150 200 l 25
 225 200 l 25
 225 100 l 25
 262 100 l 25
 262 600 l 25
 38 600 l 29xf480
0 700 m 25xe8
 300 700 l 25
 300 600 l 25xe8
 338 600 l 25
 338 100 l 25xe080
 300 100 l 25
 300 0 l 25xe8
 262 0 l 25
 262 -100 l 25xe2
 338 -100 l 25
 338 -200 l 25
 225 -200 l 25
 225 -100 l 25xe1
 188 -100 l 25
 188 0 l 25xe2
 0 0 l 25
 0 100 l 25xe8
 -38 100 l 25
 -38 600 l 25xf0
 0 600 l 25
 0 700 l 25xe8
EndSplineSet
Validated: 1
EndChar

StartChar: R
Encoding: 82 82 45
Width: 450
Flags: W
HStem: 0 100<269 344> 300 100<81 156 231 269> 600 100<81 269>
VStem: 6 75<0 300 400 600> 156 75<200 300> 194 75<100 200> 231 113<0 100> 269 75<400 600>
CounterMasks: 1 e0
LayerCount: 2
Back
Fore
SplineSet
81 600 m 29xf1
 81 400 l 25
 269 400 l 25
 269 600 l 25
 81 600 l 29xf1
6 700 m 25
 306 700 l 25
 306 650 l 25
 344 650 l 25
 344 400 l 25
 306 400 l 25
 306 300 l 25
 231 300 l 25
 231 200 l 25xf9
 269 200 l 25
 269 100 l 25xf4
 344 100 l 25
 344 0 l 25
 231 0 l 25
 231 100 l 25xf2
 194 100 l 25
 194 200 l 25xf4
 156 200 l 25
 156 300 l 25xf8
 81 300 l 25
 81 0 l 25
 6 0 l 25
 6 700 l 25
EndSplineSet
Validated: 1
EndChar

StartChar: S
Encoding: 83 83 46
Width: 450
Flags: W
HStem: 0 100<44 269> 300 100<81 269> 600 100<81 306>
VStem: 6 75<400 600> 44 262<0 100 300 400 600 700> 269 75<100 300>
CounterMasks: 1 e0
LayerCount: 2
Back
Fore
SplineSet
44 600 m 29xe8
 44 700 l 25
 306 700 l 25
 306 600 l 25xe8
 81 600 l 25
 81 400 l 25xf0
 306 400 l 25
 306 300 l 25xe8
 344 300 l 25
 344 100 l 25xe4
 306 100 l 25
 306 0 l 25
 44 0 l 25
 44 100 l 25xe8
 269 100 l 25
 269 300 l 25xe4
 44 300 l 25
 44 400 l 25xe8
 6 400 l 25
 6 600 l 25xf0
 44 600 l 29xe8
EndSplineSet
Validated: 1
EndChar

StartChar: T
Encoding: 84 84 47
Width: 450
Flags: W
HStem: 0 21G<112 188> 600 100<-38 112 188 338>
VStem: 112 76<0 600>
LayerCount: 2
Back
Fore
SplineSet
-38 700 m 1
 338 700 l 5
 338 600 l 1
 188 600 l 1
 188 0 l 25
 112 0 l 25
 112 600 l 1
 -38 600 l 1
 -38 700 l 1
EndSplineSet
Validated: 1
EndChar

StartChar: U
Encoding: 85 85 48
Width: 450
Flags: W
HStem: 0 100<81 269> 680 20G<6 81 269 344>
VStem: 6 75<100 700> 269 75<100 700>
LayerCount: 2
Back
Fore
SplineSet
6 700 m 29
 81 700 l 25
 81 100 l 25
 269 100 l 25
 269 700 l 25
 344 700 l 25
 344 100 l 25
 306 100 l 25
 306 0 l 25
 44 0 l 25
 44 100 l 25
 6 100 l 25
 6 700 l 29
EndSplineSet
Validated: 1
EndChar

StartChar: V
Encoding: 86 86 49
Width: 450
Flags: W
HStem: 0 21G<162 238> 680 20G<12 88 312 388>
VStem: 12 76<500 700> 50 75<300 500> 88 74<200 300> 125 150<100 200> 238 74<200 300> 275 75<300 500> 312 76<500 700>
LayerCount: 2
Back
Fore
SplineSet
12 700 m 29xe0
 88 700 l 25
 88 500 l 25xe0
 125 500 l 25
 125 300 l 25xd0
 162 300 l 25
 162 200 l 25
 238 200 l 25
 238 300 l 25xca
 275 300 l 25
 275 500 l 25xc1
 312 500 l 25
 312 700 l 25
 388 700 l 25
 388 500 l 25xc080
 350 500 l 25
 350 300 l 25xc1
 312 300 l 25
 312 200 l 25xc2
 275 200 l 25
 275 100 l 25xc4
 238 100 l 25
 238 0 l 25
 162 0 l 25
 162 100 l 25xca
 125 100 l 25
 125 200 l 25xc4
 88 200 l 25
 88 300 l 25xc8
 50 300 l 25
 50 500 l 25xd0
 12 500 l 25
 12 700 l 29xe0
EndSplineSet
Validated: 1
EndChar

StartChar: W
Encoding: 87 87 50
Width: 450
Flags: W
HStem: 0 21G<0 75 225 300> 680 20G<-38 38 262 338>
VStem: -38 76<200 700> 0 112<100 200> 0 75<0 100> 75 150<200 300> 188 112<100 200> 225 75<0 100> 262 76<200 700>
LayerCount: 2
Back
Fore
SplineSet
-38 700 m 29xe0
 38 700 l 25
 38 200 l 25
 75 200 l 25
 75 300 l 25xe4
 112 300 l 25
 112 400 l 25
 188 400 l 25
 188 300 l 25xd2
 225 300 l 25
 225 200 l 25
 262 200 l 25
 262 700 l 25
 338 700 l 25
 338 200 l 25xc480
 300 200 l 25xc2
 300 0 l 25
 225 0 l 25
 225 100 l 25xc1
 188 100 l 25
 188 200 l 25
 112 200 l 25
 112 100 l 25xd2
 75 100 l 25
 75 0 l 25
 0 0 l 25xc8
 0 200 l 25xd0
 -38 200 l 25
 -38 700 l 29xe0
EndSplineSet
Validated: 1
EndChar

StartChar: X
Encoding: 88 88 51
Width: 450
Flags: W
HStem: 0 100<0 38 262 300> 600 100<0 38 262 300>
VStem: 0 75<0 100 600 700> 38 74<100 200 500 600> 75 150<200 300 400 500> 188 74<100 200 500 600> 225 75<0 100 600 700>
LayerCount: 2
Back
Fore
SplineSet
0 700 m 29xe0
 75 700 l 25
 75 600 l 25xe0
 112 600 l 25
 112 500 l 25
 188 500 l 25
 188 600 l 25xd4
 225 600 l 25
 225 700 l 25
 300 700 l 25
 300 600 l 25xc2
 262 600 l 25
 262 500 l 25xc4
 225 500 l 25
 225 400 l 25xc8
 188 400 l 25
 188 300 l 25xc4
 225 300 l 25
 225 200 l 25xc8
 262 200 l 25
 262 100 l 25xc4
 300 100 l 25
 300 0 l 25
 225 0 l 25
 225 100 l 25xc2
 188 100 l 25
 188 200 l 25
 112 200 l 25
 112 100 l 25xd4
 75 100 l 25
 75 0 l 25
 0 0 l 25
 0 100 l 25xe0
 38 100 l 25
 38 200 l 25xd0
 75 200 l 25
 75 300 l 25xc8
 112 300 l 25
 112 400 l 25xd0
 75 400 l 25
 75 500 l 25xc8
 38 500 l 25
 38 600 l 25xd0
 0 600 l 25
 0 700 l 29xe0
EndSplineSet
Validated: 1
EndChar

StartChar: Y
Encoding: 89 89 52
Width: 450
Flags: W
HStem: 0 21G<112 188> 600 100<-38 0 300 338>
VStem: -38 76<600 700> 0 75<500 600> 38 74<400 500> 75 150<300 400> 188 74<400 500> 225 75<500 600> 262 76<600 700>
LayerCount: 2
Back
Fore
SplineSet
-38 700 m 29xe0
 38 700 l 25
 38 600 l 25xe0
 75 600 l 25
 75 500 l 25xd0
 112 500 l 25
 112 400 l 25
 188 400 l 25
 188 500 l 25xca
 225 500 l 25
 225 600 l 25xc1
 262 600 l 25
 262 700 l 25
 338 700 l 25
 338 600 l 25xc080
 300 600 l 25
 300 500 l 25xc1
 262 500 l 25
 262 400 l 25xc2
 225 400 l 25
 225 300 l 25xc4
 188 300 l 25
 188 0 l 25
 112 0 l 25
 112 300 l 25xca
 75 300 l 25
 75 400 l 25xc4
 38 400 l 25
 38 500 l 25xc8
 0 500 l 25
 0 600 l 25xd0
 -38 600 l 25
 -38 700 l 29xe0
EndSplineSet
Validated: 1
EndChar

StartChar: Z
Encoding: 90 90 53
Width: 450
Flags: W
HStem: 0 100<0 38 112 300> 600 100<0 188 262 300>
VStem: 0 300<0 100 600 700> 38 74<100 200> 75 75<200 300> 112 76<300 400> 150 75<400 500> 188 74<500 600>
LayerCount: 2
Back
Fore
SplineSet
0 700 m 29xe0
 300 700 l 25
 300 600 l 25xe0
 262 600 l 25
 262 500 l 25xc1
 225 500 l 25
 225 400 l 25xc2
 188 400 l 25
 188 300 l 25xc4
 150 300 l 25
 150 200 l 25xc8
 112 200 l 25
 112 100 l 25xd0
 300 100 l 25
 300 0 l 25
 0 0 l 25
 0 100 l 25xe0
 38 100 l 25
 38 200 l 25xd0
 75 200 l 25
 75 300 l 25xc8
 112 300 l 25
 112 400 l 25xc4
 150 400 l 25
 150 500 l 25xc2
 188 500 l 25
 188 600 l 25xc1
 0 600 l 25
 0 700 l 29xe0
EndSplineSet
Validated: 1
EndChar

StartChar: a
Encoding: 97 97 54
Width: 450
Flags: W
HStem: 0 100<38 225 300 337> 100 100<-38 0> 200 100<38 225> 400 100<0 225>
VStem: -38 76<100 200> 225 75<100 200 300 400>
LayerCount: 2
Back
Fore
SplineSet
38 200 m 29xbc
 38 100 l 25
 225 100 l 25
 225 200 l 25
 38 200 l 29xbc
0 500 m 25
 262 500 l 25
 262 400 l 25
 300 400 l 25
 300 100 l 25
 337 100 l 25
 338 0 l 25
 0 0 l 25xbc
 0 100 l 25
 -38 100 l 25
 -38 200 l 25
 0 200 l 25x5c
 0 300 l 25
 225 300 l 25
 225 400 l 25
 0 400 l 25
 0 500 l 25
EndSplineSet
Validated: 1
EndChar

StartChar: b
Encoding: 98 98 55
Width: 450
Flags: W
HStem: 0 100<81 269> 300 100<81 119> 400 100<119 269> 680 20G<6 81>
VStem: 6 113<300 400> 6 75<100 300 400 700> 119 187<400 500> 269 75<100 400>
LayerCount: 2
Back
Fore
SplineSet
269 400 m 29xb5
 119 400 l 25
 119 300 l 25xd9
 81 300 l 25xd4
 81 100 l 25
 269 100 l 25
 269 400 l 29xb5
6 700 m 25xb6
 81 700 l 25
 81 400 l 25xd6
 119 400 l 25xd8
 119 500 l 25
 306 500 l 25
 306 400 l 25xb2
 344 400 l 25
 344 100 l 25xb1
 306 100 l 25
 306 0 l 25
 6 0 l 25
 6 700 l 25xb6
EndSplineSet
Validated: 5
EndChar

StartChar: c
Encoding: 99 99 56
Width: 450
Flags: W
HStem: 0 100<119 344> 200 100<6 44> 400 100<119 344>
VStem: 6 75<200 300> 44 75<100 200 300 400> 81 263<0 100 400 500>
CounterMasks: 1 e0
LayerCount: 2
Back
Fore
SplineSet
81 500 m 29xe4
 344 500 l 25
 344 400 l 25xe4
 119 400 l 25
 119 300 l 25xe8
 81 300 l 25
 81 200 l 25xf0
 119 200 l 25
 119 100 l 25xe8
 344 100 l 25
 344 0 l 25
 81 0 l 25
 81 100 l 25xe4
 44 100 l 25
 44 200 l 25xe8
 6 200 l 25
 6 300 l 25xf0
 44 300 l 25
 44 400 l 25xe8
 81 400 l 25
 81 500 l 29xe4
EndSplineSet
Validated: 1
EndChar

StartChar: d
Encoding: 100 100 57
Width: 450
Flags: W
HStem: 0 100<81 269> 300 100<231 269> 400 100<81 231> 680 20G<269 344>
VStem: 6 75<100 400> 44 187<400 500> 231 113<300 400> 269 75<100 300 400 700>
LayerCount: 2
Back
Fore
SplineSet
81 100 m 29xb8
 269 100 l 25
 269 300 l 25xd9
 231 300 l 25xd2
 231 400 l 25xd4
 81 400 l 25
 81 100 l 29xb8
269 700 m 25
 344 700 l 25
 344 0 l 25
 44 0 l 25
 44 100 l 25xd5
 6 100 l 25
 6 400 l 25xb8
 44 400 l 25
 44 500 l 25
 231 500 l 25xb4
 231 400 l 25xd4
 269 400 l 25
 269 700 l 25
EndSplineSet
Validated: 5
EndChar

StartChar: e
Encoding: 101 101 58
Width: 450
Flags: W
HStem: 0 100<81 306> 200 100<81 269> 400 100<81 269>
VStem: 6 75<100 200 300 400> 44 262<0 100 400 500> 269 75<300 400>
CounterMasks: 1 e0
LayerCount: 2
Back
Fore
SplineSet
81 400 m 1xf4
 81 300 l 1
 269 300 l 1
 269 400 l 1
 81 400 l 1xf4
44 400 m 1xe8
 44 500 l 1
 306 500 l 1
 306 400 l 25xe8
 344 400 l 25
 344 200 l 1
 81 200 l 1
 81 100 l 1xf4
 306 100 l 1
 306 0 l 1
 44 0 l 1
 44 100 l 1xe8
 6 100 l 1
 6 400 l 5xf0
 44 400 l 1xe8
EndSplineSet
Validated: 1
EndChar

StartChar: f
Encoding: 102 102 59
Width: 450
Flags: W
HStem: 0 21G<81 156> 300 100<6 81 156 269> 600 100<156 344>
VStem: 81 75<0 300 400 600>
LayerCount: 2
Back
Fore
SplineSet
119 600 m 29
 119 700 l 25
 344 700 l 25
 344 600 l 25
 156 600 l 25
 156 400 l 25
 269 400 l 25
 269 300 l 25
 156 300 l 25
 156 0 l 25
 81 0 l 25
 81 300 l 25
 6 300 l 25
 6 400 l 25
 81 400 l 25
 81 600 l 25
 119 600 l 29
EndSplineSet
Validated: 1
EndChar

StartChar: g
Encoding: 103 103 60
Width: 450
Flags: W
HStem: -200 100<44 269> 0 100<81 231> 100 100<231 269> 300 100<231 269> 400 100<81 231>
VStem: 6 75<100 400> 44 187<0 100 400 498> 231 113<100 200 300 400> 269 75<-100 100 200 300 400 500>
LayerCount: 2
Back
Fore
SplineSet
81 400 m 29x8c
 81 100 l 25xcc
 231 100 l 25xca
 231 200 l 25xa1
 269 200 l 25
 269 300 l 25xb080
 231 300 l 25xb1
 231 400 l 25xb2
 81 400 l 29x8c
44 400 m 25xaa
 44 498 l 25xaa
 231 500 l 25xa9
 231 400 l 25
 269 400 l 25x9280
 269 500 l 25
 344 500 l 25
 344 -100 l 25
 306 -100 l 25
 306 -200 l 25
 44 -200 l 25
 44 -100 l 25
 269 -100 l 25
 269 100 l 25xaa80
 231 100 l 25
 231 0 l 25
 44 0 l 25xc280
 44 100 l 25xa280
 6 100 l 25
 6 400 l 25xac
 44 400 l 25xaa
EndSplineSet
Validated: 5
EndChar

StartChar: h
Encoding: 104 104 61
Width: 450
Flags: W
HStem: 0 21G<6 81 269 344> 300 100<81 119> 400 100<119 269> 680 20G<6 81>
VStem: 6 113<300 400> 6 75<0 300 400 700> 269 75<0 400>
LayerCount: 2
Back
Fore
SplineSet
6 700 m 29xd6
 81 700 l 25
 81 400 l 25xd6
 119 400 l 25xda
 119 500 l 25
 306 500 l 25
 306 400 l 25
 344 400 l 25
 344 0 l 25
 269 0 l 25
 269 400 l 25xba
 119 400 l 25
 119 300 l 25xda
 81 300 l 25
 81 0 l 25
 6 0 l 25
 6 700 l 29xd6
EndSplineSet
Validated: 5
EndChar

StartChar: i
Encoding: 105 105 62
Width: 450
Flags: W
HStem: 0 100<38 112 187 262> 480 20G<75 188> 600 100<75 188>
VStem: 75 113<400 500 600 700> 112 76<100 400>
LayerCount: 2
Back
Fore
SplineSet
75 500 m 1xf0
 188 500 l 25xf0
 187 100 l 25
 262 100 l 25
 262 0 l 25
 38 0 l 25
 38 100 l 25
 112 100 l 25
 112 400 l 1xe8
 75 400 l 29
 75 500 l 1xf0
75 700 m 25
 188 700 l 25
 188 600 l 25
 75 600 l 25
 75 700 l 25
EndSplineSet
Validated: 1
EndChar

StartChar: j
Encoding: 106 106 63
Width: 450
Flags: W
HStem: -200 100<81 269> -100 100<6 44> 400 100<231 269> 600 100<231 343>
VStem: 6 75<-100 0> 231 113<400 500 600 700> 269 75<-100 400>
LayerCount: 2
Back
Fore
SplineSet
231 400 m 29xbc
 231 500 l 25
 344 500 l 25xbc
 344 -100 l 25
 306 -100 l 25x7a
 306 -200 l 25
 44 -200 l 25xba
 44 -100 l 25
 6 -100 l 25
 6 0 l 25
 81 0 l 25x7a
 81 -100 l 25
 269 -100 l 25
 269 400 l 25xba
 231 400 l 29xbc
231 700 m 25
 343 700 l 25
 344 600 l 25
 231 600 l 25
 231 700 l 25
EndSplineSet
Validated: 1
EndChar

StartChar: k
Encoding: 107 107 64
Width: 450
Flags: W
HStem: 0 100<225 300> 200 100<75 150> 400 100<225 300> 680 20G<0 75>
VStem: 0 188<200 300> 0 75<0 200 300 700> 150 75<100 200 300 400> 188 112<0 100 400 500>
LayerCount: 2
Back
Fore
SplineSet
0 700 m 29xf6
 75 700 l 25
 75 300 l 25
 150 300 l 25
 150 400 l 25xf6
 188 400 l 25
 188 500 l 25
 300 500 l 25
 300 400 l 25xf1
 225 400 l 25
 225 300 l 25xf2
 188 300 l 25
 188 200 l 25xf8
 225 200 l 25
 225 100 l 25xf2
 300 100 l 25
 300 0 l 25
 188 0 l 25
 188 100 l 25xf1
 150 100 l 25
 150 200 l 25
 75 200 l 25
 75 0 l 25
 0 0 l 25
 0 700 l 29xf6
EndSplineSet
Validated: 1
EndChar

StartChar: l
Encoding: 108 108 65
Width: 450
Flags: W
HStem: 0 100<0 112 188 300> 650 100<38 112>
VStem: 38 150<650 750> 112 76<100 650>
LayerCount: 2
Back
Fore
SplineSet
38 750 m 29xe0
 188 750 l 25xe0
 188 100 l 25
 300 100 l 25
 300 0 l 25
 0 0 l 25
 0 100 l 25
 112 100 l 25
 112 650 l 25xd0
 38 650 l 25
 38 750 l 29xe0
EndSplineSet
Validated: 1
EndChar

StartChar: m
Encoding: 109 109 66
Width: 450
Flags: W
HStem: 0 21G<-38 38 112 188 262 338> 400 100<38 112 188 262>
VStem: -38 76<0 400> 112 76<0 400> 262 76<0 400>
CounterMasks: 1 38
LayerCount: 2
Back
Fore
SplineSet
-38 0 m 29
 -38 500 l 25
 299 500 l 25
 300 400 l 25
 338 400 l 25
 338 0 l 25
 262 0 l 25
 262 400 l 25
 188 400 l 25
 188 0 l 25
 112 0 l 25
 112 400 l 25
 38 400 l 25
 38 0 l 25
 -38 0 l 29
EndSplineSet
Validated: 1
EndChar

StartChar: n
Encoding: 110 110 67
Width: 450
Flags: W
HStem: 0 21G<6 81 269 344> 300 100<81 119> 400 100<119 269>
VStem: 6 113<300 400> 6 75<0 300 400 500> 269 75<0 400>
LayerCount: 2
Back
Fore
SplineSet
6 0 m 29xcc
 6 500 l 25
 81 500 l 25xac
 81 400 l 25xcc
 119 400 l 25xd4
 119 500 l 25
 306 500 l 25
 306 400 l 25
 344 400 l 25
 344 0 l 25
 269 0 l 25
 269 400 l 25xb4
 119 400 l 25
 119 300 l 25xd4
 81 300 l 25
 81 0 l 25
 6 0 l 29xcc
EndSplineSet
Validated: 5
EndChar

StartChar: o
Encoding: 111 111 68
Width: 450
Flags: W
HStem: 0 100<81 269> 400 100<81 269>
VStem: 6 75<100 400> 44 262<0 100 400 500> 269 75<100 400>
LayerCount: 2
Back
Fore
SplineSet
81 400 m 29xe8
 81 100 l 25
 269 100 l 25
 269 400 l 25
 81 400 l 29xe8
44 500 m 25xd0
 306 500 l 25
 306 400 l 25xd0
 344 400 l 25
 344 100 l 25xc8
 306 100 l 25
 306 0 l 25
 44 0 l 25
 44 100 l 25xd0
 6 100 l 25
 6 400 l 25xe0
 44 400 l 25
 44 500 l 25xd0
EndSplineSet
Validated: 1
EndChar

StartChar: p
Encoding: 112 112 69
Width: 450
Flags: W
HStem: -200 21G<6 81> 0 100<119 269> 100 100<81 119> 300 100<81 119> 400 100<119 269>
VStem: 6 113<100 200 300 400> 6 75<-200 100 200 300 400 500> 119 187<0 100 400 500> 269 75<100 400>
LayerCount: 2
Back
Fore
SplineSet
119 300 m 29x9480
 81 300 l 25
 81 200 l 25xb2
 119 200 l 25xb4
 119 100 l 25
 269 100 l 25
 269 400 l 25xcc80
 119 400 l 25
 119 300 l 29x9480
6 500 m 25xaa
 81 500 l 25xaa
 81 400 l 25x92
 119 400 l 25x94
 119 500 l 25
 306 500 l 25
 306 400 l 25x89
 344 400 l 25
 344 100 l 25xa880
 306 100 l 25xa9
 306 0 l 25
 119 0 l 25xc1
 119 100 l 25xc4
 81 100 l 25
 81 -200 l 25
 6 -200 l 25
 6 500 l 25xaa
EndSplineSet
Validated: 5
EndChar

StartChar: q
Encoding: 113 113 70
Width: 450
Flags: W
HStem: -200 21G<269 344> 0 100<81 231> 100 100<231 269> 300 100<231 269> 400 100<81 231>
VStem: 6 75<100 400> 44 187<0 100 400 500> 231 113<100 200 300 400> 269 75<-200 100 200 300 400 500>
LayerCount: 2
Back
Fore
SplineSet
81 400 m 29x8c
 81 100 l 25xcc
 231 100 l 25xca
 231 200 l 25xa1
 269 200 l 25
 269 300 l 25xb080
 231 300 l 25xb1
 231 400 l 25xb2
 81 400 l 29x8c
44 500 m 25xaa
 231 500 l 25xaa
 231 400 l 25
 269 400 l 25x9280
 269 500 l 25
 344 500 l 25
 344 -200 l 25
 269 -200 l 25
 269 100 l 25xaa80
 231 100 l 25
 231 0 l 25
 44 0 l 25xc280
 44 100 l 25xa280
 6 100 l 25
 6 400 l 25xac
 44 400 l 25
 44 500 l 25xaa
EndSplineSet
Validated: 5
EndChar

StartChar: r
Encoding: 114 114 71
Width: 450
Flags: W
HStem: 0 21G<6 81> 300 100<81 156> 400 100<156 344>
VStem: 6 150<300 400> 6 75<0 300 400 500> 156 188<400 500>
LayerCount: 2
Back
Fore
SplineSet
6 0 m 29xc8
 6 500 l 25
 81 500 l 25xa8
 81 400 l 25xc8
 156 400 l 25xd0
 156 500 l 25
 344 500 l 25
 344 400 l 25xa4
 156 400 l 25
 156 300 l 25xd0
 81 300 l 25
 81 0 l 25
 6 0 l 29xc8
EndSplineSet
Validated: 5
EndChar

StartChar: s
Encoding: 115 115 72
Width: 450
Flags: W
HStem: 0 100<44 269> 100 100<306 344> 200 100<81 269> 300 100<6 44> 400 100<81 306>
VStem: 6 75<300 400> 44 262<0 100 200 300 400 500> 269 75<100 200>
LayerCount: 2
Back
Fore
SplineSet
306 400 m 1x0a
 81 400 l 1
 81 300 l 1x2c
 306 300 l 1
 306 200 l 25x52
 344 200 l 25
 344 100 l 25x51
 306 100 l 25x52
 306 0 l 1
 44 0 l 5
 44 100 l 1x82
 269 100 l 1
 269 200 l 1xa1
 44 200 l 1xa2
 44 300 l 1x12
 6 300 l 1
 6 400 l 1x14
 44 400 l 1x12
 44 500 l 1
 306 500 l 1
 306 400 l 1x0a
EndSplineSet
Validated: 1
EndChar

StartChar: t
Encoding: 116 116 73
Width: 450
Flags: W
HStem: 0 100<156 344> 400 100<6 81 156 269> 680 20G<81 156>
VStem: 81 75<100 400 500 700>
LayerCount: 2
Back
Fore
SplineSet
81 700 m 25
 156 700 l 25
 156 500 l 1
 269 500 l 5
 269 400 l 1
 156 400 l 1
 156 100 l 25
 344 100 l 25
 344 0 l 25
 119 0 l 25
 119 100 l 25
 81 100 l 25
 81 400 l 25
 6 400 l 25
 6 500 l 25
 81 500 l 25
 81 700 l 25
EndSplineSet
Validated: 1
EndChar

StartChar: u
Encoding: 117 117 74
Width: 450
Flags: W
HStem: 0 100<81 231> 100 100<231 269> 480 20G<6 81 269 344>
VStem: 6 75<100 500> 231 113<100 200> 269 75<0 100 200 500>
LayerCount: 2
Back
Fore
SplineSet
6 500 m 29x78
 81 500 l 25
 81 100 l 25
 231 100 l 25xb8
 231 200 l 25x78
 269 200 l 25x74
 269 500 l 25
 344 500 l 25
 344 0 l 25
 269 0 l 25xb4
 269 100 l 25x74
 231 100 l 25
 231 0 l 25
 44 0 l 25xb8
 44 100 l 25
 6 100 l 25
 6 500 l 29x78
EndSplineSet
Validated: 5
EndChar

StartChar: v
Encoding: 118 118 75
Width: 450
Flags: W
HStem: 0 21G<112 188> 400 100<-38 0 300 338>
VStem: -38 76<400 500> 0 75<300 400> 38 74<200 300> 75 150<100 200> 188 74<200 300> 225 75<300 400> 262 76<400 500>
LayerCount: 2
Back
Fore
SplineSet
-38 500 m 29xe0
 38 500 l 25
 38 400 l 25xe0
 75 400 l 25
 75 300 l 25xd0
 112 300 l 25
 112 200 l 25
 188 200 l 25
 188 300 l 25xca
 225 300 l 25
 225 400 l 25xc1
 262 400 l 25
 262 500 l 25
 338 500 l 25
 338 400 l 25xc080
 300 400 l 25
 300 300 l 25xc1
 262 300 l 25
 262 200 l 25xc2
 225 200 l 25
 225 100 l 25xc4
 188 100 l 25
 188 0 l 25
 112 0 l 25
 112 100 l 25xca
 75 100 l 25
 75 200 l 25xc4
 38 200 l 25
 38 300 l 25xc8
 0 300 l 25
 0 400 l 25xd0
 -38 400 l 25
 -38 500 l 29xe0
EndSplineSet
Validated: 1
EndChar

StartChar: w
Encoding: 119 119 76
Width: 450
Flags: W
HStem: 0 100<75 112 188 225> 480 20G<-38 38 262 338>
VStem: -38 76<200 500> 0 75<100 200> 112 76<100 400> 225 75<100 200> 262 76<200 500>
LayerCount: 2
Back
Fore
SplineSet
262 500 m 29xca
 338 500 l 25
 338 200 l 25xca
 300 200 l 25
 300 100 l 25xcc
 262 100 l 25
 262 0 l 25
 188 0 l 25
 188 100 l 25
 112 100 l 25
 112 0 l 25
 38 0 l 25
 38 100 l 25xea
 0 100 l 25
 0 200 l 25xd8
 -38 200 l 25
 -38 500 l 25
 38 500 l 25
 38 200 l 25xe8
 75 200 l 25
 75 100 l 25
 112 100 l 25
 112 400 l 25
 188 400 l 25
 188 100 l 25
 225 100 l 25
 225 200 l 25xdc
 262 200 l 25
 262 500 l 29xca
EndSplineSet
Validated: 5
EndChar

StartChar: x
Encoding: 120 120 77
Width: 450
Flags: W
HStem: 0 100<-38 38 262 338> 200 100<112 188> 400 100<-38 38 262 338>
VStem: -38 113<0 100 400 500> 38 74<100 200 300 400> 188 74<100 200 300 400> 225 113<0 100 400 500>
CounterMasks: 1 e0
LayerCount: 2
Back
Fore
SplineSet
-38 500 m 29xf0
 75 500 l 25
 75 400 l 25xf0
 112 400 l 25
 112 300 l 25
 188 300 l 25
 188 400 l 25xec
 225 400 l 25
 225 500 l 25
 338 500 l 25
 338 400 l 25xe2
 262 400 l 25
 262 300 l 25xe4
 225 300 l 25
 225 200 l 25xe2
 262 200 l 25
 262 100 l 25xe4
 338 100 l 25
 338 0 l 25
 225 0 l 25
 225 100 l 25xe2
 188 100 l 25
 188 200 l 25
 112 200 l 25
 112 100 l 25xec
 75 100 l 25
 75 0 l 25
 -38 0 l 25
 -38 100 l 25xf0
 38 100 l 25
 38 200 l 25xe8
 75 200 l 25
 75 300 l 25xf0
 38 300 l 25
 38 400 l 25xe8
 -38 400 l 25
 -38 500 l 29xf0
EndSplineSet
Validated: 1
EndChar

StartChar: y
Encoding: 121 121 78
Width: 450
Flags: W
HStem: -200 100<6 81> 400 100<6 44 306 344>
VStem: 6 75<400 500> 44 75<300 400> 81 75<-100 0 200 300> 119 112<100 200> 119 75<0 100> 194 75<200 300> 231 75<300 400> 269 75<400 500>
LayerCount: 2
Back
Fore
SplineSet
6 500 m 29xe0
 81 500 l 25
 81 400 l 25xe0
 119 400 l 25
 119 300 l 25xd0
 156 300 l 25
 156 200 l 25
 194 200 l 25
 194 300 l 25xc9
 231 300 l 25
 231 400 l 25xc080
 269 400 l 25
 269 500 l 25
 344 500 l 25
 344 400 l 25xc040
 306 400 l 25
 306 300 l 25xc080
 269 300 l 25
 269 200 l 25xc1
 231 200 l 25
 231 100 l 25xc4
 194 100 l 25
 194 0 l 25xc2
 156 0 l 25
 156 -100 l 25xc8
 119 -100 l 25
 119 -200 l 25
 6 -200 l 25
 6 -100 l 25xe2
 81 -100 l 25
 81 0 l 25xc8
 119 0 l 25xc2
 119 200 l 25xc4
 81 200 l 25
 81 300 l 25xc8
 44 300 l 25
 44 400 l 25xd0
 6 400 l 25
 6 500 l 29xe0
EndSplineSet
Validated: 1
EndChar

StartChar: z
Encoding: 122 122 79
Width: 450
Flags: W
HStem: 0 100<0 75 150 300> 400 100<0 150 225 300>
VStem: 0 300<0 100 400 500> 75 75<100 200> 112 76<200 300> 150 75<300 400>
LayerCount: 2
Back
Fore
SplineSet
0 500 m 29xe0
 300 500 l 25
 300 400 l 25xe0
 225 400 l 25
 225 300 l 25xc4
 188 300 l 25
 188 200 l 25xc8
 150 200 l 25
 150 100 l 25xd0
 300 100 l 25
 300 0 l 25
 0 0 l 25
 0 100 l 25xe0
 75 100 l 25
 75 200 l 25xd0
 112 200 l 25
 112 300 l 25xc8
 150 300 l 25
 150 400 l 25xc4
 0 400 l 25
 0 500 l 29xe0
EndSplineSet
Validated: 1
EndChar

StartChar: edieresis
Encoding: 235 235 82
Width: 450
Flags: W
HStem: 0 100<81 306> 200 100<81 269> 400 100<81 269> 600 100<44 119 231 306>
VStem: 6 75<100 200 300 400> 44 75<600 700> 231 75<600 700> 269 75<300 400>
LayerCount: 2
Back
Fore
SplineSet
231 700 m 25xf2
 306 700 l 25
 306 600 l 25
 231 600 l 25
 231 700 l 25xf2
44 700 m 25xf4
 119 700 l 25
 119 600 l 25
 44 600 l 25
 44 700 l 25xf4
81 400 m 1xf9
 81 300 l 1
 269 300 l 1
 269 400 l 1
 81 400 l 1xf9
44 400 m 1xf4
 44 500 l 1
 306 500 l 1
 306 400 l 25xf6
 344 400 l 25
 344 200 l 1
 81 200 l 1
 81 100 l 1xf9
 306 100 l 1
 306 0 l 1
 44 0 l 1
 44 100 l 1xf6
 6 100 l 1
 6 400 l 5xf8
 44 400 l 1xf4
EndSplineSet
Validated: 1
EndChar

StartChar: uni0401
Encoding: 1025 1025 97
Width: 450
Flags: W
HStem: 0 100<81 344> 300 100<81 269> 500 100<81 344> 700 100<44 119 231 306>
VStem: 6 75<100 300 400 500> 44 75<700 800> 231 75<700 800>
LayerCount: 2
Back
Fore
SplineSet
231 700 m 25xf2
 231 800 l 25
 306 800 l 25
 306 700 l 25
 231 700 l 25xf2
44 700 m 25xf6
 44 800 l 25
 119 800 l 25
 119 700 l 25
 44 700 l 25xf6
344 500 m 1
 81 500 l 1
 81 400 l 1
 269 400 l 25
 269 300 l 25
 81 300 l 25
 81 100 l 25
 344 100 l 25
 344 0 l 25
 6 0 l 1
 6 600 l 1xfa
 344 600 l 1
 344 500 l 1
EndSplineSet
Validated: 1
EndChar

StartChar: uni0402
Encoding: 1026 1026 98
Width: 450
Flags: W
HStem: 0 100<194 306> 300 100<156 306> 600 100<-31 81 156 269>
VStem: 81 75<0 300 400 600> 194 150<0 100> 306 75<100 300>
CounterMasks: 1 e0
LayerCount: 2
Back
Fore
SplineSet
81 0 m 29xf4
 81 600 l 25
 -31 600 l 25
 -31 700 l 25
 269 700 l 25
 269 600 l 25
 156 600 l 25
 156 400 l 25
 344 400 l 25
 344 300 l 25xf8
 381 300 l 25
 381 100 l 25xf4
 344 100 l 25
 344 0 l 25
 194 0 l 25
 194 100 l 25xf8
 306 100 l 25
 306 300 l 25
 156 300 l 25
 156 0 l 25
 81 0 l 29xf4
EndSplineSet
Validated: 1
EndChar

StartChar: uni0403
Encoding: 1027 1027 99
Width: 450
Flags: W
HStem: 0 21G<6 81> 500 100<81 119 194 344>
VStem: 6 75<0 500> 119 75<600 700> 156 75<700 800>
LayerCount: 2
Back
Fore
SplineSet
6 0 m 29xf0
 6 600 l 25
 119 600 l 25
 119 700 l 25xf0
 156 700 l 25
 156 800 l 25
 231 800 l 25
 231 700 l 25xe8
 194 700 l 25
 194 600 l 25
 344 600 l 25
 344 500 l 25
 81 500 l 25
 81 0 l 25
 6 0 l 29xf0
EndSplineSet
Validated: 1
EndChar

StartChar: uni0404
Encoding: 1028 1028 100
Width: 450
Flags: W
HStem: 0 100<69 219> 100 100<256 294> 300 100<31 181> 500 100<256 294> 600 100<69 219>
VStem: -44 75<200 300 400 500> -6 75<100 200 500 600> 31 225<0 100 600 700> 219 75<100 200 500 600>
LayerCount: 2
Back
Fore
SplineSet
69 500 m 29x3280
 31 500 l 25
 31 400 l 25
 181 400 l 25
 181 300 l 25
 31 300 l 25
 31 200 l 25x74
 69 200 l 25x72
 69 100 l 25
 219 100 l 25xa280
 219 200 l 25
 294 200 l 25
 294 100 l 25x6280
 256 100 l 25x61
 256 0 l 25
 31 0 l 25xa1
 31 100 l 25x61
 -6 100 l 25
 -6 200 l 25x62
 -44 200 l 25
 -44 500 l 25x74
 -6 500 l 25x72
 -6 600 l 25x2a
 31 600 l 25
 31 700 l 25
 256 700 l 25x29
 256 600 l 25x31
 294 600 l 25
 294 500 l 25
 219 500 l 25x3080
 219 600 l 25
 69 600 l 25x2a80
 69 500 l 29x3280
EndSplineSet
Validated: 1
EndChar

StartChar: uni0405
Encoding: 1029 1029 101
Width: 450
Flags: W
HStem: 0 100<44 269> 300 100<81 269> 600 100<81 306>
VStem: 6 75<400 600> 44 262<0 100 300 400 600 700> 269 75<100 300>
CounterMasks: 1 e0
LayerCount: 2
Back
Fore
SplineSet
44 600 m 29xe8
 44 700 l 25
 306 700 l 25
 306 600 l 25xe8
 81 600 l 25
 81 400 l 25xf0
 306 400 l 25
 306 300 l 25xe8
 344 300 l 25
 344 100 l 25xe4
 306 100 l 25
 306 0 l 25
 44 0 l 25
 44 100 l 25xe8
 269 100 l 25
 269 300 l 25xe4
 44 300 l 25
 44 400 l 25xe8
 6 400 l 25
 6 600 l 25xf0
 44 600 l 29xe8
EndSplineSet
Validated: 1
EndChar

StartChar: uni0406
Encoding: 1030 1030 102
Width: 450
Flags: W
HStem: 0 100<0 112 188 300> 600 100<0 112 188 300>
VStem: 0 300<0 100 600 700> 112 76<100 600>
LayerCount: 2
Back
Fore
SplineSet
0 700 m 29xe0
 300 700 l 25
 300 600 l 25xe0
 188 600 l 25
 188 100 l 25xd0
 300 100 l 25
 300 0 l 25
 0 0 l 25
 0 100 l 25xe0
 112 100 l 25
 112 600 l 25xd0
 0 600 l 25
 0 700 l 29xe0
EndSplineSet
Validated: 1
EndChar

StartChar: uni0407
Encoding: 1031 1031 103
Width: 450
Flags: HMW
LayerCount: 2
Back
Fore
SplineSet
188 700 m 1
 188 800 l 1
 262 800 l 1
 262 700 l 5
 188 700 l 1
38 700 m 1
 38 800 l 25
 112 800 l 25
 112 700 l 1
 38 700 l 1
0 500 m 25
 0 600 l 25
 300 600 l 25
 300 500 l 25
 188 500 l 25
 188 100 l 25
 300 100 l 25
 300 0 l 25
 0 0 l 25
 0 100 l 25
 112 100 l 25
 112 500 l 25
 0 500 l 25
EndSplineSet
Validated: 1
EndChar

StartChar: uni0408
Encoding: 1032 1032 104
Width: 450
Flags: W
HStem: 0 100<81 269> 100 100<6 44> 680 20G<269 344>
VStem: 6 75<100 200> 269 75<100 700>
LayerCount: 2
Back
Fore
SplineSet
269 700 m 29xb8
 344 700 l 25
 344 100 l 25
 306 100 l 25x78
 306 0 l 25
 44 0 l 25xb8
 44 100 l 25
 6 100 l 25
 6 200 l 25
 81 200 l 25x78
 81 100 l 25
 269 100 l 25
 269 700 l 29xb8
EndSplineSet
Validated: 1
EndChar

StartChar: uni0409
Encoding: 1033 1033 105
Width: 450
Flags: W
HStem: 0 100<-31 6 231 306> 300 100<231 306> 600 100<81 156>
VStem: -31 75<0 100> 6 75<100 600> 44 187<600 700> 156 188<0 50 300 400> 156 75<100 300 400 600> 306 75<100 300>
CounterMasks: 1 e0
LayerCount: 2
Back
Fore
SplineSet
231 100 m 29xe180
 306 100 l 25
 306 300 l 25
 231 300 l 25
 231 100 l 29xe180
-31 0 m 25xf0
 -31 100 l 25xf0
 6 100 l 25
 6 600 l 25xe8
 44 600 l 25
 44 700 l 25
 231 700 l 25xe4
 231 400 l 25xe1
 344 400 l 25
 344 300 l 25xe2
 381 300 l 25
 381 50 l 25xe080
 344 50 l 25
 344 0 l 25
 156 0 l 25xe2
 156 600 l 25
 81 600 l 25
 81 100 l 25xe9
 44 100 l 25
 44 0 l 25
 -31 0 l 25xf0
EndSplineSet
Validated: 1
EndChar

StartChar: uni040A
Encoding: 1034 1034 106
Width: 450
Flags: W
HStem: 0 100<231 306> 300 100<44 156 231 306> 680 20G<-31 44 156 231>
VStem: -31 75<0 300 400 700> 156 75<100 300 400 700> 306 75<100 300>
LayerCount: 2
Back
Fore
SplineSet
231 300 m 29
 231 100 l 25
 306 100 l 25
 306 300 l 25
 231 300 l 29
-31 700 m 25
 44 700 l 25
 44 400 l 25
 156 400 l 25
 156 700 l 25
 231 700 l 25
 231 400 l 25
 344 400 l 25
 344 300 l 25
 381 300 l 25
 381 50 l 25
 344 50 l 25
 344 0 l 25
 156 0 l 25
 156 300 l 25
 44 300 l 25
 44 0 l 25
 -31 0 l 25
 -31 700 l 25
EndSplineSet
Validated: 1
EndChar

StartChar: uni040B
Encoding: 1035 1035 107
Width: 450
Flags: W
HStem: 0 21G<81 156 306 381> 300 100<156 306> 600 100<-31 81 156 269>
VStem: 81 75<0 300 400 600> 306 75<0 300>
LayerCount: 2
Back
Fore
SplineSet
-31 600 m 29
 -31 700 l 25
 269 700 l 25
 269 600 l 25
 156 600 l 25
 156 400 l 25
 344 400 l 25
 344 300 l 25
 381 300 l 25
 381 0 l 25
 306 0 l 25
 306 300 l 25
 156 300 l 25
 156 0 l 25
 81 0 l 25
 81 600 l 25
 -31 600 l 29
EndSplineSet
Validated: 1
EndChar

StartChar: uni040C
Encoding: 1036 1036 108
Width: 450
Flags: W
HStem: 0 100<225 300> 100 100<150 188> 400 100<150 188> 500 100<225 300> 600 100<112 150>
VStem: 0 150<200 400> 0 75<0 200 400 600> 112 76<600 700> 150 75<700 800> 188 112<0 100 500 600>
LayerCount: 2
Back
Fore
SplineSet
0 0 m 29x83
 0 600 l 25
 75 600 l 25
 75 400 l 25
 112 400 l 25xab
 112 500 l 25x13
 188 500 l 25x2040
 188 600 l 25x29
 300 600 l 25
 300 500 l 25x1040
 225 500 l 25x1080
 225 400 l 25x2080
 150 400 l 25
 150 200 l 25x64
 225 200 l 25x6080
 225 100 l 25x8080
 300 100 l 25
 300 0 l 25
 188 0 l 25x8040
 188 100 l 25x4040
 112 100 l 25
 112 200 l 25
 75 200 l 25x43
 75 0 l 25
 0 0 l 29x83
112 600 m 25
 112 700 l 25x09
 150 700 l 25
 150 800 l 25
 225 800 l 25
 225 700 l 25x0880
 188 700 l 25
 188 600 l 25
 112 600 l 25
EndSplineSet
Validated: 5
EndChar

StartChar: uni040E
Encoding: 1038 1038 109
Width: 450
Flags: W
HStem: 0 100<81 269> 100 100<6 44> 300 100<81 269> 680 20G<6 81 269 344> 700 100<156 194>
VStem: 6 75<100 200 400 700> 156 38<700 800> 269 75<100 300 400 700>
CounterMasks: 1 07
LayerCount: 2
Back
Fore
SplineSet
156 700 m 29x2f
 156 800 l 25
 194 800 l 25
 194 700 l 25
 156 700 l 29x2f
6 700 m 25xb7
 81 700 l 25
 81 400 l 25
 269 400 l 25
 269 700 l 25
 344 700 l 25
 344 100 l 25
 306 100 l 25x77
 306 0 l 25
 44 0 l 25xa7
 44 100 l 25
 6 100 l 25
 6 200 l 25
 81 200 l 25x67
 81 100 l 25
 269 100 l 25
 269 300 l 25
 44 300 l 25
 44 400 l 25
 6 400 l 25
 6 700 l 25xb7
EndSplineSet
Validated: 1
EndChar

StartChar: uni040F
Encoding: 1039 1039 110
Width: 450
Flags: W
HStem: -200 21G<162 238> 0 100<88 162 238 312> 680 20G<12 88 312 388>
VStem: 12 76<100 700> 162 76<-200 0> 312 76<100 700>
CounterMasks: 1 1c
LayerCount: 2
Back
Fore
SplineSet
12 0 m 29
 12 700 l 25
 88 700 l 25
 88 100 l 25
 312 100 l 25
 312 700 l 25
 388 700 l 25
 388 0 l 25
 238 0 l 25
 238 -200 l 25
 162 -200 l 25
 162 0 l 25
 12 0 l 29
EndSplineSet
Validated: 1
EndChar

StartChar: uni0410
Encoding: 1040 1040 111
Width: 450
Flags: W
HStem: 0 21G<-38 38 262 338> 200 100<38 262> 600 100<112 188>
VStem: -38 76<0 200 300 400> 0 75<400 500> 38 74<500 600> 188 74<500 600> 225 75<400 500> 262 76<0 200 300 400>
LayerCount: 2
Back
Fore
SplineSet
38 400 m 29xf0
 38 300 l 25
 262 300 l 25
 262 400 l 25xf080
 225 400 l 25
 225 500 l 25xe1
 188 500 l 25
 188 600 l 25
 112 600 l 25
 112 500 l 25xe6
 75 500 l 25
 75 400 l 25xe8
 38 400 l 29xf0
38 0 m 25
 -38 0 l 25
 -38 400 l 25xf080
 0 400 l 25
 0 500 l 25xe8
 38 500 l 25
 38 600 l 25xe4
 75 600 l 25
 75 700 l 25
 224 700 l 25
 225 600 l 25xe9
 262 600 l 25
 262 500 l 25xe2
 300 500 l 25
 300 400 l 25xe1
 338 400 l 25
 338 0 l 25
 262 0 l 25
 262 200 l 25
 38 200 l 25
 38 0 l 25
EndSplineSet
Validated: 1
EndChar

StartChar: uni0411
Encoding: 1041 1041 112
Width: 450
Flags: W
HStem: 0 100<81 269> 300 100<81 269> 600 100<81 306>
VStem: 6 300<0 100 300 400 600 700> 6 75<100 300 400 600> 269 75<100 300>
CounterMasks: 1 e0
LayerCount: 2
Back
Fore
SplineSet
81 100 m 29xec
 269 100 l 25
 269 300 l 25
 81 300 l 25
 81 100 l 29xec
6 700 m 25xf0
 306 700 l 25
 306 600 l 25xf0
 81 600 l 25
 81 400 l 25xe8
 306 400 l 25
 306 300 l 25xf0
 344 300 l 25
 344 100 l 25xe4
 306 100 l 25
 306 0 l 25
 6 0 l 25
 6 700 l 25xf0
EndSplineSet
Validated: 1
EndChar

StartChar: uni0412
Encoding: 1042 1042 113
Width: 450
Flags: W
HStem: 0 100<81 269> 300 100<81 269> 600 100<81 269>
VStem: 6 300<0 100 300 400 600 700> 6 75<100 300 400 600> 269 75<100 300 400 600>
CounterMasks: 1 e0
LayerCount: 2
Back
Fore
SplineSet
81 600 m 29xec
 81 400 l 25
 269 400 l 25
 269 600 l 25
 81 600 l 29xec
81 300 m 25
 81 100 l 25
 269 100 l 25
 269 300 l 25
 81 300 l 25
6 0 m 25xf0
 6 700 l 25
 306 700 l 25
 306 600 l 25xf0
 344 600 l 25
 344 400 l 25xe4
 306 400 l 25
 306 300 l 25xf0
 344 300 l 25
 344 100 l 25xe4
 306 100 l 25
 306 0 l 25
 6 0 l 25xf0
EndSplineSet
Validated: 1
EndChar

StartChar: uni0413
Encoding: 1043 1043 114
Width: 450
Flags: W
HStem: 0 21G<6 81> 600 100<81 344>
VStem: 6 75<0 600>
LayerCount: 2
Back
Fore
SplineSet
6 700 m 29
 344 700 l 25
 344 600 l 25
 81 600 l 25
 81 0 l 25
 6 0 l 25
 6 700 l 29
EndSplineSet
Validated: 1
EndChar

StartChar: uni0414
Encoding: 1044 1044 115
Width: 450
Flags: W
HStem: 0 100<119 231> 600 100<156 231>
VStem: 6 75<-100 0> 44 75<100 500> 81 75<500 600> 119 187<600 700> 231 75<100 600> 269 75<-100 0>
LayerCount: 2
Back
Fore
SplineSet
156 600 m 29xca
 156 500 l 25xca
 119 500 l 25
 119 100 l 25xd0
 231 100 l 25
 231 600 l 25
 156 600 l 29xca
81 500 m 25
 81 600 l 25xc8
 119 600 l 25
 119 700 l 25
 306 700 l 25xc4
 306 100 l 25xc2
 344 100 l 25
 344 -100 l 25
 269 -100 l 25
 269 0 l 25
 81 0 l 25
 81 -100 l 25
 6 -100 l 25
 6 100 l 25xe1
 44 100 l 25
 44 500 l 25xd0
 81 500 l 25
EndSplineSet
Validated: 1
EndChar

StartChar: uni0415
Encoding: 1045 1045 116
Width: 450
Flags: W
HStem: 0 100<81 344> 300 100<81 269> 600 100<81 344>
VStem: 6 75<100 300 400 600>
CounterMasks: 1 e0
LayerCount: 2
Back
Fore
SplineSet
344 600 m 29
 81 600 l 29
 81 400 l 29
 269 400 l 29
 269 300 l 29
 81 300 l 29
 81 100 l 29
 344 100 l 29
 344 0 l 29
 6 0 l 29
 6 700 l 29
 344 700 l 29
 344 600 l 29
EndSplineSet
Validated: 1
EndChar

StartChar: uni0416
Encoding: 1046 1046 117
Width: 450
Flags: W
HStem: 0 21G<-38 38 112 188 262 338> 300 100<75 112 188 225> 680 20G<-38 37.1 112 188 262 338>
VStem: -38 76<0 200 500 700> 0 75<200 300 400 500> 112 76<0 300 400 700> 225 75<200 300 400 500> 262 76<0 200 500 700>
LayerCount: 2
Back
Fore
SplineSet
-38 700 m 29xf4
 37 700 l 25
 38 500 l 25xf4
 74 500 l 25
 75 400 l 25
 112 400 l 25
 112 700 l 25
 188 700 l 25
 188 400 l 25
 225 400 l 25
 225 500 l 25xee
 262 500 l 25
 262 700 l 25
 338 700 l 25
 338 500 l 25xe5
 300 500 l 25
 300 400 l 25xe6
 262 400 l 25
 262 300 l 25xe5
 300 300 l 25
 300 200 l 25xe6
 338 200 l 25
 338 0 l 25
 262 0 l 25
 262 200 l 25xe5
 225 200 l 25
 225 300 l 25
 188 300 l 25
 188 0 l 25
 112 0 l 25
 112 300 l 25
 75 300 l 25
 75 200 l 25xee
 38 200 l 25
 38 0 l 25
 -38 0 l 25
 -38 200 l 25xf4
 0 200 l 25
 0 300 l 25xec
 38 300 l 25
 38 400 l 25xf4
 0 400 l 25
 0 500 l 25xec
 -38 500 l 25
 -38 700 l 29xf4
EndSplineSet
Validated: 1
EndChar

StartChar: uni0417
Encoding: 1047 1047 118
Width: 450
Flags: W
HStem: 0 100<81 269> 100 100<6 44> 300 100<119 269> 500 100<6 44> 600 100<81 269>
VStem: 6 75<100 200 500 600> 44 262<0 100 600 700> 119 187<300 400> 269 75<100 300 400 600>
LayerCount: 2
Back
Fore
SplineSet
6 500 m 29x3480
 6 600 l 1x3480
 44 600 l 25x32
 44 700 l 25
 306 700 l 25
 306 600 l 25x2a
 344 600 l 25
 344 400 l 25x2880
 306 400 l 25
 306 300 l 25x29
 344 300 l 25
 344 100 l 25x6880
 306 100 l 25x6a
 306 0 l 25
 44 0 l 25xa2
 44 100 l 25x62
 6 100 l 25
 6 200 l 25
 80 200 l 25x64
 81 100 l 25
 269 100 l 25
 269 300 l 25xa480
 119 300 l 25
 119 400 l 25xa1
 269 400 l 25
 269 600 l 25
 81 600 l 25xac80
 81 500 l 1
 6 500 l 29x3480
EndSplineSet
Validated: 1
EndChar

StartChar: uni0418
Encoding: 1048 1048 119
Width: 450
Flags: W
HStem: 0 21G<-38 75 262 338> 680 20G<-38 38 225 338>
VStem: -38 150<100 200> -38 113<0 100> -38 76<200 700> 75 75<200 300> 112 76<300 400> 150 75<400 500> 188 150<500 600> 225 113<600 700> 262 76<0 500>
LayerCount: 2
Back
Fore
SplineSet
-38 700 m 29xc8
 38 700 l 29
 38 200 l 29
 75 200 l 29
 75 300 l 29xcc
 112 300 l 29
 112 400 l 29xc2
 150 400 l 29
 150 500 l 29xc1
 188 500 l 29
 188 600 l 29xc080
 225 600 l 29
 225 700 l 29
 338 700 l 29xc040
 338 0 l 29
 262 0 l 29
 262 500 l 29
 225 500 l 29
 225 400 l 29xc120
 188 400 l 29
 188 300 l 29xc2
 150 300 l 29
 150 200 l 29xc4
 112 200 l 29
 112 100 l 29xe0
 75 100 l 29
 75 0 l 29
 -38 0 l 29xd0
 -38 700 l 29xc8
EndSplineSet
Validated: 1
EndChar

StartChar: uni0419
Encoding: 1049 1049 120
Width: 450
Flags: W
HStem: 0 21G<-38 75 262 338> 680 20G<-38 38 225 338> 700 100<112 150>
VStem: -38 150<100 200> -38 113<0 100> -38 76<200 700> 75 75<200 300> 112 76<300 400> 112 38<700 800> 150 75<400 500> 188 150<500 600> 225 113<600 700> 262 76<0 500>
LayerCount: 2
Back
Fore
SplineSet
112 700 m 29xa080
 112 800 l 25
 150 800 l 25
 150 700 l 25
 112 700 l 29xa080
-38 700 m 25xc4
 38 700 l 25
 38 200 l 25
 75 200 l 25
 75 300 l 25xc6
 112 300 l 25
 112 400 l 25xc1
 150 400 l 25
 150 500 l 25xc040
 188 500 l 25
 188 600 l 25xc020
 225 600 l 25
 225 700 l 25
 338 700 l 25xc010
 338 0 l 25
 262 0 l 25
 262 500 l 25
 225 500 l 25
 225 400 l 25xc048
 188 400 l 25
 188 300 l 25xc1
 150 300 l 25
 150 200 l 25xc2
 112 200 l 25
 112 100 l 25xd0
 75 100 l 25
 75 0 l 25
 -38 0 l 25xc8
 -38 700 l 25xc4
EndSplineSet
Validated: 1
EndChar

StartChar: uni041A
Encoding: 1050 1050 121
Width: 450
Flags: W
HStem: 0 100<269 344> 200 100<156 194> 300 100<81 119> 400 100<156 194> 600 100<269 344>
VStem: 6 150<300 400> 6 75<0 300 400 700> 119 112<200 300 400 500> 194 75<100 200 500 600> 231 113<0 100 600 700>
LayerCount: 2
Back
Fore
SplineSet
6 700 m 29xab
 81 700 l 25
 81 400 l 25
 119 400 l 25xab
 119 500 l 25x9b
 194 500 l 25
 194 600 l 25x9880
 231 600 l 25
 231 700 l 25
 344 700 l 25
 344 600 l 25x9840
 269 600 l 25
 269 500 l 25x9880
 231 500 l 25
 231 400 l 25x99
 156 400 l 25
 156 300 l 25xdc
 231 300 l 25xa9
 231 200 l 25xc9
 269 200 l 25
 269 100 l 25xc880
 344 100 l 25
 344 0 l 25
 231 0 l 25
 231 100 l 25xc840
 194 100 l 25
 194 200 l 25xc880
 119 200 l 25xc9
 119 300 l 25
 81 300 l 25
 81 0 l 25
 6 0 l 25
 6 700 l 29xab
EndSplineSet
Validated: 1
EndChar

StartChar: uni041B
Encoding: 1051 1051 122
Width: 450
Flags: W
HStem: 0 100<6 44> 600 100<156 269>
VStem: 6 75<0 100> 44 75<100 200> 81 75<200 600> 269 75<0 600>
LayerCount: 2
Back
Fore
SplineSet
6 0 m 29xe4
 6 100 l 25xe4
 44 100 l 25
 44 200 l 25xd4
 81 200 l 25
 81 600 l 25xcc
 119 600 l 25
 119 700 l 25xd4
 344 700 l 25
 344 0 l 25
 269 0 l 25
 269 600 l 25
 156 600 l 25
 156 200 l 25xcc
 119 200 l 25
 119 100 l 25xd4
 81 100 l 25
 81 0 l 25
 6 0 l 29xe4
EndSplineSet
Validated: 1
EndChar

StartChar: uni041C
Encoding: 1052 1052 123
Width: 450
Flags: W
HStem: 0 21G<-38 38 262 338> 680 20G<-38 75 225 338>
VStem: -38 150<500 600> -38 113<600 700> -38 76<0 500> 75 150<400 500> 188 150<500 600> 225 113<600 700> 262 76<0 500>
LayerCount: 2
Back
Fore
SplineSet
38 0 m 29xcc
 -38 0 l 25xcc
 -38 700 l 25
 75 700 l 25
 75 600 l 25xd0
 112 600 l 25
 112 500 l 25
 188 500 l 25
 188 600 l 25xe2
 225 600 l 25
 225 700 l 25
 338 700 l 25xc1
 338 0 l 25
 262 0 l 25
 262 500 l 25
 225 500 l 25
 225 400 l 25xc480
 188 400 l 25
 188 300 l 25
 112 300 l 25
 112 400 l 25xe2
 75 400 l 25
 75 500 l 25
 38 500 l 25
 38 0 l 29xcc
EndSplineSet
Validated: 1
EndChar

StartChar: uni041D
Encoding: 1053 1053 124
Width: 450
Flags: W
HStem: 0 21G<6 81 269 344> 300 100<81 269> 680 20G<6 81 269 344>
VStem: 6 75<0 300 400 700> 269 75<0 300 400 700>
LayerCount: 2
Back
Fore
SplineSet
6 700 m 29
 81 700 l 25
 81 400 l 25
 269 400 l 25
 269 700 l 25
 344 700 l 25
 344 0 l 25
 269 0 l 25
 269 300 l 25
 81 300 l 25
 81 0 l 25
 6 0 l 25
 6 700 l 29
EndSplineSet
Validated: 1
EndChar

StartChar: uni041E
Encoding: 1054 1054 125
Width: 450
Flags: W
HStem: 0 100<75 225> 600 100<75 225>
VStem: -38 76<200 500> 0 75<100 200 500 600> 38 224<0 100 600 700> 225 75<100 200 500 600> 262 76<200 500>
LayerCount: 2
Back
Fore
SplineSet
225 100 m 29xd4
 225 200 l 25xd4
 262 200 l 25
 262 500 l 25xc2
 225 500 l 25
 225 600 l 25
 75 600 l 25
 75 500 l 25xd4
 38 500 l 25
 38 200 l 25xe0
 75 200 l 25
 75 100 l 25
 225 100 l 29xd4
262 0 m 25xc8
 38 0 l 25
 38 100 l 25xc8
 0 100 l 25
 0 200 l 25xd0
 -38 200 l 25
 -38 500 l 25xe0
 0 500 l 25
 0 600 l 25xd0
 38 600 l 25
 38 700 l 25
 262 700 l 25
 262 600 l 25xc8
 300 600 l 25
 300 500 l 25xc4
 338 500 l 25
 338 200 l 25xc2
 300 200 l 25
 300 100 l 25xc4
 262 100 l 25
 262 0 l 25xc8
EndSplineSet
Validated: 1
EndChar

StartChar: uni041F
Encoding: 1055 1055 126
Width: 450
Flags: W
HStem: 0 21G<6 81 269 344> 600 100<81 269>
VStem: 6 75<0 600> 269 75<0 600>
LayerCount: 2
Back
Fore
SplineSet
6 700 m 29
 344 700 l 25
 344 0 l 25
 269 0 l 25
 269 600 l 25
 81 600 l 25
 81 0 l 25
 6 0 l 25
 6 700 l 29
EndSplineSet
Validated: 1
EndChar

StartChar: uni0420
Encoding: 1056 1056 127
Width: 450
Flags: W
HStem: 0 21G<6 81> 300 100<81 269> 600 100<81 269>
VStem: 6 75<0 300 400 600> 269 75<400 600>
LayerCount: 2
Back
Fore
SplineSet
81 600 m 29
 81 400 l 25
 269 400 l 25
 269 600 l 25
 81 600 l 29
6 700 m 25
 306 700 l 25
 306 650 l 25
 344 650 l 25
 344 400 l 25
 306 400 l 25
 306 300 l 25
 81 300 l 25
 81 0 l 25
 6 0 l 25
 6 700 l 25
EndSplineSet
Validated: 1
EndChar

StartChar: uni0421
Encoding: 1057 1057 128
Width: 450
Flags: W
HStem: 0 100<119 269> 100 100<306 344> 500 100<306 344> 600 100<119 269>
VStem: 6 75<200 500> 44 75<100 200 500 600> 81 225<0 100 600 700> 269 75<100 200 500 600>
LayerCount: 2
Back
Fore
SplineSet
81 700 m 29x12
 306 700 l 25x12
 306 600 l 25x22
 344 600 l 25
 344 500 l 25
 269 500 l 25x21
 269 600 l 25
 119 600 l 25x15
 119 500 l 25x25
 81 500 l 25
 81 200 l 25x68
 119 200 l 25x64
 119 100 l 25
 269 100 l 25x85
 269 200 l 25
 344 200 l 25
 344 100 l 25x45
 306 100 l 25x42
 306 0 l 25
 81 0 l 25x82
 81 100 l 25x42
 44 100 l 25
 44 200 l 25x44
 6 200 l 25
 6 500 l 25x68
 44 500 l 25x64
 44 600 l 25x14
 81 600 l 25
 81 700 l 29x12
EndSplineSet
Validated: 1
EndChar

StartChar: uni0422
Encoding: 1058 1058 129
Width: 450
Flags: W
HStem: 0 21G<112 188> 600 100<-38 112 188 338>
VStem: 112 76<0 600>
LayerCount: 2
Back
Fore
SplineSet
-38 700 m 1
 338 700 l 5
 338 600 l 1
 188 600 l 1
 188 0 l 25
 112 0 l 25
 112 600 l 1
 -38 600 l 1
 -38 700 l 1
EndSplineSet
Validated: 1
EndChar

StartChar: uni0423
Encoding: 1059 1059 130
Width: 450
Flags: W
HStem: 0 100<81 269> 100 100<6 44> 300 100<81 269> 680 20G<6 81 269 344>
VStem: 6 75<100 200 400 700> 269 75<100 300 400 700>
LayerCount: 2
Back
Fore
SplineSet
6 700 m 29xbc
 81 700 l 25
 81 400 l 25
 269 400 l 25
 269 700 l 25
 344 700 l 25
 344 100 l 25
 306 100 l 25x7c
 306 0 l 25
 44 0 l 25xbc
 44 100 l 25
 6 100 l 25
 6 200 l 25
 81 200 l 25x7c
 81 100 l 25
 269 100 l 25
 269 300 l 25
 44 300 l 25
 44 400 l 25
 6 400 l 25
 6 700 l 29xbc
EndSplineSet
Validated: 1
EndChar

StartChar: uni0424
Encoding: 1060 1060 131
Width: 450
Flags: W
HStem: 0 21G<112 188> 100 100<38 112 188 262> 500 100<38 112 188 262> 680 20G<112 188>
VStem: -38 76<200 500> 0 300<100 200 500 600> 112 76<0 100 200 500 600 700> 262 76<200 500>
LayerCount: 2
Back
Fore
SplineSet
188 500 m 29xf3
 188 200 l 25
 262 200 l 25
 262 500 l 25
 188 500 l 29xf3
38 500 m 25xfa
 38 200 l 25
 112 200 l 25
 112 500 l 25
 38 500 l 25xfa
112 600 m 25
 112 700 l 1
 188 700 l 25
 188 600 l 25xf2
 300 600 l 25
 300 500 l 25xf4
 338 500 l 25
 338 200 l 25xf1
 300 200 l 25
 300 100 l 25xf4
 188 100 l 25
 188 0 l 25
 112 0 l 25
 112 100 l 25xf2
 0 100 l 25
 0 200 l 25xf4
 -38 200 l 25
 -38 500 l 25xf8
 0 500 l 25
 0 600 l 1xf4
 112 600 l 25
EndSplineSet
Validated: 1
EndChar

StartChar: uni0425
Encoding: 1061 1061 132
Width: 450
Flags: W
HStem: 0 100<0 38 262 300> 600 100<0 38 262 300>
VStem: 0 75<0 100 600 700> 38 74<100 200 500 600> 75 150<200 300 400 500> 188 74<100 200 500 600> 225 75<0 100 600 700>
LayerCount: 2
Back
Fore
SplineSet
0 700 m 29xe0
 75 700 l 25
 75 600 l 25xe0
 112 600 l 25
 112 500 l 25
 188 500 l 25
 188 600 l 25xd4
 225 600 l 25
 225 700 l 25
 300 700 l 25
 300 600 l 25xc2
 262 600 l 25
 262 500 l 25xc4
 225 500 l 25
 225 400 l 25xc8
 188 400 l 25
 188 300 l 25xc4
 225 300 l 25
 225 200 l 25xc8
 262 200 l 25
 262 100 l 25xc4
 300 100 l 25
 300 0 l 25
 225 0 l 25
 225 100 l 25xc2
 188 100 l 25
 188 200 l 25
 112 200 l 25
 112 100 l 25xd4
 75 100 l 25
 75 0 l 25
 0 0 l 25
 0 100 l 25xe0
 38 100 l 25
 38 200 l 25xd0
 75 200 l 25
 75 300 l 25xc8
 112 300 l 25
 112 400 l 25xd0
 75 400 l 25
 75 500 l 25xc8
 38 500 l 25
 38 600 l 25xd0
 0 600 l 25
 0 700 l 29xe0
EndSplineSet
Validated: 1
EndChar

StartChar: uni0426
Encoding: 1062 1062 133
Width: 450
Flags: W
HStem: 0 100<81 194> 680 20G<6 81 194 269>
VStem: 6 75<100 700> 194 75<100 700> 269 75<-100 0>
LayerCount: 2
Back
Fore
SplineSet
6 700 m 29xe8
 81 700 l 25
 81 100 l 25
 194 100 l 25
 194 700 l 25
 269 700 l 25
 269 100 l 25xf0
 344 100 l 25
 344 -100 l 25
 269 -100 l 25
 269 0 l 25
 6 0 l 25
 6 700 l 29xe8
EndSplineSet
Validated: 1
EndChar

StartChar: uni0427
Encoding: 1063 1063 134
Width: 450
Flags: W
HStem: 0 21G<269 344> 300 100<119 269> 680 20G<6 81 269 344>
VStem: 6 75<500 700> 44 75<400 500> 269 75<0 300 400 700>
LayerCount: 2
Back
Fore
SplineSet
6 700 m 29xf4
 81 700 l 25
 81 500 l 25xf4
 119 500 l 25
 119 400 l 25xec
 269 400 l 25
 269 700 l 25
 344 700 l 25
 344 0 l 25
 269 0 l 25
 269 300 l 25
 81 300 l 25
 81 400 l 25xf4
 44 400 l 25
 44 500 l 25xec
 6 500 l 25
 6 700 l 29xf4
EndSplineSet
Validated: 1
EndChar

StartChar: uni0428
Encoding: 1064 1064 135
Width: 450
Flags: W
HStem: 0 100<38 112 188 262> 680 20G<-38 38 112 188 262 338>
VStem: -38 76<100 700> 112 76<100 700> 262 76<100 700>
CounterMasks: 1 38
LayerCount: 2
Back
Fore
SplineSet
-38 700 m 29
 38 700 l 25
 38 100 l 25
 112 100 l 25
 112 700 l 25
 188 700 l 25
 188 100 l 25
 262 100 l 25
 262 700 l 25
 338 700 l 25
 338 0 l 25
 -38 0 l 25
 -38 700 l 29
EndSplineSet
Validated: 1
EndChar

StartChar: uni0429
Encoding: 1065 1065 136
Width: 450
Flags: W
HStem: 0 100<44 119 194 269> 680 20G<-31 44 119 194 269 344>
VStem: -31 75<100 700> 119 75<100 700> 269 75<100 700> 306 75<-100 0>
LayerCount: 2
Back
Fore
SplineSet
-31 700 m 29xf4
 44 700 l 25
 44 100 l 25
 119 100 l 25
 119 700 l 25
 194 700 l 25
 194 100 l 25
 269 100 l 25
 269 700 l 25
 344 700 l 25
 344 100 l 25xf8
 381 100 l 25
 381 -100 l 25
 306 -100 l 25
 306 0 l 25
 -31 0 l 25
 -31 700 l 29xf4
EndSplineSet
Validated: 1
EndChar

StartChar: uni042A
Encoding: 1066 1066 137
Width: 450
Flags: W
HStem: 0 100<112 262> 300 100<112 262> 600 100<-38 38>
VStem: -38 150<600 700> 38 262<0 100 300 400> 38 74<100 300 400 600> 262 76<100 300>
CounterMasks: 1 e0
LayerCount: 2
Back
Fore
SplineSet
112 300 m 29xe6
 112 100 l 25
 262 100 l 25
 262 300 l 25
 112 300 l 29xe6
-38 700 m 25xf0
 112 700 l 25xf0
 112 400 l 25xe4
 300 400 l 25
 300 300 l 25xe8
 338 300 l 25
 338 100 l 25xe2
 300 100 l 25
 300 0 l 25
 38 0 l 25xe8
 38 600 l 25xe4
 -38 600 l 25
 -38 700 l 25xf0
EndSplineSet
Validated: 1
EndChar

StartChar: uni042B
Encoding: 1067 1067 138
Width: 450
Flags: W
HStem: 0 100<38 150> 300 100<38 150> 680 20G<-38 38 262 338>
VStem: -38 226<0 100 300 400> -38 76<100 300 400 700> 150 75<100 300> 262 76<0 700>
LayerCount: 2
Back
Fore
SplineSet
150 300 m 29xee
 38 300 l 25
 38 100 l 25
 150 100 l 25
 150 300 l 29xee
262 700 m 25
 338 700 l 25
 338 0 l 25
 262 0 l 25
 262 700 l 25
-38 700 m 25
 38 700 l 25
 38 400 l 25xea
 188 400 l 25
 188 300 l 25xf2
 225 300 l 25
 225 100 l 25xe6
 188 100 l 25
 188 0 l 25
 -38 0 l 25xf2
 -38 700 l 25
EndSplineSet
Validated: 1
EndChar

StartChar: uni042C
Encoding: 1068 1068 139
Width: 450
Flags: W
HStem: 0 100<125 275> 300 100<125 275> 680 20G<50 124>
VStem: 50 262<0 100 300 400> 50 74<100 300 400 700> 275 75<101 300>
LayerCount: 2
Back
Fore
SplineSet
125 100 m 29xe4
 275 100 l 25
 275 300 l 25
 125 300 l 25
 125 100 l 29xe4
50 700 m 25xe8
 124 700 l 25
 124 400 l 25xe8
 312 400 l 25
 312 300 l 25xf0
 348 300 l 25
 350 101 l 25xe4
 312 100 l 25
 312 0 l 25
 50 0 l 25xf0
 50 700 l 25xe8
EndSplineSet
Validated: 1
EndChar

StartChar: uni042D
Encoding: 1069 1069 140
Width: 450
Flags: W
HStem: 0 100<81 231> 100 100<6 44> 300 100<119 269> 500 100<6 44> 600 100<81 231>
VStem: 6 75<100 200 500 600> 44 225<0 100 600 700> 231 75<100 200 500 600> 269 75<200 300 400 500>
LayerCount: 2
Back
Fore
SplineSet
6 500 m 29x35
 6 600 l 25x35
 44 600 l 25x32
 44 700 l 25
 269 700 l 25
 269 600 l 25x2a
 306 600 l 25x29
 306 500 l 25x31
 344 500 l 25
 344 200 l 25x7080
 306 200 l 25
 306 100 l 25x71
 269 100 l 25x72
 269 0 l 25
 44 0 l 25xa2
 44 100 l 25x62
 6 100 l 25
 6 200 l 25
 81 200 l 25x64
 81 100 l 25
 231 100 l 25xa5
 231 200 l 25x65
 269 200 l 25
 269 300 l 25
 119 300 l 25
 119 400 l 25
 269 400 l 25
 269 500 l 25x7080
 231 500 l 25x71
 231 600 l 25
 81 600 l 25x2d
 81 500 l 25
 6 500 l 29x35
EndSplineSet
Validated: 1
EndChar

StartChar: uni042E
Encoding: 1070 1070 141
Width: 450
Flags: W
HStem: 0 100<194 269> 300 100<81 119> 600 100<194 269>
VStem: 6 75<0 300 400 700> 119 75<100 300 400 600> 156 150<0 100 600 700> 269 75<100 600>
CounterMasks: 1 e0
LayerCount: 2
Back
Fore
SplineSet
194 600 m 29xfa
 194 100 l 25
 269 100 l 25
 269 600 l 25
 194 600 l 29xfa
6 700 m 25
 81 700 l 25
 81 400 l 25
 119 400 l 25
 119 600 l 25xf8
 156 600 l 25
 156 700 l 25
 306 700 l 25
 306 600 l 25xf4
 344 600 l 25
 344 100 l 25xf2
 306 100 l 25
 306 0 l 25
 156 0 l 25
 156 100 l 25xf4
 119 100 l 25
 119 300 l 25
 81 300 l 25
 81 0 l 25
 6 0 l 25
 6 700 l 25
EndSplineSet
Validated: 1
EndChar

StartChar: uni042F
Encoding: 1071 1071 142
Width: 450
Flags: W
HStem: 0 100<6 81> 300 100<81 156> 600 100<81 269>
VStem: 6 150<0 100> 6 75<400 600> 44 300<300 400 600 700> 81 113<100 200> 156 188<200 300> 269 75<0 200 400 600>
CounterMasks: 1 e0
LayerCount: 2
Back
Fore
SplineSet
81 600 m 29xe880
 81 400 l 25
 269 400 l 25
 269 600 l 25
 81 600 l 29xe880
44 700 m 25xe4
 344 700 l 25xe4
 344 0 l 25
 269 0 l 25
 269 200 l 25
 194 200 l 25
 194 100 l 25xe280
 156 100 l 25
 156 0 l 25
 6 0 l 25
 6 100 l 25xf0
 81 100 l 25
 81 200 l 25xe2
 156 200 l 25
 156 300 l 25xe1
 44 300 l 25
 44 400 l 25xe4
 6 400 l 25
 6 600 l 25xe8
 44 600 l 25
 44 700 l 25xe4
EndSplineSet
Validated: 1
EndChar

StartChar: uni0430
Encoding: 1072 1072 143
Width: 450
Flags: W
HStem: 0 100<38 225 300 337> 100 100<-38 0> 200 100<38 225> 400 100<0 225>
VStem: -38 76<100 200> 225 75<100 200 300 400>
LayerCount: 2
Back
Fore
SplineSet
38 200 m 29xbc
 38 100 l 25
 225 100 l 25
 225 200 l 25
 38 200 l 29xbc
0 500 m 25
 262 500 l 25
 262 400 l 25
 300 400 l 25
 300 100 l 25
 337 100 l 25
 338 0 l 25
 0 0 l 25xbc
 0 100 l 25
 -38 100 l 25
 -38 200 l 25
 0 200 l 25x5c
 0 300 l 25
 225 300 l 25
 225 400 l 25
 0 400 l 25
 0 500 l 25
EndSplineSet
Validated: 1
EndChar

StartChar: uni0431
Encoding: 1073 1073 144
Width: 450
Flags: W
HStem: 0 100<81 269> 300 200<156 269> 300 100<81 156> 600 100<44 81 156 344>
VStem: 6 75<100 300> 44 262<0 100 300 400> 81 75<500 600> 156 113<400 500> 269 75<100 300>
LayerCount: 2
Back
Fore
SplineSet
81 300 m 29xb880
 81 100 l 25
 269 100 l 25
 269 300 l 25xd880
 81 300 l 29xb880
44 700 m 25xd4
 344 700 l 25
 344 600 l 25
 156 600 l 25
 156 500 l 25xd280
 269 500 l 25xd1
 269 400 l 25xb1
 306 400 l 25
 306 300 l 25xb4
 344 300 l 25
 344 100 l 25xb080
 306 100 l 25
 306 0 l 25
 44 0 l 25
 44 100 l 25xb4
 6 100 l 25
 6 300 l 25xb8
 44 300 l 25
 44 400 l 25xb4
 156 400 l 25xb1
 156 500 l 25
 81 500 l 25
 81 600 l 25xd2
 44 600 l 25
 44 700 l 25xd4
EndSplineSet
Validated: 5
EndChar

StartChar: uni0432
Encoding: 1074 1074 145
Width: 450
Flags: W
HStem: 0 100<81 269> 100 100<306 344> 200 100<81 269> 300 100<306 344> 400 100<81 269>
VStem: 6 300<0 100 200 300 400 500> 6 75<100 200 300 400> 269 75<100 200 300 400>
LayerCount: 2
Back
Fore
SplineSet
81 200 m 29xa3
 81 100 l 25
 269 100 l 25
 269 200 l 25
 81 200 l 29xa3
81 400 m 25x2b
 81 300 l 25
 269 300 l 25
 269 400 l 25
 81 400 l 25x2b
6 500 m 25x8c
 306 500 l 25x8c
 306 400 l 25x14
 344 400 l 25
 344 300 l 25x11
 306 300 l 25
 306 200 l 25x54
 344 200 l 25
 344 100 l 25x51
 306 100 l 25x54
 306 0 l 25
 6 0 l 25
 6 500 l 25x8c
EndSplineSet
Validated: 1
EndChar

StartChar: uni0433
Encoding: 1075 1075 146
Width: 450
Flags: W
HStem: 0 21G<6 81> 400 100<81 344>
VStem: 6 75<0 400>
LayerCount: 2
Back
Fore
SplineSet
6 0 m 29
 6 500 l 25
 344 500 l 25
 344 401 l 25
 81 400 l 25
 81 0 l 25
 6 0 l 29
EndSplineSet
Validated: 1
EndChar

StartChar: uni0434
Encoding: 1076 1076 147
Width: 450
Flags: W
HStem: -100 200<-38 37 262 338> -1 101<37 38 112 188> 400 100<112 188>
VStem: -38 76<-100 -1> 38 74<100 400> 75 187<400 500> 188 74<100 400> 262 76<-100 0>
LayerCount: 2
Back
Fore
SplineSet
112 400 m 29x6a
 112 100 l 25
 188 100 l 25
 188 400 l 25
 112 400 l 29x6a
75 500 m 25x64
 262 500 l 25x64
 262 100 l 25xa2
 338 100 l 25
 338 -100 l 25
 262 -100 l 25xa1
 262 0 l 25
 37 -1 l 25x61
 38 -100 l 25
 -38 -100 l 25
 -38 100 l 25xb1
 38 100 l 25
 38 400 l 25x68
 75 400 l 25
 75 500 l 25x64
EndSplineSet
Validated: 1
EndChar

StartChar: uni0435
Encoding: 1077 1077 148
Width: 450
Flags: W
HStem: 0 100<81 306> 200 100<81 269> 400 100<81 269>
VStem: 6 75<100 200 300 400> 44 262<0 100 400 500> 269 75<300 400>
CounterMasks: 1 e0
LayerCount: 2
Back
Fore
SplineSet
81 400 m 1xf4
 81 300 l 1
 269 300 l 1
 269 400 l 1
 81 400 l 1xf4
44 400 m 1xe8
 44 500 l 1
 306 500 l 1
 306 400 l 25xe8
 344 400 l 25
 344 200 l 1
 81 200 l 1
 81 100 l 1xf4
 306 100 l 1
 306 0 l 1
 44 0 l 1
 44 100 l 1xe8
 6 100 l 1
 6 400 l 5xf0
 44 400 l 1xe8
EndSplineSet
Validated: 1
EndChar

StartChar: uni0436
Encoding: 1078 1078 149
Width: 450
Flags: W
HStem: 0 100<-38 0 300 338> 200 100<75 112 188 225> 400 100<-38 0 300 338>
VStem: -38 76<0 100 400 500> 0 75<100 200 300 400> 112 76<0 200 300 500> 225 75<100 200 300 400> 262 76<0 100 400 500>
CounterMasks: 1 e0
LayerCount: 2
Back
Fore
SplineSet
-38 500 m 29xf4
 38 500 l 25
 38 400 l 25xf4
 75 400 l 25
 75 300 l 25
 112 300 l 25
 112 500 l 25
 188 500 l 25
 188 300 l 25
 225 300 l 25
 225 400 l 25xee
 262 400 l 25
 262 500 l 25
 338 500 l 25
 338 400 l 25xe5
 300 400 l 25
 300 300 l 25xe6
 262 300 l 25
 262 200 l 25xe5
 300 200 l 25
 300 100 l 25xe6
 338 100 l 25
 338 0 l 25
 262 0 l 25
 262 100 l 25xe5
 225 100 l 25
 225 200 l 25
 188 200 l 25
 188 0 l 25
 112 0 l 25
 112 200 l 25
 75 200 l 25
 75 100 l 25xee
 38 100 l 25
 38 0 l 25
 -38 0 l 25
 -38 100 l 25xf4
 0 100 l 25
 0 200 l 25xec
 38 200 l 25
 38 300 l 25xf4
 0 300 l 25
 0 400 l 25xec
 -38 400 l 25
 -38 500 l 29xf4
EndSplineSet
Validated: 1
EndChar

StartChar: uni0437
Encoding: 1079 1079 150
Width: 450
Flags: W
HStem: 0 100<81 269> 100 100<6 44 306 344> 300 100<6 44 306 344> 400 100<81 269>
VStem: 6 75<100 200 300 400> 44 262<0 100 400 500> 156 150<200 300> 269 75<100 200 300 400>
LayerCount: 2
Back
Fore
SplineSet
6 400 m 29x29
 44 400 l 1x24
 44 500 l 25
 306 500 l 25x14
 306 400 l 25x24
 344 400 l 25
 344 300 l 25x21
 306 300 l 25
 306 200 l 25x62
 344 200 l 25
 344 100 l 25x61
 306 100 l 25x64
 306 0 l 25
 44 0 l 25x84
 44 100 l 25x44
 6 100 l 25
 6 200 l 25
 81 200 l 25x48
 81 100 l 25
 269 100 l 25x89
 269 200 l 25x49
 156 200 l 25
 156 300 l 25x62
 269 300 l 25x61
 269 400 l 25
 81 400 l 25x19
 81 300 l 25
 6 300 l 1
 6 400 l 29x29
EndSplineSet
Validated: 1
EndChar

StartChar: uni0438
Encoding: 1080 1080 151
Width: 450
Flags: W
HStem: 0 100<81 119> 200 100<156 194> 400 100<231 269>
VStem: 6 113<0 100> 6 75<100 500> 119 37<100 200> 156 38<200 300> 194 37<300 400> 231 113<400 500> 269 75<0 400>
CounterMasks: 1 e0
LayerCount: 2
Back
Fore
SplineSet
6 0 m 29xf0
 6 500 l 5
 81 500 l 29
 81 100 l 29xe8
 119 100 l 29xf0
 119 200 l 29
 156 200 l 29xe4
 156 300 l 29
 194 300 l 29xe2
 194 400 l 29
 231 400 l 29xe1
 231 500 l 29
 344 500 l 29xe080
 344 0 l 29
 269 0 l 29
 269 400 l 29
 231 400 l 29
 231 300 l 29xe140
 194 300 l 29
 194 200 l 29xe2
 156 200 l 29
 156 100 l 29xe4
 119 100 l 29
 119 0 l 5
 6 0 l 29xf0
EndSplineSet
Validated: 5
EndChar

StartChar: uni0439
Encoding: 1081 1081 152
Width: 450
Flags: W
HStem: 0 100<81 119> 200 100<156 194> 400 100<231 269> 600 100<119 231> 700 100<44 81 269 306>
VStem: 6 75<100 500> 44 75<700 800> 119 37<100 200> 156 38<200 300> 194 37<300 400> 231 75<700 800> 269 75<0 400>
LayerCount: 2
Back
Fore
SplineSet
44 800 m 29xea
 119 800 l 29xea
 119 700 l 29
 231 700 l 29xf220
 231 800 l 29
 306 800 l 29
 306 700 l 29xea20
 269 700 l 29xe810
 269 600 l 29
 81 600 l 29xf410
 81 700 l 29xec10
 44 700 l 29
 44 800 l 29xea
6 0 m 25xe5
 6 500 l 1
 81 500 l 25
 81 100 l 25
 119 100 l 25
 119 200 l 25
 156 200 l 25xe5
 156 300 l 25
 194 300 l 25xe080
 194 400 l 25
 231 400 l 25xe040
 231 500 l 25xe020
 344 500 l 25
 344 0 l 25
 269 0 l 25
 269 400 l 25
 231 400 l 25
 231 300 l 25xe050
 194 300 l 25
 194 200 l 25xe080
 156 200 l 25
 156 100 l 25
 119 100 l 25
 119 0 l 1
 6 0 l 25xe5
EndSplineSet
Validated: 5
EndChar

StartChar: uni043A
Encoding: 1082 1082 153
Width: 450
Flags: W
HStem: 0 100<269 344> 200 100<81 194> 400 100<269 344>
VStem: 6 75<0 200 300 500> 194 75<100 200 300 400> 231 113<0 100 400 500>
CounterMasks: 1 e0
LayerCount: 2
Back
Fore
SplineSet
6 500 m 29xf8
 81 500 l 25
 81 300 l 25
 194 300 l 25
 194 400 l 25xf8
 231 400 l 25
 231 500 l 25
 344 500 l 25
 344 400 l 25xf4
 269 400 l 25
 269 300 l 25xf8
 231 300 l 25
 231 200 l 25xf4
 269 200 l 25
 269 100 l 25xf8
 344 100 l 25
 344 0 l 25
 231 0 l 25
 231 100 l 25xf4
 194 100 l 25
 194 200 l 25
 81 200 l 25
 81 0 l 25
 6 0 l 25
 6 500 l 29xf8
EndSplineSet
Validated: 1
EndChar

StartChar: uni043B
Encoding: 1083 1083 154
Width: 450
Flags: W
HStem: 0 100<6 44> 400 100<119 269>
VStem: 6 75<0 100> 44 75<100 400> 269 75<0 400>
LayerCount: 2
Back
Fore
SplineSet
6 100 m 29xe8
 44 100 l 25
 44 400 l 25xd8
 81 400 l 25
 81 500 l 25xe8
 344 500 l 25
 344 0 l 25
 269 0 l 25
 269 400 l 25
 119 400 l 25
 119 100 l 25xd8
 81 100 l 25
 81 0 l 25
 6 0 l 25
 6 100 l 29xe8
EndSplineSet
Validated: 1
EndChar

StartChar: uni043C
Encoding: 1084 1084 155
Width: 450
Flags: W
HStem: 0 21G<6 81 269 344> 480 20G<6 119 231 344>
VStem: 6 150<300 400> 6 113<400 500> 6 75<0 300> 119 112<200 300> 194 150<300 400> 231 113<400 500> 269 75<0 300>
LayerCount: 2
Back
Fore
SplineSet
6 0 m 29xcc
 6 500 l 25
 119 500 l 25
 119 400 l 25xd0
 156 400 l 25
 156 300 l 25
 194 300 l 25
 194 400 l 25xe2
 231 400 l 25
 231 500 l 25
 344 500 l 25xc1
 344 0 l 25
 269 0 l 25
 269 300 l 25
 231 300 l 25
 231 200 l 25xc480
 194 200 l 25
 194 100 l 25
 156 100 l 25
 156 200 l 25xe2
 119 200 l 25
 119 300 l 25
 81 300 l 25
 81 0 l 25
 6 0 l 29xcc
EndSplineSet
Validated: 1
EndChar

StartChar: uni043D
Encoding: 1085 1085 156
Width: 450
Flags: W
HStem: 0 21G<0 75 225 300> 200 100<75 225> 480 20G<0 75 225 300>
VStem: 0 75<0 200 300 500> 225 75<0 200 300 500>
LayerCount: 2
Back
Fore
SplineSet
0 500 m 25
 75 500 l 25
 75 300 l 1
 225 300 l 1
 225 500 l 5
 300 500 l 1
 300 0 l 1
 225 0 l 1
 225 200 l 1
 75 200 l 1
 75 0 l 25
 0 0 l 25
 0 500 l 25
EndSplineSet
Validated: 1
EndChar

StartChar: uni043E
Encoding: 1086 1086 157
Width: 450
Flags: W
HStem: 0 100<81 269> 400 100<81 269>
VStem: 6 75<100 400> 44 262<0 100 400 500> 269 75<100 400>
LayerCount: 2
Back
Fore
SplineSet
81 400 m 29xe8
 81 100 l 25
 269 100 l 25
 269 400 l 25
 81 400 l 29xe8
44 500 m 25xd0
 306 500 l 25
 306 400 l 25xd0
 344 400 l 25
 344 100 l 25xc8
 306 100 l 25
 306 0 l 25
 44 0 l 25
 44 100 l 25xd0
 6 100 l 25
 6 400 l 25xe0
 44 400 l 25
 44 500 l 25xd0
EndSplineSet
Validated: 1
EndChar

StartChar: uni043F
Encoding: 1087 1087 158
Width: 450
Flags: W
HStem: 0 21G<6 81 269 344> 400 100<81 269>
VStem: 6 75<0 400> 269 75<0 400>
LayerCount: 2
Back
Fore
SplineSet
6 0 m 29
 6 500 l 25
 344 500 l 25
 344 0 l 25
 269 0 l 25
 269 400 l 25
 81 400 l 25
 81 0 l 25
 6 0 l 29
EndSplineSet
Validated: 1
EndChar

StartChar: uni0440
Encoding: 1088 1088 159
Width: 450
Flags: W
HStem: -200 21G<6 81> 0 100<119 269> 100 100<81 119> 300 100<81 119> 400 100<119 269>
VStem: 6 113<100 200 300 400> 6 75<-200 100 200 300 400 500> 119 187<0 100 400 500> 269 75<100 400>
LayerCount: 2
Back
Fore
SplineSet
119 300 m 29x9480
 81 300 l 25
 81 200 l 25xb2
 119 200 l 25xb4
 119 100 l 25
 269 100 l 25
 269 400 l 25xcc80
 119 400 l 25
 119 300 l 29x9480
6 500 m 25xaa
 81 500 l 25xaa
 81 400 l 25x92
 119 400 l 25x94
 119 500 l 25
 306 500 l 25
 306 400 l 25x89
 344 400 l 25
 344 100 l 25xa880
 306 100 l 25xa9
 306 0 l 25
 119 0 l 25xc1
 119 100 l 25xc4
 81 100 l 25
 81 -200 l 25
 6 -200 l 25
 6 500 l 25xaa
EndSplineSet
Validated: 5
EndChar

StartChar: uni0441
Encoding: 1089 1089 160
Width: 450
Flags: W
HStem: 0 100<119 344> 200 100<6 44> 400 100<119 344>
VStem: 6 75<200 300> 44 75<100 200 300 400> 81 263<0 100 400 500>
CounterMasks: 1 e0
LayerCount: 2
Back
Fore
SplineSet
81 500 m 29xe4
 344 500 l 25
 344 400 l 25xe4
 119 400 l 25
 119 300 l 25xe8
 81 300 l 25
 81 200 l 25xf0
 119 200 l 25
 119 100 l 25xe8
 344 100 l 25
 344 0 l 25
 81 0 l 25
 81 100 l 25xe4
 44 100 l 25
 44 200 l 25xe8
 6 200 l 25
 6 300 l 25xf0
 44 300 l 25
 44 400 l 25xe8
 81 400 l 25
 81 500 l 29xe4
EndSplineSet
Validated: 1
EndChar

StartChar: uni0442
Encoding: 1090 1090 161
Width: 450
Flags: W
HStem: 0 21G<112 188> 400 100<-38 112 188 338>
VStem: 112 76<0 400>
LayerCount: 2
Back
Fore
SplineSet
-38 500 m 1
 338 500 l 1
 338 400 l 5
 188 400 l 1
 188 0 l 25
 112 0 l 25
 112 400 l 1
 -38 400 l 1
 -38 500 l 1
EndSplineSet
Validated: 1
EndChar

StartChar: uni0443
Encoding: 1091 1091 162
Width: 450
Flags: W
HStem: -200 100<6 81> 400 100<6 44 306 344>
VStem: 6 75<400 500> 44 75<300 400> 81 75<-100 0 200 300> 119 112<100 200> 119 75<0 100> 194 75<200 300> 231 75<300 400> 269 75<400 500>
LayerCount: 2
Back
Fore
SplineSet
6 500 m 29xe0
 81 500 l 25
 81 400 l 25xe0
 119 400 l 25
 119 300 l 25xd0
 156 300 l 25
 156 200 l 25
 194 200 l 25
 194 300 l 25xc9
 231 300 l 25
 231 400 l 25xc080
 269 400 l 25
 269 500 l 25
 344 500 l 25
 344 400 l 25xc040
 306 400 l 25
 306 300 l 25xc080
 269 300 l 25
 269 200 l 25xc1
 231 200 l 25
 231 100 l 25xc4
 194 100 l 25
 194 0 l 25xc2
 156 0 l 25
 156 -100 l 25xc8
 119 -100 l 25
 119 -200 l 25
 6 -200 l 25
 6 -100 l 25xe2
 81 -100 l 25
 81 0 l 25xc8
 119 0 l 25xc2
 119 200 l 25xc4
 81 200 l 25
 81 300 l 25xc8
 44 300 l 25
 44 400 l 25xd0
 6 400 l 25
 6 500 l 29xe0
EndSplineSet
Validated: 1
EndChar

StartChar: uni0444
Encoding: 1092 1092 163
Width: 450
Flags: W
HStem: -200 21G<112 188> 0 100<38 112 188 262> 400 100<38 112 188 262> 680 20G<112 188>
VStem: -38 76<100 400> 0 300<0 100 400 500> 112 76<-200 0 100 400 500 700> 262 76<100 400>
LayerCount: 2
Back
Fore
SplineSet
112 400 m 29xfa
 38 400 l 25
 38 100 l 25
 112 100 l 25
 112 400 l 29xfa
188 400 m 25
 188 100 l 25
 262 100 l 25
 262 400 l 25xf3
 188 400 l 25
112 700 m 25
 188 700 l 25
 188 500 l 25xf2
 300 500 l 25
 300 400 l 25xf4
 338 400 l 25
 338 100 l 25xf1
 300 100 l 25
 300 0 l 25xf4
 188 0 l 25
 188 -200 l 25
 112 -200 l 25
 112 0 l 25xf2
 0 0 l 25
 0 100 l 25xf4
 -38 100 l 25
 -38 400 l 25xf8
 0 400 l 25
 0 500 l 25xf4
 112 500 l 25
 112 700 l 25
EndSplineSet
Validated: 1
EndChar

StartChar: uni0445
Encoding: 1093 1093 164
Width: 450
Flags: W
HStem: 0 100<-38 38 262 338> 200 100<112 188> 400 100<-38 38 262 338>
VStem: -38 113<0 100 400 500> 38 74<100 200 300 400> 188 74<100 200 300 400> 225 113<0 100 400 500>
CounterMasks: 1 e0
LayerCount: 2
Back
Fore
SplineSet
-38 500 m 29xf0
 75 500 l 25
 75 400 l 25xf0
 112 400 l 25
 112 300 l 25
 188 300 l 25
 188 400 l 25xec
 225 400 l 25
 225 500 l 25
 338 500 l 25
 338 400 l 25xe2
 262 400 l 25
 262 300 l 25xe4
 225 300 l 25
 225 200 l 25xe2
 262 200 l 25
 262 100 l 25xe4
 338 100 l 25
 338 0 l 25
 225 0 l 25
 225 100 l 25xe2
 188 100 l 25
 188 200 l 25
 112 200 l 25
 112 100 l 25xec
 75 100 l 25
 75 0 l 25
 -38 0 l 25
 -38 100 l 25xf0
 38 100 l 25
 38 200 l 25xe8
 75 200 l 25
 75 300 l 25xf0
 38 300 l 25
 38 400 l 25xe8
 -38 400 l 25
 -38 500 l 29xf0
EndSplineSet
Validated: 1
EndChar

StartChar: uni0446
Encoding: 1094 1094 165
Width: 450
Flags: W
HStem: 0 100<81 194> 480 20G<6 81 194 269>
VStem: 6 75<100 500> 194 75<100 500> 269 75<-100 0>
LayerCount: 2
Back
Fore
SplineSet
6 500 m 29xe8
 81 500 l 25
 81 100 l 25
 194 100 l 25
 194 500 l 25
 269 500 l 25
 269 100 l 25xf0
 344 100 l 25
 344 -100 l 25
 269 -100 l 25
 269 0 l 25
 6 0 l 25
 6 500 l 29xe8
EndSplineSet
Validated: 1
EndChar

StartChar: uni0447
Encoding: 1095 1095 166
Width: 450
Flags: W
HStem: 0 21G<269 344> 200 100<81 269> 480 20G<6 81 269 344>
VStem: 6 75<300 500> 269 75<0 200 300 500>
LayerCount: 2
Back
Fore
SplineSet
6 500 m 29
 81 500 l 25
 81 300 l 25
 269 300 l 25
 269 500 l 25
 344 500 l 25
 344 0 l 25
 269 0 l 25
 269 200 l 25
 44 200 l 25
 44 300 l 25
 6 300 l 25
 6 500 l 29
EndSplineSet
Validated: 1
EndChar

StartChar: uni0448
Encoding: 1096 1096 167
Width: 450
Flags: W
HStem: 0 100<38 112 188 262> 480 20G<-38 38 112 188 262 338>
VStem: -38 76<100 500> 112 76<100 500> 262 76<100 500>
CounterMasks: 1 38
LayerCount: 2
Back
Fore
SplineSet
-38 500 m 29
 38 500 l 25
 38 100 l 25
 112 100 l 25
 112 500 l 25
 188 500 l 25
 188 100 l 25
 262 100 l 25
 262 500 l 25
 338 500 l 25
 338 0 l 25
 -38 0 l 25
 -38 500 l 29
EndSplineSet
Validated: 1
EndChar

StartChar: uni0449
Encoding: 1097 1097 168
Width: 450
Flags: W
HStem: 0 100<44 119 194 269> 480 20G<-31 44 119 194 269 344>
VStem: -31 75<100 500> 119 75<100 500> 269 75<100 500> 306 75<-100 0>
LayerCount: 2
Back
Fore
SplineSet
-31 500 m 29xf4
 44 500 l 25
 44 100 l 25
 119 100 l 25
 119 500 l 25
 194 500 l 25
 194 100 l 25
 269 100 l 25
 269 500 l 25
 344 500 l 25
 344 100 l 25xf8
 381 100 l 25
 381 -100 l 25
 306 -100 l 25
 306 0 l 25
 -31 0 l 25
 -31 500 l 29xf4
EndSplineSet
Validated: 1
EndChar

StartChar: uni044A
Encoding: 1098 1098 169
Width: 450
Flags: W
HStem: 0 100<112 262> 100 100<300 338> 200 100<112 262> 400 100<-38 38>
VStem: -38 150<400 500> 38 262<0 100 200 300> 38 74<100 200 300 400> 262 76<100 200>
LayerCount: 2
Back
Fore
SplineSet
112 200 m 29xb3
 112 100 l 25
 262 100 l 25
 262 200 l 25
 112 200 l 29xb3
-38 500 m 25x98
 112 500 l 25x98
 112 300 l 25xb2
 300 300 l 25xb4
 300 200 l 25x54
 338 200 l 25
 338 100 l 25x51
 300 100 l 25x54
 300 0 l 25
 38 0 l 25x94
 38 400 l 25x92
 -38 400 l 25
 -38 500 l 25x98
EndSplineSet
Validated: 1
EndChar

StartChar: uni044B
Encoding: 1099 1099 170
Width: 450
Flags: W
HStem: 0 100<38 150> 200 100<38 150> 480 20G<-38 38 262 338>
VStem: -38 226<0 100 200 300> -38 76<100 200 300 500> 150 75<100 200> 262 76<0 500>
LayerCount: 2
Back
Fore
SplineSet
262 0 m 29xe2
 262 500 l 25
 338 500 l 25
 338 0 l 25
 262 0 l 29xe2
38 200 m 25xee
 38 100 l 25
 150 100 l 25
 150 200 l 25
 38 200 l 25xee
-38 500 m 25
 38 500 l 25
 38 300 l 25xea
 188 300 l 25
 188 200 l 25xf2
 225 200 l 25
 225 100 l 25xe6
 188 100 l 25
 188 0 l 25
 -38 0 l 25xf2
 -38 500 l 25
EndSplineSet
Validated: 1
EndChar

StartChar: uni044C
Encoding: 1100 1100 171
Width: 450
Flags: W
HStem: 0 100<81 269> 100 100<306 344> 200 100<81 269> 480 20G<6 81>
VStem: 6 300<0 100 200 300> 6 75<100 200 300 500> 269 75<100 200>
LayerCount: 2
Back
Fore
SplineSet
81 100 m 1xb6
 269 100 l 1
 269 200 l 1
 81 200 l 1
 81 100 l 1xb6
6 500 m 1
 81 500 l 1
 81 300 l 5xb4
 306 300 l 1xb8
 306 200 l 25x58
 344 200 l 25
 344 100 l 25x52
 306 100 l 25x58
 306 0 l 1
 6 0 l 1x98
 6 500 l 1
EndSplineSet
Validated: 1
EndChar

StartChar: uni044D
Encoding: 1101 1101 172
Width: 450
Flags: W
HStem: 0 100<81 269> 100 100<6 44> 200 100<156 269> 300 100<6 44> 400 100<81 269>
VStem: 6 75<100 200 300 400> 44 262<0 100 400 500> 156 188<200 300> 269 75<100 200 300 400>
LayerCount: 2
Back
Fore
SplineSet
6 300 m 29x1480
 6 400 l 25x1480
 44 400 l 25x12
 44 500 l 25
 306 500 l 25
 306 400 l 25x0a
 344 400 l 25
 344 100 l 25x4880
 306 100 l 25x4a
 306 0 l 25
 44 0 l 25x82
 44 100 l 25x42
 6 100 l 25
 6 200 l 25x44
 81 200 l 25
 81 100 l 25
 269 100 l 25
 269 200 l 25xa480
 156 200 l 25
 156 300 l 25xa1
 269 300 l 25
 269 400 l 25
 81 400 l 25xac80
 81 300 l 25
 6 300 l 29x1480
EndSplineSet
Validated: 1
EndChar

StartChar: uni044E
Encoding: 1102 1102 173
Width: 450
Flags: W
HStem: 0 100<194 269> 200 100<81 119> 400 100<194 269>
VStem: 6 75<0 200 300 500> 119 75<100 200 300 400> 156 150<0 100 400 500> 269 75<100 400>
CounterMasks: 1 e0
LayerCount: 2
Back
Fore
SplineSet
194 100 m 29xfa
 269 100 l 25
 269 400 l 25
 194 400 l 25
 194 100 l 29xfa
6 0 m 25
 6 500 l 25
 81 500 l 25
 81 300 l 25
 119 300 l 25
 119 400 l 25xf8
 156 400 l 25
 156 500 l 25
 306 500 l 25
 306 400 l 25xf4
 344 400 l 25
 344 100 l 25xf2
 306 100 l 25
 306 0 l 25
 156 0 l 25
 156 100 l 25xf4
 119 100 l 25
 119 200 l 25
 81 200 l 25
 81 0 l 25
 6 0 l 25
EndSplineSet
Validated: 1
EndChar

StartChar: uni044F
Encoding: 1103 1103 174
Width: 450
Flags: W
HStem: 0 100<-6 69> 200 100<31 69 181 219> 300 100<-44 -6> 400 100<31 219>
VStem: -44 75<300 400> -6 112<0 100> 69 112<100 200> 219 75<0 200 300 400>
LayerCount: 2
Back
Fore
SplineSet
31 400 m 29xd9
 31 300 l 25
 219 300 l 25
 219 400 l 25
 31 400 l 29xd9
-44 400 m 25xa9
 -6 400 l 25xa5
 -6 500 l 25x95
 294 500 l 25
 294 0 l 25
 219 0 l 25
 219 200 l 25
 181 200 l 25
 181 100 l 25xd3
 106 100 l 25
 106 0 l 25
 -6 0 l 25
 -6 100 l 25xd5
 69 100 l 25
 69 200 l 25xd3
 -6 200 l 25xd5
 -6 300 l 25xa5
 -44 300 l 25
 -44 400 l 25xa9
EndSplineSet
Validated: 1
EndChar

StartChar: uni2116
Encoding: 8470 8470 175
Width: 450
Flags: W
HStem: 0 21G<-75 0 75 150> 200 100<188 375> 400 100<262 300> 500 100<188 225 338 375> 600 100<262 300>
VStem: -75 113<400 600> -75 75<0 250 600 700> 38 112<100 250> 75 75<0 100 400 700> 188 74<500 600> 225 113<400 500 600 700> 300 75<500 600>
LayerCount: 2
Back
Fore
SplineSet
188 300 m 29xc050
 375 300 l 25
 375 200 l 25
 188 200 l 25
 188 300 l 29xc050
262 600 m 25xe850
 262 500 l 25
 300 500 l 25
 300 600 l 25
 262 600 l 25xe850
225 600 m 25xd020
 225 700 l 25
 338 700 l 25xc820
 338 600 l 25xd020
 375 600 l 25
 375 500 l 25xd010
 338 500 l 25xd020
 338 400 l 25
 225 400 l 25xe020
 225 500 l 25xd020
 188 500 l 25
 188 600 l 25xd040
 225 600 l 25xd020
-75 0 m 25xeb
 -75 700 l 25
 0 700 l 25
 0 600 l 25xeb
 38 600 l 25
 38 400 l 25
 75 400 l 25
 75 700 l 25
 150 700 l 25
 150 0 l 25
 75 0 l 25
 75 100 l 25xec80
 38 100 l 25
 38 250 l 25
 0 250 l 25
 0 0 l 25
 -75 0 l 25xeb
EndSplineSet
Validated: 1
EndChar

StartChar: asciitilde
Encoding: 126 126 176
Width: 450
Flags: W
HStem: 500 100<6 44 194 269> 600 100<81 156 306 344>
VStem: 6 75<501 600> 269 75<600 700>
LayerCount: 2
Back
Fore
SplineSet
6 600 m 29xb0
 44 600 l 25xb0
 44 700 l 25
 194 700 l 25x70
 194 600 l 25
 269 600 l 25xb0
 269 700 l 25
 344 700 l 25
 344 600 l 25
 306 600 l 25x70
 306 500 l 25
 156 500 l 25xb0
 156 600 l 25
 81 600 l 25x70
 81 500 l 25
 6 501 l 25
 6 600 l 29xb0
EndSplineSet
Validated: 1
EndChar

StartChar: section
Encoding: 167 167 177
Width: 450
Flags: W
HStem: 0 100<38 150> 100 100<-38 0> 200 100<112 150> 300 100<38 75 225 262> 400 100<150 188> 500 100<300 338> 600 100<150 262>
VStem: -38 76<100 200> 38 74<300 400> 75 75<500 600> 150 75<100 200> 188 74<300 400> 262 76<500 600>
LayerCount: 2
Back
Fore
SplineSet
188 400 m 29x0890
 112 400 l 25
 112 300 l 25x2890
 188 300 l 25x1090
 188 400 l 29x0890
262 500 m 25x0488
 262 600 l 25
 150 600 l 25
 150 500 l 25x0a48
 225 500 l 25
 225 400 l 25x1420
 262 400 l 25
 262 300 l 25x1410
 225 300 l 25
 225 100 l 25x5420
 188 100 l 25x5410
 188 0 l 25
 0 0 l 25x8010
 0 100 l 25
 -38 100 l 25
 -38 200 l 25x4110
 38 200 l 25
 38 100 l 25
 150 100 l 25
 150 200 l 25xa120
 75 200 l 25xa040
 75 300 l 25x1040
 38 300 l 25
 38 400 l 25x1080
 75 400 l 25
 75 600 l 25x1240
 112 600 l 25
 112 700 l 25
 300 700 l 25x1280
 300 600 l 25
 338 600 l 25
 338 500 l 25
 262 500 l 25x0488
EndSplineSet
Validated: 1
EndChar

StartChar: parenleft
Encoding: 40 40 178
Width: 450
Flags: W
HStem: 0 100<144 219> 600 100<144 219>
VStem: 31 75<200 500> 69 75<100 200 500 600> 106 113<0 100 600 700>
LayerCount: 2
Back
Fore
SplineSet
106 600 m 29xc8
 106 700 l 25
 219 700 l 25
 219 600 l 25xc8
 144 600 l 25
 144 500 l 25xd0
 106 500 l 25
 106 200 l 25xe0
 144 200 l 25
 144 100 l 25xd0
 219 100 l 25
 219 0 l 25
 106 0 l 25
 106 100 l 25xc8
 69 100 l 25
 69 200 l 25xd0
 31 200 l 25
 31 500 l 25xe0
 69 500 l 25
 69 600 l 25xd0
 106 600 l 29xc8
EndSplineSet
Validated: 1
EndChar

StartChar: quotedbl
Encoding: 34 34 179
Width: 450
Flags: HMW
LayerCount: 2
Back
Fore
SplineSet
188 500 m 29
 188 700 l 29
 262 700 l 29
 262 500 l 29
 188 500 l 29
38 500 m 5
 38 700 l 29
 112 700 l 5
 112 500 l 29
 38 500 l 5
EndSplineSet
Validated: 1
EndChar

StartChar: numbersign
Encoding: 35 35 180
Width: 450
Flags: W
HStem: 0 21G<38 112 188 262> 200 100<-38 38 112 188 262 338> 400 100<-38 38 112 188 262 338> 680 20G<38 112 188 262>
VStem: 38 74<0 200 300 400 500 700> 188 74<0 200 300 400 500 700>
LayerCount: 2
Back
Fore
SplineSet
112 300 m 29
 188 300 l 25
 188 400 l 25
 112 400 l 25
 112 300 l 29
38 700 m 25
 112 700 l 25
 112 500 l 25
 188 500 l 25
 188 700 l 25
 262 700 l 25
 262 500 l 25
 338 500 l 25
 338 400 l 25
 262 400 l 25
 262 300 l 25
 338 300 l 25
 338 200 l 25
 262 200 l 25
 262 0 l 25
 188 0 l 25
 188 200 l 25
 112 200 l 25
 112 0 l 25
 38 0 l 25
 38 200 l 25
 -38 200 l 25
 -38 300 l 25
 38 300 l 25
 38 400 l 25
 -38 400 l 25
 -38 500 l 25
 38 500 l 25
 38 700 l 25
EndSplineSet
Validated: 1
EndChar

StartChar: dollar
Encoding: 36 36 181
Width: 450
Flags: W
HStem: 0 100<38 112 188 262> 100 100<-38 0> 300 100<38 112 188 262> 500 100<300 338> 600 100<38 112 188 262>
VStem: -38 76<100 200 400 600> 0 300<0 100 300 400 600 700> 112 76<-100 0 100 300 400 600 700 800> 262 76<100 300 500 600>
LayerCount: 2
Back
Fore
SplineSet
262 100 m 29xa180
 262 300 l 25
 188 300 l 25
 188 100 l 25
 262 100 l 29xa180
112 600 m 25x2d
 38 600 l 25
 38 400 l 25
 112 400 l 25
 112 600 l 25x2d
188 800 m 25
 188 700 l 1xa9
 300 700 l 25xaa
 300 600 l 25x32
 338 600 l 25
 338 500 l 25
 262 500 l 25x3080
 262 600 l 25
 188 600 l 25
 188 400 l 25x2980
 300 400 l 25
 300 300 l 25x2a
 338 300 l 25
 338 100 l 25x6880
 300 100 l 25x6a
 300 0 l 25xa2
 188 0 l 25
 188 -100 l 25
 112 -100 l 25
 112 0 l 25xa1
 0 0 l 25xa2
 0 100 l 25x62
 -38 100 l 25
 -38 200 l 25
 38 200 l 25x64
 38 100 l 25
 112 100 l 25
 112 300 l 25xa5
 0 300 l 25
 0 400 l 25xa2
 -38 400 l 25
 -38 600 l 25xac
 0 600 l 25
 0 700 l 25xaa
 112 700 l 25
 112 800 l 1
 188 800 l 25
EndSplineSet
Validated: 1
EndChar

StartChar: percent
Encoding: 37 37 182
Width: 450
Flags: W
HStem: 0 100<0 38 262 300> 100 100<188 225 338 375> 200 100<262 300> 400 100<0 38> 500 100<-75 -38 75 112> 600 100<0 38 262 300>
VStem: -75 75<500 600> -38 113<400 500 600 700> 0 75<0 100> 38 74<100 200 500 600> 75 75<200 300> 112 76<300 400> 150 75<400 500> 188 74<100 200 500 600> 225 113<0 100 200 300> 225 75<600 700> 300 75<100 200>
LayerCount: 2
Back
Fore
SplineSet
225 700 m 29x0401
 300 700 l 25
 300 600 l 25x0401
 262 600 l 25x0404
 262 500 l 25x0804
 225 500 l 25x0808
 225 400 l 25x1008
 188 400 l 25
 188 300 l 25x3010
 150 300 l 25
 150 200 l 25x3020
 112 200 l 25x3040
 112 100 l 25x4040
 75 100 l 25x4080
 75 0 l 25
 0 0 l 25
 0 100 l 25x8080
 38 100 l 25
 38 200 l 25xa040
 75 200 l 25
 75 300 l 25xa020
 112 300 l 25
 112 400 l 25xb010
 150 400 l 25xb008
 150 500 l 25x0808
 188 500 l 25x0804
 188 600 l 25x0404
 225 600 l 25
 225 700 l 29x0401
262 100 m 25xa00480
 300 100 l 25
 300 200 l 25
 262 200 l 25
 262 100 l 25xa00480
225 300 m 25x2002
 338 300 l 25x2002
 338 200 l 25x4002
 375 200 l 25
 375 100 l 25x400080
 338 100 l 25x4002
 338 0 l 25
 225 0 l 25x8002
 225 100 l 25x4002
 188 100 l 25
 188 200 l 25x4004
 225 200 l 25x4002
 225 300 l 25x2002
0 600 m 25x1640
 0 500 l 25
 38 500 l 25
 38 600 l 25
 0 600 l 25x1640
-75 600 m 25x0a
 -38 600 l 25x09
 -38 700 l 25
 75 700 l 25x05
 75 600 l 25x09
 112 600 l 25
 112 500 l 25x0840
 75 500 l 25x09
 75 400 l 25
 -38 400 l 25x11
 -38 500 l 25x09
 -75 500 l 25
 -75 600 l 25x0a
EndSplineSet
Validated: 1
EndChar

StartChar: ampersand
Encoding: 38 38 183
Width: 450
Flags: W
HStem: 0 100<44 194 306 381> 100 100<-31 6 231 269> 200 100<306 344> 300 100<81 156> 600 100<81 156>
VStem: -31 75<100 200> 6 75<200 300 400 600> 44 150<300 400 600 700> 156 75<200 300 400 600> 269 112<0 100> 269 75<200 300>
LayerCount: 2
Back
Fore
SplineSet
81 300 m 29x1a80
 81 200 l 25x2a80
 44 200 l 25
 44 100 l 25xac
 194 100 l 25
 194 200 l 25xa9
 156 200 l 25xa880
 156 300 l 25
 81 300 l 29x1a80
81 600 m 25
 81 400 l 25
 156 400 l 25x1a80
 156 600 l 25
 81 600 l 25
44 700 m 25x59
 194 700 l 25
 194 600 l 25x59
 231 600 l 25
 231 400 l 25x5880
 194 400 l 25
 194 300 l 25x59
 231 300 l 25
 231 200 l 25
 269 200 l 25
 269 300 l 25x58a0
 344 300 l 25
 344 200 l 25x28a0
 306 200 l 25
 306 100 l 25
 381 100 l 25
 381 0 l 25
 269 0 l 25xa840
 269 100 l 25
 231 100 l 25x48c0
 231 0 l 25
 6 0 l 25x8ac0
 6 100 l 25x4ac0
 -31 100 l 25
 -31 200 l 25x4c
 6 200 l 25
 6 300 l 25x5a
 44 300 l 25
 44 400 l 25x59
 6 400 l 25
 6 600 l 25x5a
 44 600 l 25
 44 700 l 25x59
EndSplineSet
Validated: 1
EndChar

StartChar: quotesingle
Encoding: 39 39 184
Width: 450
Flags: HMW
LayerCount: 2
Back
Fore
SplineSet
112 700 m 29
 188 700 l 29
 188 500 l 29
 112 500 l 29
 112 700 l 29
EndSplineSet
Validated: 1
EndChar

StartChar: parenright
Encoding: 41 41 185
Width: 450
Flags: W
HStem: 0 100<81 156> 600 100<81 156>
VStem: 81 113<0 100 600 700> 156 75<100 200 500 600> 194 75<200 500>
LayerCount: 2
Back
Fore
SplineSet
81 700 m 29xe0
 194 700 l 25
 194 600 l 25xe0
 231 600 l 25
 231 500 l 25xd0
 269 500 l 25
 269 200 l 25xc8
 231 200 l 25
 231 100 l 25xd0
 194 100 l 25
 194 0 l 25
 81 0 l 25
 81 100 l 25xe0
 156 100 l 25
 156 200 l 25xd0
 194 200 l 25
 194 500 l 25xc8
 156 500 l 25
 156 600 l 25xd0
 81 600 l 25
 81 700 l 29xe0
EndSplineSet
Validated: 1
EndChar

StartChar: braceleft
Encoding: 123 123 186
Width: 450
Flags: W
HStem: 0 100<188 262> 300 100<38 112> 600 100<188 262>
VStem: 38 112<300 400> 112 76<100 300 400 600> 150 112<0 100 600 700>
CounterMasks: 1 e0
LayerCount: 2
Back
Fore
SplineSet
262 700 m 29xe4
 262 600 l 1xe4
 188 600 l 25
 188 400 l 25xe8
 150 400 l 25
 150 300 l 25xf0
 188 300 l 25
 188 100 l 25xe8
 262 100 l 25
 262 0 l 25
 150 0 l 25
 150 100 l 25xe4
 112 100 l 25
 112 300 l 25xe8
 38 300 l 25
 38 400 l 25xf0
 112 400 l 25
 112 600 l 25xe8
 150 600 l 25
 150 700 l 1
 262 700 l 29xe4
EndSplineSet
Validated: 1
EndChar

StartChar: bar
Encoding: 124 124 187
Width: 450
Flags: W
HStem: 0 21G<112 188> 680 20G<112 188>
VStem: 112 76<0 700>
LayerCount: 2
Back
Fore
SplineSet
112 700 m 29
 188 700 l 25
 188 0 l 25
 112 0 l 25
 112 700 l 29
EndSplineSet
Validated: 1
EndChar

StartChar: braceright
Encoding: 125 125 188
Width: 450
Flags: W
HStem: 0 100<38 112> 300 100<188 262> 600 100<38 112>
VStem: 38 112<0 100 600 700> 112 76<100 300 400 600> 150 112<300 400>
CounterMasks: 1 e0
LayerCount: 2
Back
Fore
SplineSet
38 700 m 29xf0
 150 700 l 25
 150 600 l 25xf0
 188 600 l 25
 188 400 l 25xe8
 262 400 l 25
 262 300 l 25xe4
 188 300 l 25
 188 100 l 25xe8
 150 100 l 25
 150 0 l 25
 38 0 l 25
 38 100 l 25xf0
 112 100 l 25
 112 300 l 25xe8
 150 300 l 25
 150 400 l 25xe4
 112 400 l 25
 112 600 l 25xe8
 38 600 l 25
 38 700 l 29xf0
EndSplineSet
Validated: 1
EndChar

StartChar: uni0451
Encoding: 1105 1105 189
Width: 450
Flags: W
HStem: 0 100<81 306> 200 100<81 269> 400 100<81 269> 600 100<44 119 231 306>
VStem: 6 75<100 200 300 400> 44 75<600 700> 231 75<600 700> 269 75<300 400>
LayerCount: 2
Back
Fore
SplineSet
231 700 m 25xf2
 306 700 l 25
 306 600 l 25
 231 600 l 25
 231 700 l 25xf2
44 700 m 25xf4
 119 700 l 25
 119 600 l 25
 44 600 l 25
 44 700 l 25xf4
81 400 m 1xf9
 81 300 l 1
 269 300 l 1
 269 400 l 1
 81 400 l 1xf9
44 400 m 1xf4
 44 500 l 1
 306 500 l 1
 306 400 l 25xf6
 344 400 l 25
 344 200 l 1
 81 200 l 1
 81 100 l 1xf9
 306 100 l 1
 306 0 l 1
 44 0 l 1
 44 100 l 1xf6
 6 100 l 1
 6 400 l 5xf8
 44 400 l 1xf4
EndSplineSet
Validated: 1
EndChar

StartChar: underscore
Encoding: 95 95 190
Width: 450
Flags: W
HStem: -100 100<-38 338>
LayerCount: 2
Back
Fore
SplineSet
-38 -100 m 29
 -38 0 l 1
 338 0 l 25
 338 -100 l 1
 -38 -100 l 29
EndSplineSet
Validated: 1
EndChar

StartChar: asciicircum
Encoding: 94 94 191
Width: 450
Flags: W
HStem: 400 100<44 81 269 306> 600 100<156 194>
VStem: 44 75<400 500> 81 75<500 600> 194 75<500 600> 231 75<400 500>
LayerCount: 2
Back
Fore
SplineSet
44 400 m 29xe0
 44 500 l 25xe0
 81 500 l 25
 81 600 l 25xd0
 119 600 l 25
 119 700 l 25
 231 700 l 25
 231 600 l 25xe4
 269 600 l 25
 269 500 l 25xc8
 306 500 l 25
 306 400 l 25
 231 400 l 25
 231 500 l 25xc4
 194 500 l 25
 194 600 l 25
 156 600 l 25
 156 500 l 25xd8
 119 500 l 25
 119 400 l 25
 44 400 l 29xe0
EndSplineSet
Validated: 1
EndChar

StartChar: grave
Encoding: 96 96 192
Width: 450
Flags: W
HStem: 400 300
VStem: 25 75<600 700> 62 76<500 600> 100 75<400 500>
LayerCount: 2
Back
Fore
SplineSet
25 700 m 29xc0
 100 700 l 25
 100 600 l 25xc0
 138 600 l 25
 138 500 l 25xa0
 175 500 l 25
 175 400 l 25
 100 400 l 25
 100 500 l 25x90
 62 500 l 25
 62 600 l 25xa0
 25 600 l 25
 25 700 l 29xc0
EndSplineSet
Validated: 1
EndChar

StartChar: bracketleft
Encoding: 91 91 193
Width: 450
Flags: W
HStem: 0 100<150 225> 600 100<150 225>
VStem: 75 150<0 100 600 700> 75 75<100 600>
LayerCount: 2
Back
Fore
SplineSet
225 600 m 29xe0
 150 600 l 25
 150 100 l 25xd0
 225 100 l 25
 225 0 l 25
 75 0 l 25
 75 700 l 25
 225 700 l 25
 225 600 l 29xe0
EndSplineSet
Validated: 1
EndChar

StartChar: bracketright
Encoding: 93 93 194
Width: 450
Flags: W
HStem: 0 100<75 150> 600 100<75 150>
VStem: 75 150<0 100 600 700> 150 75<100 600>
LayerCount: 2
Back
Fore
SplineSet
75 700 m 29xe0
 224 700 l 1
 225 0 l 25
 75 0 l 25
 75 100 l 25xe0
 150 100 l 25
 150 600 l 25xd0
 75 600 l 1
 75 700 l 29xe0
EndSplineSet
Validated: 1
EndChar

StartChar: backslash
Encoding: 92 92 195
Width: 450
Flags: W
HStem: 0 100<262 300> 600 100<0 38>
VStem: 0 75<600 700> 38 74<500 600> 75 75<400 500> 112 76<300 400> 150 75<200 300> 188 74<100 200> 225 75<0 100>
LayerCount: 2
Back
Fore
SplineSet
0 600 m 29xe0
 0 700 l 25
 75 700 l 25
 75 600 l 25xe0
 112 600 l 25
 112 500 l 25xd0
 150 500 l 25
 150 400 l 25xc8
 188 400 l 25
 188 300 l 25xc4
 225 300 l 25
 225 200 l 25xc2
 262 200 l 25
 262 100 l 25xc1
 300 100 l 25
 300 0 l 25
 225 0 l 25
 225 100 l 25xc080
 188 100 l 25
 188 200 l 25xc1
 150 200 l 25
 150 300 l 25xc2
 112 300 l 25
 112 400 l 25xc4
 75 400 l 25
 75 500 l 25xc8
 38 500 l 25
 38 600 l 25xd0
 0 600 l 29xe0
EndSplineSet
Validated: 1
EndChar

StartChar: Odieresis
Encoding: 214 214 196
Width: 450
Flags: HMW
LayerCount: 2
Back
Fore
SplineSet
75 500 m 29
 75 400 l 25
 38 400 l 25
 38 200 l 25
 75 200 l 25
 75 100 l 25
 225 100 l 25
 225 200 l 25
 262 200 l 25
 262 400 l 25
 225 400 l 25
 225 500 l 25
 75 500 l 29
38 600 m 25
 262 600 l 25
 262 500 l 25
 300 500 l 25
 300 400 l 25
 338 400 l 25
 338 200 l 25
 300 200 l 25
 300 100 l 25
 262 100 l 25
 262 0 l 25
 38 0 l 25
 38 100 l 25
 0 100 l 25
 0 200 l 25
 -38 200 l 25
 -38 400 l 25
 0 400 l 25
 0 500 l 25
 38 500 l 25
 38 600 l 25
188 700 m 25
 188 800 l 25
 262 800 l 25
 262 700 l 25
 188 700 l 25
38 700 m 25
 38 800 l 25
 112 800 l 25
 112 700 l 25
 38 700 l 25
EndSplineSet
Validated: 1
EndChar

StartChar: acute
Encoding: 180 180 197
Width: 450
Flags: W
HStem: 400 300
VStem: 25 75<400 500> 62 76<500 600> 100 75<600 700>
LayerCount: 2
Back
Fore
SplineSet
100 600 m 29x90
 100 700 l 25
 175 700 l 25
 175 600 l 25x90
 138 600 l 25
 138 500 l 25xa0
 100 500 l 25
 100 400 l 25
 25 400 l 25
 25 500 l 25xc0
 62 500 l 25
 62 600 l 25xa0
 100 600 l 29x90
EndSplineSet
Validated: 1
EndChar

StartChar: plusminus
Encoding: 177 177 198
Width: 450
Flags: W
HStem: 100 100<0 300> 451 99<0 112 188 300> 680 20G<112 188>
VStem: 0 300<101 200 451 550> 112 76<300 450 550 700>
LayerCount: 2
Back
Fore
SplineSet
0 200 m 29xf0
 300 200 l 25
 300 101 l 25
 0 100 l 25
 0 200 l 29xf0
0 550 m 25
 112 550 l 25
 112 700 l 25
 188 700 l 25
 188 550 l 25xe8
 300 551 l 25
 300 450 l 25xf0
 188 450 l 25
 188 300 l 25
 112 300 l 25
 112 451 l 25xe8
 0 451 l 25
 0 550 l 25
EndSplineSet
Validated: 1
EndChar

StartChar: uni20BD
Encoding: 8381 8381 199
Width: 450
Flags: W
HStem: 0 21G<-6 69> 150 100<-81 -6 69 219> 300 100<-81 -6 69 256> 600 100<69 256>
VStem: -6 75<0 150 250 300 400 600> 256 75<400 600>
LayerCount: 2
Back
Fore
SplineSet
69 400 m 25
 256 400 l 25
 256 600 l 25
 69 600 l 25
 69 400 l 25
-6 700 m 25
 294 700 l 25
 294 650 l 25
 331 650 l 25
 331 400 l 25
 294 400 l 25
 294 300 l 25
 69 300 l 25
 69 250 l 1
 219 250 l 5
 219 150 l 1
 69 150 l 1
 69 0 l 25
 -6 0 l 25
 -6 150 l 25
 -81 150 l 25
 -81 250 l 25
 -6 250 l 25
 -6 300 l 25
 -81 300 l 25
 -81 400 l 25
 -6 400 l 25
 -6 700 l 25
EndSplineSet
Validated: 1
EndChar

StartChar: Udieresis
Encoding: 220 220 200
Width: 450
Flags: W
HStem: 0 100<81 269> 700 100<44 119 231 306>
VStem: 6 75<100 600> 44 75<700 800> 231 75<700 800> 269 75<100 600>
LayerCount: 2
Back
Fore
SplineSet
231 800 m 29xc8
 306 800 l 25
 306 700 l 25
 231 700 l 25
 231 800 l 29xc8
44 700 m 25xd0
 44 800 l 25
 119 800 l 25
 119 700 l 25
 44 700 l 25xd0
6 600 m 1xe0
 81 600 l 1
 81 100 l 1
 269 100 l 1
 269 600 l 1
 344 600 l 1
 344 100 l 1xe4
 306 100 l 25
 306 0 l 25
 44 0 l 25
 44 100 l 25xd8
 6 100 l 1
 6 600 l 1xe0
EndSplineSet
Validated: 1
EndChar

StartChar: Adieresis
Encoding: 196 196 201
Width: 450
Flags: W
HStem: 0 21G<-38 38 262 338> 200 100<38 262> 500 100<75 225> 700 100<38 112 188 262>
VStem: -38 76<0 200 300 400> 0 75<400 500> 38 74<700 800> 188 74<700 800> 225 75<400 500> 262 76<0 200 300 400>
LayerCount: 2
Back
Fore
SplineSet
188 700 m 25xf1
 188 800 l 25
 262 800 l 25
 262 700 l 25
 188 700 l 25xf1
38 700 m 25xf2
 38 800 l 25
 112 800 l 25
 112 700 l 25
 38 700 l 25xf2
38 300 m 25xf8
 262 300 l 25
 262 400 l 25xf840
 225 400 l 1
 225 500 l 25
 75 500 l 1
 75 400 l 29xf480
 38 400 l 1
 38 300 l 25xf8
-38 0 m 25
 -38 400 l 1xf840
 0 400 l 25
 0 500 l 25xf4
 38 500 l 25
 38 600 l 25
 262 600 l 25
 262 500 l 25xf240
 300 500 l 25
 300 400 l 25xf080
 338 400 l 25
 338 0 l 25
 262 0 l 25
 262 200 l 25
 38 200 l 25
 38 0 l 1
 -38 0 l 25
EndSplineSet
Validated: 1
EndChar

StartChar: adieresis
Encoding: 228 228 202
Width: 450
Flags: W
HStem: 0 100<38 225 300 337> 100 100<-38 0> 200 100<38 225> 400 100<0 225> 600 100<38 112 188 262>
VStem: -38 76<100 200> 38 74<600 700> 188 74<600 700> 225 75<100 200 300 400>
LayerCount: 2
Back
Fore
SplineSet
188 600 m 29x19
 188 700 l 29
 262 700 l 29
 262 600 l 29
 188 600 l 29x19
38 600 m 29x1a
 38 700 l 29
 112 700 l 29
 112 600 l 29
 38 600 l 29x1a
38 200 m 25xbc80
 38 100 l 25
 225 100 l 25
 225 200 l 25
 38 200 l 25xbc80
0 500 m 25
 262 500 l 25
 262 400 l 25x39
 300 400 l 25
 300 100 l 25
 337 100 l 25
 338 0 l 25
 0 0 l 25xb880
 0 100 l 25
 -38 100 l 25
 -38 200 l 25
 0 200 l 25x5c80
 0 300 l 25
 225 300 l 25
 225 400 l 25
 0 400 l 25
 0 500 l 25
EndSplineSet
Validated: 1
EndChar

StartChar: odieresis
Encoding: 246 246 203
Width: 450
Flags: W
HStem: 0 100<81 269> 400 100<81 269> 600 100<44 119 231 306>
VStem: 6 75<100 400> 44 75<600 700> 231 75<600 700> 269 75<100 400>
LayerCount: 2
Back
Fore
SplineSet
231 600 m 29xe4
 231 700 l 29
 306 700 l 29
 306 600 l 29
 231 600 l 29xe4
44 600 m 25xe8
 44 700 l 25
 119 700 l 25
 119 600 l 25
 44 600 l 25xe8
81 400 m 25xf2
 81 100 l 25
 269 100 l 25
 269 400 l 25
 81 400 l 25xf2
44 500 m 25xe8
 306 500 l 25
 306 400 l 25xec
 344 400 l 25
 344 100 l 25xe2
 306 100 l 25
 306 0 l 25
 44 0 l 25
 44 100 l 25xec
 6 100 l 25
 6 400 l 25xf0
 44 400 l 25
 44 500 l 25xe8
EndSplineSet
Validated: 1
EndChar

StartChar: germandbls
Encoding: 223 223 204
Width: 450
Flags: W
HStem: 0 100<119 269> 300 100<156 231> 600 100<119 231>
VStem: 6 75<0 500> 44 75<500 600> 81 188<600 700> 119 187<0 100> 156 113<300 400> 231 75<400 600> 269 75<100 300>
CounterMasks: 1 e0
LayerCount: 2
Back
Fore
SplineSet
81 600 m 25xe4
 81 700 l 1
 269 700 l 25
 269 600 l 25xe4
 306 600 l 25
 306 400 l 25xe080
 269 400 l 25
 269 300 l 25xe1
 344 300 l 25
 344 100 l 25xe040
 306 100 l 25
 306 0 l 25
 119 0 l 25
 119 100 l 25xe2
 269 100 l 25xe040
 269 300 l 25
 156 300 l 25
 156 400 l 25xe1
 231 400 l 25
 231 600 l 25
 119 600 l 25
 119 500 l 25xe880
 81 500 l 25
 81 0 l 25
 6 0 l 25
 6 500 l 25xf0
 44 500 l 25
 44 600 l 1xe8
 81 600 l 25xe4
EndSplineSet
Validated: 5
EndChar

StartChar: uniFFFD
Encoding: 65533 65533 205
Width: 450
Flags: W
HStem: -200 21G<75 225> 100 100<112 188> 480 20G<112 188> 600 200<75 225>
VStem: -75 187<200 300> -38 76<400 500> 0 112<0 100> 0 75<500 600> 38 224<-100 0 600 700> 75 150<-200 -100 700 800> 112 76<400 500> 188 112<0 100> 225 75<500 600> 262 113<300 400> 262 76<400 500>
LayerCount: 2
Back
Fore
SplineSet
112 200 m 29xf810
 225 200 l 25
 225 300 l 25xf808
 262 300 l 25xf004
 262 500 l 25xf002
 225 500 l 25
 225 600 l 25
 75 600 l 25
 75 500 l 25xf108
 38 500 l 25
 38 400 l 25
 112 400 l 25
 112 500 l 25
 188 500 l 25xf420
 188 300 l 25
 112 300 l 25
 112 200 l 29xf810
112 0 m 25xf210
 188 0 l 25
 188 100 l 25
 112 100 l 25
 112 0 l 25xf210
-75 200 m 25xf8
 -75 400 l 25xf8
 -38 400 l 25
 -38 500 l 25xf4
 0 500 l 25
 0 600 l 25xf1
 38 600 l 25
 38 700 l 25xf080
 75 700 l 25
 75 800 l 25
 225 800 l 25
 225 700 l 25xf040
 262 700 l 25
 262 600 l 25xf080
 300 600 l 25
 300 500 l 25xf008
 338 500 l 25
 338 400 l 25xf002
 375 400 l 25
 375 200 l 25xf004
 338 200 l 25
 338 100 l 25xf002
 300 100 l 25
 300 0 l 25xf010
 262 0 l 25
 262 -100 l 25xf080
 225 -100 l 25
 225 -200 l 25
 75 -200 l 25
 75 -100 l 25xf040
 38 -100 l 25
 38 0 l 25xf080
 0 0 l 25
 0 100 l 25xf2
 -38 100 l 25
 -38 200 l 25xf4
 -75 200 l 25xf8
EndSplineSet
Validated: 1
EndChar

StartChar: Oslash
Encoding: 216 216 206
Width: 450
Flags: W
HStem: 0 100<75 225> 600 100<75 225>
VStem: -38 76<200 500> 0 75<100 200 500 600> 38 224<0 100 600 700> 225 75<100 200 500 600> 262 76<200 500>
LayerCount: 2
Back
Fore
SplineSet
225 100 m 29xd4
 225 200 l 25xd4
 262 200 l 25
 262 500 l 25xc2
 225 500 l 25
 225 600 l 25
 75 600 l 25
 75 500 l 25xd4
 38 500 l 25
 38 200 l 25xe0
 75 200 l 25
 75 100 l 25
 225 100 l 29xd4
262 0 m 25xc8
 38 0 l 25
 38 100 l 25xc8
 0 100 l 25
 0 200 l 25xd0
 -38 200 l 25
 -38 500 l 25xe0
 0 500 l 25
 0 600 l 25xd0
 38 600 l 25
 38 700 l 25
 262 700 l 25
 262 600 l 25xc8
 300 600 l 25
 300 500 l 25xc4
 338 500 l 25
 338 200 l 25xc2
 300 200 l 25
 300 100 l 25xc4
 262 100 l 25
 262 0 l 25xc8
EndSplineSet
Validated: 1
EndChar

StartChar: multiply
Encoding: 215 215 207
Width: 450
Flags: HMW
LayerCount: 2
Back
Fore
SplineSet
38 200 m 29
 38 300 l 25
 112 300 l 25
 112 400 l 25
 38 400 l 25
 38 500 l 25
 112 500 l 25
 112 400 l 25
 188 400 l 25
 188 500 l 25
 262 500 l 25
 262 400 l 25
 188 400 l 25
 188 300 l 25
 262 300 l 25
 262 200 l 25
 188 200 l 25
 188 300 l 25
 112 300 l 25
 112 200 l 25
 38 200 l 29
EndSplineSet
Validated: 5
EndChar

StartChar: divide
Encoding: 247 247 208
Width: 450
Flags: HMW
LayerCount: 2
Back
Fore
SplineSet
112 100 m 29
 112 200 l 25
 188 200 l 25
 188 100 l 25
 112 100 l 29
0 300 m 25
 0 400 l 25
 300 400 l 25
 300 300 l 25
 0 300 l 25
112 500 m 25
 112 600 l 25
 188 600 l 25
 188 500 l 25
 112 500 l 25
EndSplineSet
Validated: 1
EndChar

StartChar: brokenbar
Encoding: 166 166 209
Width: 450
Flags: W
HStem: 0 21G<112 188> 680 20G<112 188>
VStem: 112 76<0 700>
LayerCount: 2
Back
Fore
SplineSet
112 700 m 29
 188 700 l 25
 188 0 l 25
 112 0 l 25
 112 700 l 29
EndSplineSet
Validated: 1
EndChar

StartChar: degree
Encoding: 176 176 210
Width: 450
Flags: HMW
LayerCount: 2
Back
Fore
SplineSet
112 600 m 29
 112 500 l 25
 188 500 l 25
 188 600 l 25
 112 600 l 29
75 600 m 25
 75 700 l 25
 225 700 l 25
 225 600 l 25
 262 600 l 25
 262 500 l 25
 225 500 l 25
 225 400 l 25
 75 400 l 25
 75 500 l 25
 38 500 l 25
 38 600 l 25
 75 600 l 25
EndSplineSet
Validated: 1
EndChar

StartChar: arrowright
Encoding: 8594 8594 211
Width: 450
Flags: W
HStem: 100 100<106 144> 300 100<-81 144 256 331> 500 100<106 144>
VStem: 106 75<100 200 500 600> 144 112<200 300 400 500>
CounterMasks: 1 e0
LayerCount: 2
Back
Fore
SplineSet
106 500 m 29xf0
 106 600 l 25
 181 600 l 25
 181 500 l 25xf0
 256 500 l 25
 256 400 l 25
 331 400 l 25
 331 300 l 25
 256 300 l 25
 256 200 l 25xe8
 181 200 l 25
 181 100 l 25
 106 100 l 25
 106 200 l 25xf0
 144 200 l 25
 144 300 l 25
 -81 300 l 25
 -81 400 l 25
 144 400 l 25
 144 500 l 25xe8
 106 500 l 29xf0
EndSplineSet
Validated: 1
EndChar

StartChar: arrowleft
Encoding: 8592 8592 212
Width: 450
Flags: W
HStem: 100 100<200 238> 300 100<12 88 200 388> 500 100<200 238>
VStem: 88 112<200 300 400 500> 162 76<100 200 500 600>
CounterMasks: 1 e0
LayerCount: 2
Back
Fore
SplineSet
162 500 m 29xe8
 162 600 l 25
 238 600 l 25
 238 500 l 25xe8
 200 500 l 25
 200 400 l 25
 388 400 l 25
 388 300 l 25
 200 300 l 25
 200 200 l 25xf0
 238 200 l 25
 238 100 l 25
 162 100 l 25
 162 200 l 25xe8
 88 200 l 25
 88 300 l 25
 12 300 l 25
 12 400 l 25
 88 400 l 25
 88 500 l 25xf0
 162 500 l 29xe8
EndSplineSet
Validated: 1
EndChar

StartChar: arrowup
Encoding: 8593 8593 213
Width: 450
Flags: W
HStem: 0 21G<112 188> 300 100<0 38 262 300> 680 20G<112 188>
VStem: 0 75<300 400> 75 150<500 600> 112 76<0 400 600 700> 225 75<300 400>
LayerCount: 2
Back
Fore
SplineSet
75 300 m 29xf6
 0 300 l 25
 0 400 l 25xf6
 38 400 l 25
 38 500 l 25
 75 500 l 25
 75 600 l 25xe8
 112 600 l 25
 112 700 l 25
 188 700 l 25
 188 600 l 25xe4
 225 600 l 25
 225 500 l 25xe8
 262 500 l 25
 262 400 l 25
 300 400 l 25
 300 300 l 25
 225 300 l 25
 225 400 l 25
 188 400 l 25
 188 0 l 25
 112 0 l 25
 112 400 l 25
 75 400 l 25
 75 300 l 29xf6
EndSplineSet
Validated: 1
EndChar

StartChar: arrowdown
Encoding: 8595 8595 214
Width: 450
Flags: W
HStem: 0 21G<112 188> 300 100<0 38 262 300> 680 20G<112 188>
VStem: 0 75<300 400> 75 150<100 200> 112 76<0 100 300 700> 225 75<300 400>
LayerCount: 2
Back
Fore
SplineSet
112 300 m 29xf4
 112 700 l 1
 188 700 l 25
 188 300 l 25
 225 300 l 25
 225 400 l 25
 300 400 l 25
 300 300 l 25xf6
 262 300 l 25
 262 200 l 25
 225 200 l 25
 225 100 l 25xe8
 188 100 l 25
 188 0 l 25
 112 0 l 25
 112 100 l 25xe4
 75 100 l 25
 75 200 l 25xe8
 38 200 l 25
 38 300 l 25
 0 300 l 25
 0 400 l 25
 75 400 l 25
 75 300 l 1
 112 300 l 29xf4
EndSplineSet
Validated: 1
EndChar

StartChar: arrowboth
Encoding: 8596 8596 215
Width: 450
Flags: W
HStem: 100 100<300 375 525 600> 300 100<150 225 300 600 675 750> 500 100<300 375 525 600>
VStem: 225 75<200 300 400 500> 300 75<100 200 500 600> 525 75<100 200 500 600> 600 75<200 300 400 500>
CounterMasks: 1 e0
LayerCount: 2
Back
Fore
SplineSet
150 300 m 29xf0
 150 400 l 25
 225 400 l 25
 225 500 l 25
 300 500 l 25xf0
 300 600 l 25
 375 600 l 25
 375 500 l 25xe8
 300 500 l 25
 300 400 l 25
 600 400 l 25xf2
 600 500 l 25
 525 500 l 25
 525 600 l 25
 600 600 l 25
 600 500 l 25xe4
 675 500 l 25
 675 400 l 25
 750 400 l 25
 750 300 l 25
 675 300 l 25
 675 200 l 25xe2
 600 200 l 25
 600 100 l 25
 525 100 l 25
 525 200 l 25
 600 200 l 25xe4
 600 300 l 25
 300 300 l 25
 300 200 l 25xf2
 375 200 l 25
 375 100 l 25
 300 100 l 25xe8
 300 200 l 25
 225 200 l 25
 225 300 l 25
 150 300 l 29xf0
EndSplineSet
Validated: 5
EndChar

StartChar: arrowupdn
Encoding: 8597 8597 216
Width: 450
Flags: W
HStem: 0 21G<75 225> 200 100<0 38 262 300> 400 100<0 38 262 300> 680 20G<75 225>
VStem: 0 75<200 300 400 500> 38 224<100 200 500 600> 75 150<0 100 600 700> 225 75<200 300 400 500>
LayerCount: 2
Back
Fore
SplineSet
0 200 m 29xf8
 0 300 l 25
 75 300 l 25
 75 200 l 25
 112 200 l 25
 112 500 l 25
 75 500 l 25
 75 400 l 25
 0 400 l 25
 0 500 l 25xf8
 38 500 l 25
 38 600 l 25xf4
 75 600 l 25
 75 700 l 25
 225 700 l 25
 225 600 l 25xf2
 262 600 l 25
 262 500 l 25xf4
 300 500 l 25
 300 400 l 25
 225 400 l 25
 225 500 l 25
 188 500 l 25
 188 200 l 25
 225 200 l 25
 225 300 l 25
 300 300 l 25
 300 200 l 25xf1
 262 200 l 25
 262 100 l 25xf4
 225 100 l 25
 225 0 l 25
 75 0 l 25
 75 100 l 25xf2
 38 100 l 25
 38 200 l 25xf4
 0 200 l 29xf8
EndSplineSet
Validated: 1
EndChar

StartChar: uni2600
Encoding: 9728 9728 217
Width: 450
Flags: W
HStem: -100 100<412 488> 0 100<225 300 600 675> 300 100<75 188 262 338 562 638 712 825> 600 100<188 262 638 712> 700 100<412 488>
VStem: 75 113<300 400> 188 74<600 700> 225 75<0 100> 338 224<200 300 400 500> 412 76<-100 0 100 200 500 600 700 800> 600 75<0 100> 638 74<600 700> 712 113<300 400>
LayerCount: 2
Back
Fore
SplineSet
638 600 m 25x3010
 638 700 l 25
 712 700 l 25
 712 600 l 25
 638 600 l 25x3010
412 700 m 25x2840
 412 800 l 25
 488 800 l 25
 488 700 l 25
 412 700 l 25x2840
188 600 m 25x32
 188 700 l 25
 262 700 l 25
 262 600 l 25
 188 600 l 25x32
712 300 m 1x2008
 712 400 l 25
 825 400 l 1
 825 300 l 25
 712 300 l 1x2008
75 300 m 1x24
 75 400 l 25
 188 400 l 1
 188 300 l 25
 75 300 l 1x24
600 0 m 25x6020
 600 100 l 25
 675 100 l 25
 675 0 l 25
 600 0 l 25x6020
412 -100 m 25xa040
 412 0 l 25
 488 0 l 25
 488 -100 l 25
 412 -100 l 25xa040
225 0 m 25x61
 225 100 l 25
 300 100 l 25
 300 0 l 25
 225 0 l 25x61
262 300 m 25x7280
 262 400 l 1
 338 400 l 25
 338 500 l 1x7280
 412 500 l 1
 412 600 l 1
 488 600 l 1
 488 500 l 25x7040
 562 500 l 25
 562 400 l 25
 638 400 l 25
 638 300 l 25
 562 300 l 25
 562 200 l 25x7090
 488 200 l 25
 488 100 l 25
 412 100 l 25
 412 200 l 25x7040
 338 200 l 25
 338 300 l 1
 262 300 l 25x7280
EndSplineSet
Validated: 1
EndChar

StartChar: uni2601
Encoding: 9729 9729 218
Width: 450
Flags: W
HStem: 200 100<-75 0 338 375> 480 20G<75 188>
VStem: 75 113<400 500>
LayerCount: 2
Back
Fore
SplineSet
-75 200 m 29
 -75 300 l 25
 0 300 l 25
 0 400 l 25
 75 400 l 25
 75 500 l 25
 188 500 l 25
 188 400 l 25
 300 400 l 25
 300 300 l 25
 375 300 l 25
 375 200 l 25
 338 200 l 25
 338 100 l 25
 0 100 l 25
 0 200 l 25
 -75 200 l 29
EndSplineSet
Validated: 1
EndChar

StartChar: uni2602
Encoding: 9730 9730 219
Width: 450
Flags: W
HStem: -100 100<38 112> 400 200<0 75 225 300> 400 100<-75 0 300 375> 680 20G<75 225>
VStem: 38 112<-100 0> 75 150<600 700> 112 76<0 400>
LayerCount: 2
Back
Fore
SplineSet
-75 400 m 29xb2
 -75 500 l 25
 0 500 l 25xb2
 0 600 l 25
 75 600 l 25
 75 700 l 25
 225 700 l 25
 225 600 l 25
 300 600 l 25xd4
 300 500 l 25
 375 500 l 25
 375 400 l 25
 188 400 l 25
 188 0 l 25xb2
 150 0 l 25
 150 -100 l 25
 38 -100 l 25
 38 0 l 25xb8
 112 0 l 25
 112 400 l 25
 -75 400 l 29xb2
EndSplineSet
Validated: 1
EndChar

StartChar: uni2603
Encoding: 9731 9731 220
Width: 450
Flags: W
HStem: -100 100<-38 38 300 375> -100 50<112 150 188 225> 0 100<75 262> 50 50<-75 -38 338 375> 100 100<0 38 300 338> 150 50<-75 -38> 200 100<112 150 188 225> 250 50<-38 0 338 375> 350 50<-75 -38 338 375> 400 100<0 38 112 150 188 225 300 338> 500 100<-38 0 38 75 262 300 338 375> 600 200<112 225> 650 50<-38 0 300 338> 750 50<-75 -38 38 75 262 300 338 375>
VStem: -75 37<50 100 150 200 350 400 750 800> -38 38<250 300 500 600 650 700> 0 38<400 500> 38 74<300 400 500 600> 38 37<750 800> 75 75<400 500> 112 38<-100 -50> 188 74<400 500> 188 37<-100 -50> 225 75<300 400 500 600> 262 38<750 800> 300 38<400 500 650 700> 338 37<50 100 250 300 350 400 500 600 750 800>
LayerCount: 2
Back
Fore
SplineSet
112 500 m 29x225041
 150 500 l 29
 150 400 l 29x225010
 112 400 l 29
 112 300 l 29x225040
 150 300 l 29
 150 200 l 29x225008
 75 200 l 29
 75 100 l 29
 262 100 l 29
 262 200 l 29
 188 200 l 29
 188 300 l 29x22501280
 225 300 l 29
 225 400 l 29x225001
 188 400 l 29
 188 500 l 29x225004
 225 500 l 29
 225 600 l 29
 112 600 l 29
 112 500 l 29x225041
-38 -100 m 29x800110a0
 -38 0 l 29
 38 0 l 29
 38 100 l 29x880120
 0 100 l 29
 0 200 l 29x880080
 38 200 l 29x880020
 38 400 l 29
 75 400 l 29x884090
 75 500 l 29x002090
 38 500 l 29x004090
 38 600 l 29x002040
 75 600 l 29
 75 700 l 29x002810
 112 700 l 29x002808
 112 800 l 29
 225 800 l 29x001009
 225 700 l 29x000809
 262 700 l 29
 262 600 l 29x00280080
 300 600 l 29x002801
 300 500 l 29x004001
 262 500 l 29x002004
 262 400 l 29x004004
 300 400 l 29x004001
 300 200 l 29x08400040
 338 200 l 29x08400020
 338 100 l 29x10000020
 300 100 l 29
 300 0 l 29x88000040
 375 0 l 29
 375 -100 l 29x88000020
 262 -100 l 29
 262 0 l 29
 75 0 l 29
 75 -100 l 29x600010a0
 -38 -100 l 29x800110a0
0 500 m 29x0041
 38 500 l 29
 38 400 l 29
 0 400 l 29x004080
 0 500 l 29x0041
-38 600 m 29x0021
 0 600 l 29x0021
 0 500 l 29x0041
 -38 500 l 29
 -38 600 l 29x0021
-75 50 m 29x1002
 -75 100 l 5
 -38 100 l 29
 -38 50 l 5
 -75 50 l 29x1002
-75 150 m 29x0402
 -75 200 l 5
 -38 200 l 29
 -38 150 l 5
 -75 150 l 29x0402
-38 250 m 29x0101
 -38 300 l 5
 0 300 l 29
 0 250 l 5
 -38 250 l 29x0101
-75 350 m 29x0082
 -75 400 l 5
 -38 400 l 29
 -38 350 l 5
 -75 350 l 29x0082
112 -100 m 29x400008
 112 -50 l 29
 150 -50 l 29
 150 -100 l 29
 112 -100 l 29x400008
188 -100 m 29x400002
 188 -50 l 29
 225 -50 l 29
 225 -100 l 29
 188 -100 l 29x400002
338 50 m 29x10000020
 338 100 l 29
 375 100 l 29
 375 50 l 29
 338 50 l 29x10000020
338 250 m 29x01000020
 338 300 l 29
 375 300 l 29
 375 250 l 29
 338 250 l 29x01000020
338 350 m 29x00800020
 338 400 l 29x00800040
 375 400 l 29
 375 350 l 29
 338 350 l 29x00800020
300 400 m 29x004001
 300 500 l 29x004001
 338 500 l 29x00400040
 338 400 l 29x00800040
 300 400 l 29x004001
338 500 m 29x00400040
 338 600 l 29
 375 600 l 29
 375 500 l 29x00200020
 338 500 l 29x00400040
300 650 m 29x00080040
 300 700 l 29
 338 700 l 29
 338 650 l 29
 300 650 l 29x00080040
338 750 m 29x00040020
 338 800 l 29
 375 800 l 29
 375 750 l 29
 338 750 l 29x00040020
262 750 m 29x00040080
 262 800 l 29
 300 800 l 29
 300 750 l 29
 262 750 l 29x00040080
38 750 m 29x000420
 38 800 l 5
 75 800 l 29
 75 750 l 5
 38 750 l 29x000420
-75 750 m 29x0006
 -75 800 l 5
 -38 800 l 29
 -38 750 l 5
 -75 750 l 29x0006
-38 650 m 29x0009
 -38 700 l 5
 0 700 l 29
 0 650 l 5
 -38 650 l 29x0009
EndSplineSet
Validated: 5
EndChar

StartChar: uni26C4
Encoding: 9924 9924 221
Width: 450
Flags: W
HStem: -100 100<-31 44 306 381> 100 100<6 44 306 344> 200 100<119 156 194 231> 400 100<6 44 119 156 194 231 306 344> 500 100<-31 6 44 81 269 306 344 381> 600 200<119 231>
VStem: -31 37<500 600> 6 75<100 200> 6 38<400 500> 44 75<300 400 500 600> 81 75<400 500> 194 75<400 500> 231 75<300 400 500 600> 269 75<100 200> 306 38<400 500> 344 37<500 600>
LayerCount: 2
Back
Fore
SplineSet
119 500 m 29xb448
 156 500 l 29
 156 400 l 29xb420
 119 400 l 29
 119 300 l 29xb440
 156 300 l 29
 156 200 l 29xb420
 81 200 l 29xb5
 81 100 l 29
 269 100 l 29xc104
 269 200 l 29xa104
 194 200 l 29
 194 300 l 29xa010
 231 300 l 29
 231 400 l 29xb008
 194 400 l 29
 194 500 l 29xb010
 231 500 l 29
 231 600 l 29
 119 600 l 29
 119 500 l 29xb448
-31 -100 m 29xd224
 -31 0 l 29
 44 0 l 29
 44 100 l 29xd240
 6 100 l 29
 6 200 l 29xd1
 44 200 l 29xd040
 44 400 l 29
 81 400 l 29xd0a0
 81 500 l 29x88a0
 44 500 l 29x90a0
 44 600 l 29x8840
 81 600 l 29
 81 700 l 29x8820
 119 700 l 29
 119 800 l 29
 231 800 l 29
 231 700 l 29x8448
 269 700 l 29
 269 600 l 29x8804
 306 600 l 29x8808
 306 500 l 29x9008
 269 500 l 29x8810
 269 400 l 29x9010
 306 400 l 29x9008
 306 200 l 29xd002
 344 200 l 5
 344 100 l 29xd004
 306 100 l 5
 306 0 l 29xd002
 381 0 l 29
 381 -100 l 29xd001
 269 -100 l 29
 269 0 l 29
 81 0 l 29
 81 -100 l 29
 -31 -100 l 29xd224
6 500 m 29
 44 500 l 29
 44 400 l 29
 6 400 l 29x9080
 6 500 l 29
-31 600 m 29x8a
 6 600 l 29x8a
 6 500 l 29x92
 -31 500 l 29
 -31 600 l 29x8a
306 400 m 29x9008
 306 500 l 29x9008
 344 500 l 29
 344 400 l 29x9002
 306 400 l 29x9008
344 500 m 29x9002
 344 600 l 29
 381 600 l 29
 381 500 l 29x8801
 344 500 l 29x9002
EndSplineSet
Validated: 5
EndChar

StartChar: uni2614
Encoding: 9748 9748 222
Width: 450
Flags: W
HStem: -100 100<38 112> 0 100<-38 0 300 338> 150 100<-75 -38 338 375> 250 100<0 38 262 300> 400 200<0 75 225 300> 400 100<-75 0 300 375> 600 100<-75 -38 338 375> 700 100<0 38 262 300>
VStem: -75 37<150 250 600 700> -38 38<0 100> 0 38<250 350 700 800> 38 112<-100 0> 75 150<600 700> 112 76<0 400> 262 38<250 350 700 800> 300 38<0 100> 338 37<150 250 600 700>
LayerCount: 2
Back
Fore
SplineSet
38 -100 m 29x8010
 38 0 l 25x8010
 112 0 l 25
 112 400 l 25
 -75 400 l 25
 -75 500 l 25
 0 500 l 25x84a4
 0 600 l 25
 75 600 l 25
 75 700 l 25
 225 700 l 25
 225 600 l 25
 300 600 l 25x09a9
 300 500 l 25x04a9
 375 500 l 25
 375 400 l 25
 188 400 l 25
 188 0 l 25x440480
 150 0 l 25x4410
 150 -100 l 25
 38 -100 l 29x8010
-38 0 m 1x4040
 -38 100 l 1
 0 100 l 1
 0 0 l 1
 -38 0 l 1x4040
300 0 m 1x4001
 300 100 l 1
 338 100 l 1
 338 0 l 1
 300 0 l 1x4001
-75 150 m 1x2080
 -75 250 l 1
 -38 250 l 1
 -38 150 l 1
 -75 150 l 1x2080
0 250 m 1x1020
 0 350 l 1
 38 350 l 1
 38 250 l 1
 0 250 l 1x1020
338 150 m 1x200080
 338 250 l 1
 375 250 l 1
 375 150 l 1
 338 150 l 1x200080
262 250 m 1x1002
 262 350 l 1
 300 350 l 1
 300 250 l 1
 262 250 l 1x1002
338 600 m 1x020080
 338 700 l 1
 375 700 l 1
 375 600 l 1
 338 600 l 1x020080
-75 600 m 1x0280
 -75 700 l 1
 -38 700 l 1
 -38 600 l 1
 -75 600 l 1x0280
262 700 m 1x0102
 262 800 l 1
 300 800 l 1
 300 700 l 1
 262 700 l 1x0102
0 700 m 1x0120
 0 800 l 1
 38 800 l 1
 38 700 l 1
 0 700 l 1x0120
EndSplineSet
Validated: 1
EndChar

StartChar: uni2669
Encoding: 9833 9833 223
Width: 450
Flags: W
HStem: 0 21G<31 219>
VStem: 31 188<0 100> 181 75<300 800>
LayerCount: 2
Back
Fore
SplineSet
31 100 m 29xc0
 -6 100 l 25
 -6 200 l 25
 31 200 l 25
 31 300 l 25xc0
 181 300 l 25
 181 800 l 25
 256 800 l 25
 256 100 l 25xa0
 219 100 l 25
 219 0 l 25
 31 0 l 25
 31 100 l 29xc0
EndSplineSet
Validated: 1
EndChar

StartChar: uni2757
Encoding: 10071 10071 225
Width: 450
Flags: W
HStem: 0 100<112 188> 680 20G<112 188>
VStem: 112 76<0 100 200 700>
LayerCount: 2
Back
Fore
SplineSet
112 700 m 29
 188 700 l 25
 188 200 l 25
 112 200 l 25
 112 700 l 29
188 0 m 25
 112 0 l 1
 112 100 l 25
 188 100 l 1
 188 0 l 25
EndSplineSet
Validated: 1
EndChar

StartChar: uni2753
Encoding: 10067 10067 226
Width: 450
Flags: W
HStem: 0 100<156 231> 200 100<156 231> 300 100<231 269> 600 100<81 269>
VStem: 6 75<400 600> 156 75<0 100 200 300> 231 75<300 400> 269 75<400 600>
LayerCount: 2
Back
Fore
SplineSet
156 300 m 1xdc
 231 300 l 1
 231 200 l 1
 156 200 l 1
 156 300 l 1xdc
231 0 m 25
 156 0 l 1
 156 100 l 25
 231 100 l 1
 231 0 l 25
6 600 m 25
 44 600 l 25
 44 700 l 25
 306 700 l 25
 306 600 l 25xba
 344 600 l 25
 344 400 l 25xb9
 306 400 l 25
 306 300 l 25xba
 231 300 l 25xdc
 231 400 l 25xba
 269 400 l 25
 269 600 l 25
 81 600 l 25
 81 400 l 25
 6 400 l 25xb9
 6 600 l 25
EndSplineSet
Validated: 5
EndChar

StartChar: uni2795
Encoding: 10133 10133 227
Width: 450
Flags: W
HStem: 250 100<0 112 188 300>
VStem: 112 76<50 250 350 550>
LayerCount: 2
Back
Fore
SplineSet
112 550 m 29
 188 550 l 25
 188 350 l 25
 300 350 l 25
 300 250 l 25
 188 250 l 25
 188 50 l 25
 112 50 l 25
 112 250 l 25
 0 250 l 25
 0 350 l 25
 112 350 l 25
 112 550 l 29
EndSplineSet
Validated: 1
EndChar

StartChar: uni2796
Encoding: 10134 10134 228
Width: 450
Flags: W
HStem: 250 100<0 300>
VStem: 0 300<250 350>
LayerCount: 2
Back
Fore
SplineSet
0 250 m 29
 0 350 l 25
 300 350 l 25
 300 250 l 25
 0 250 l 29
EndSplineSet
Validated: 1
EndChar

StartChar: uni231A
Encoding: 8986 8986 229
Width: 450
Flags: W
HStem: -100 200<338 562> 0 100<300 338 562 600> 300 100<488 562> 480 20G<412 488> 600 200<338 562> 600 100<300 338 562 600>
VStem: 188 74<200 500> 225 75<100 200 500 600> 338 224<-100 0 700 800> 412 150<300 400> 412 76<400 500> 600 75<100 200 500 600> 638 74<200 500>
LayerCount: 2
Back
Fore
SplineSet
412 500 m 29x3020
 488 500 l 25
 488 400 l 25x3020
 562 400 l 25
 562 300 l 25
 412 300 l 25x3040
 412 500 l 29x3020
300 600 m 25x7510
 300 500 l 25x7510
 262 500 l 25
 262 200 l 25x76
 300 200 l 25
 300 100 l 25
 600 100 l 25
 600 200 l 25x7510
 638 200 l 25
 638 500 l 25x7408
 600 500 l 25
 600 600 l 25
 300 600 l 25x7510
338 700 m 25x7680
 338 800 l 25
 562 800 l 25x3a80
 562 700 l 25
 638 700 l 25
 638 600 l 25x3688
 675 600 l 25
 675 500 l 25x3410
 712 500 l 25
 712 200 l 25x3408
 675 200 l 25
 675 100 l 25x7410
 638 100 l 25
 638 0 l 25
 562 0 l 25x7488
 562 -100 l 25
 338 -100 l 25xb088
 338 0 l 25
 262 0 l 25
 262 100 l 25x7288
 225 100 l 25
 225 200 l 25x71
 188 200 l 25
 188 500 l 25x72
 225 500 l 25
 225 600 l 25x75
 262 600 l 25
 262 700 l 25
 338 700 l 25x7680
EndSplineSet
Validated: 1
EndChar

StartChar: uni2797
Encoding: 10135 10135 230
Width: 450
Flags: W
HStem: 100 100<112 188> 300 100<0 300> 500 100<112 188>
VStem: 112 76<100 200 500 600>
CounterMasks: 1 e0
LayerCount: 2
Back
Fore
SplineSet
112 100 m 29
 112 200 l 25
 188 200 l 25
 188 100 l 25
 112 100 l 29
0 300 m 25
 0 400 l 25
 300 400 l 25
 300 300 l 25
 0 300 l 25
112 500 m 25
 112 600 l 25
 188 600 l 25
 188 500 l 25
 112 500 l 25
EndSplineSet
Validated: 1
EndChar

StartChar: uni25B6
Encoding: 9654 9654 231
Width: 450
Flags: HMW
LayerCount: 2
Back
Fore
SplineSet
6 0 m 29
 6 700 l 25
 119 700 l 25
 119 600 l 25
 194 600 l 25
 194 500 l 25
 269 500 l 25
 269 400 l 25
 344 400 l 25
 344 300 l 25
 269 300 l 25
 269 200 l 25
 194 200 l 25
 194 100 l 25
 119 100 l 25
 119 0 l 25
 6 0 l 29
EndSplineSet
Validated: 1
EndChar

StartChar: uni25C0
Encoding: 9664 9664 232
Width: 450
Flags: HMW
LayerCount: 2
Back
Fore
SplineSet
231 0 m 29
 231 100 l 25
 156 100 l 25
 156 200 l 25
 81 200 l 25
 81 300 l 25
 6 300 l 25
 6 400 l 25
 81 400 l 25
 81 500 l 25
 156 500 l 25
 156 600 l 25
 231 600 l 25
 231 700 l 25
 344 700 l 25
 344 0 l 25
 231 0 l 29
EndSplineSet
Validated: 1
EndChar

StartChar: H18543
Encoding: 9642 9642 233
Width: 450
Flags: HMW
LayerCount: 2
Back
Fore
SplineSet
31 100 m 29
 31 400 l 25
 219 400 l 25
 219 100 l 25
 31 100 l 29
EndSplineSet
Validated: 1
EndChar

StartChar: triagup
Encoding: 9650 9650 234
Width: 450
Flags: HMW
LayerCount: 2
Back
Fore
SplineSet
-38 100 m 29
 -38 200 l 29
 0 200 l 29
 0 300 l 29
 38 300 l 29
 38 400 l 29
 75 400 l 29
 75 500 l 29
 112 500 l 29
 112 600 l 29
 188 600 l 29
 188 500 l 29
 225 500 l 29
 225 400 l 29
 262 400 l 29
 262 300 l 29
 300 300 l 29
 300 200 l 29
 338 200 l 29
 338 100 l 29
 -38 100 l 29
EndSplineSet
Validated: 1
EndChar

StartChar: triagdn
Encoding: 9660 9660 235
Width: 450
Flags: HMW
LayerCount: 2
Back
Fore
SplineSet
-38 500 m 29
 -38 600 l 25
 338 600 l 25
 338 500 l 25
 300 500 l 25
 300 400 l 25
 262 400 l 25
 262 300 l 25
 225 300 l 25
 225 200 l 25
 188 200 l 25
 188 100 l 25
 112 100 l 25
 112 200 l 25
 75 200 l 25
 75 300 l 25
 38 300 l 25
 38 400 l 25
 0 400 l 25
 0 500 l 25
 -38 500 l 29
EndSplineSet
Validated: 1
EndChar

StartChar: H18551
Encoding: 9643 9643 236
Width: 450
Flags: W
HStem: 100 100<69 181> 300 100<69 181>
VStem: 31 38<200 300> 181 38<200 300>
LayerCount: 2
Back
Fore
SplineSet
69 200 m 29
 181 200 l 25
 181 300 l 25
 69 300 l 25
 69 200 l 29
31 100 m 25
 31 400 l 25
 219 400 l 25
 219 100 l 25
 31 100 l 25
EndSplineSet
Validated: 1
EndChar

StartChar: uni231B
Encoding: 8987 8987 237
Width: 450
Flags: W
HStem: -100 200<344 419 531 606> -100 100<231 269 681 719> 200 100<344 381 569 606> 400 100<344 381 569 606> 600 200<344 606> 700 100<231 269 681 719>
VStem: 269 75<100 200 500 600> 306 150<400 500> 306 113<200 300> 419 112<100 200> 494 150<400 500> 531 113<200 300> 606 75<100 200 500 600>
LayerCount: 2
Back
Fore
SplineSet
531 100 m 29xb048
 606 100 l 25
 606 200 l 25
 531 200 l 25
 531 100 l 29xb048
419 300 m 25x3090
 419 200 l 25x3090
 531 200 l 25x3040
 531 300 l 25
 419 300 l 25x3090
344 100 m 25xb2
 419 100 l 25xb240
 419 200 l 25xb080
 344 200 l 25
 344 100 l 25xb2
456 400 m 25x39
 494 400 l 25
 494 500 l 25x3920
 606 500 l 25
 606 600 l 25
 344 600 l 25
 344 500 l 25x3a08
 456 500 l 25
 456 400 l 25x39
231 -100 m 25x7408
 231 0 l 25
 269 0 l 25
 269 200 l 25x7608
 306 200 l 25
 306 300 l 25x7480
 381 300 l 25
 381 400 l 25
 306 400 l 25
 306 500 l 25x75
 269 500 l 25
 269 700 l 25
 231 700 l 25
 231 800 l 25
 719 800 l 25
 719 700 l 25
 681 700 l 25
 681 500 l 25x7608
 644 500 l 25
 644 400 l 25x7420
 569 400 l 25
 569 300 l 25
 644 300 l 25
 644 200 l 25x7410
 681 200 l 25
 681 0 l 25
 719 0 l 25
 719 -100 l 25
 231 -100 l 25x7408
EndSplineSet
Validated: 5
EndChar

StartChar: uni23F3
Encoding: 9203 9203 238
Width: 450
Flags: W
HStem: -100 200<344 606> -100 100<231 269 681 719> 200 100<344 381 569 606> 400 100<344 381 569 606> 600 200<344 419 531 606> 700 100<231 269 681 719>
VStem: 269 75<100 200 500 600> 306 150<200 300> 306 113<400 500> 419 112<500 600> 494 150<200 300> 531 113<400 500> 606 75<100 200 500 600>
LayerCount: 2
Back
Fore
SplineSet
344 100 m 29xb2
 606 100 l 25
 606 200 l 25xb208
 494 200 l 25
 494 300 l 25
 456 300 l 25
 456 200 l 25xb120
 344 200 l 25
 344 100 l 29xb2
531 500 m 25x3848
 606 500 l 25
 606 600 l 25
 531 600 l 25
 531 500 l 25x3848
419 400 m 25x3080
 531 400 l 25x3090
 531 500 l 25x3040
 419 500 l 25
 419 400 l 25x3080
344 500 m 25x3a40
 419 500 l 25x3880
 419 600 l 25
 344 600 l 25
 344 500 l 25x3a40
231 -100 m 25x7408
 231 0 l 25
 269 0 l 25
 269 200 l 25x7608
 306 200 l 25
 306 300 l 25x75
 381 300 l 25
 381 400 l 25
 306 400 l 25
 306 500 l 25x7480
 269 500 l 25
 269 700 l 25
 231 700 l 25
 231 800 l 25
 719 800 l 25
 719 700 l 25
 681 700 l 25
 681 500 l 25x7608
 644 500 l 25
 644 400 l 25x7410
 569 400 l 25
 569 300 l 25
 644 300 l 25
 644 200 l 25x7420
 681 200 l 25
 681 0 l 25
 719 0 l 25
 719 -100 l 25
 231 -100 l 25x7408
EndSplineSet
Validated: 5
EndChar

StartChar: uni26D4
Encoding: 9940 9940 239
Width: 450
Flags: W
HStem: -100 400<300 600> 400 400<300 600>
VStem: 150 112<300 400> 300 300<-100 0 700 800> 638 112<300 400>
CounterMasks: 1 38
LayerCount: 2
Back
Fore
SplineSet
262 300 m 29
 638 300 l 25
 638 400 l 25
 262 400 l 25
 262 300 l 29
300 -100 m 25
 300 0 l 25
 225 0 l 25
 225 100 l 25
 188 100 l 25
 188 200 l 25
 150 200 l 25
 150 500 l 25
 188 500 l 25
 188 600 l 25
 225 600 l 25
 225 700 l 25
 300 700 l 25
 300 800 l 25
 600 800 l 25
 600 700 l 25
 675 700 l 25
 675 600 l 25
 712 600 l 25
 712 500 l 25
 750 500 l 25
 750 200 l 25
 712 200 l 25
 712 100 l 25
 675 100 l 25
 675 0 l 25
 600 0 l 25
 600 -100 l 25
 300 -100 l 25
EndSplineSet
Validated: 1
EndChar

StartChar: uni26C5
Encoding: 9925 9925 240
Width: 450
Flags: W
HStem: 0 21G<0 338> 100 100<-75 -38 338 375> 500 100<0 75>
VStem: -75 75<300 500> -38 150<500 600> 38 150<300 400> 75 75<400 500>
LayerCount: 2
Back
Fore
SplineSet
38 300 m 29xf4
 38 400 l 25xf4
 75 400 l 25
 75 500 l 25xe2
 0 500 l 25
 0 300 l 25
 38 300 l 29xf4
-75 300 m 25
 -75 500 l 25xf0
 -38 500 l 25
 -38 600 l 25
 112 600 l 25
 112 500 l 25xe8
 150 500 l 25
 150 400 l 25xe2
 188 400 l 25
 188 300 l 25
 300 300 l 25
 300 200 l 25
 375 200 l 25
 375 100 l 25
 338 100 l 25
 338 0 l 25
 0 0 l 25
 0 100 l 25
 -75 100 l 25
 -75 200 l 25xf4
 -38 200 l 25
 -38 300 l 25xe8
 -75 300 l 25
EndSplineSet
Validated: 1
EndChar

StartChar: musicalnote
Encoding: 9834 9834 241
Width: 450
Flags: W
HStem: 0 21G<-44 144> 700 100<181 219>
VStem: -44 188<0 100> 106 150<700 800> 106 75<300 700> 219 75<600 700> 256 75<400 600>
LayerCount: 2
Back
Fore
SplineSet
-44 0 m 29xe0
 -44 100 l 25
 -81 100 l 25
 -81 200 l 25
 -44 200 l 25
 -44 300 l 25xe0
 106 300 l 25xc8
 106 800 l 25
 256 800 l 25
 256 700 l 25xd0
 294 700 l 25
 294 600 l 25xc4
 331 600 l 25
 331 400 l 25
 256 400 l 25
 256 600 l 25xc2
 219 600 l 25
 219 700 l 25
 181 700 l 25
 181 100 l 25xcc
 144 100 l 25
 144 0 l 25
 -44 0 l 29xe0
EndSplineSet
Validated: 1
EndChar

StartChar: musicalnotedbl
Encoding: 9835 9835 242
Width: 450
Flags: W
HStem: 0 300<181 294 519 631> 100 100<144 181 481 519> 700 100<369 631>
VStem: 181 150<0 100> 294 75<300 700> 519 150<0 100> 631 75<300 700>
LayerCount: 2
Back
Fore
SplineSet
144 100 m 29x70
 144 200 l 5
 181 200 l 29x70
 181 300 l 29xb0
 294 300 l 29xa8
 294 800 l 29
 706 800 l 29
 706 100 l 29x6a
 669 100 l 29x64
 669 0 l 29
 519 0 l 29xa4
 519 100 l 29
 481 100 l 29
 481 200 l 29
 519 200 l 29x64
 519 300 l 29xa4
 631 300 l 29xa2
 631 700 l 29
 369 700 l 29
 369 100 l 29x6a
 331 100 l 29x70
 331 0 l 29
 181 0 l 29xb0
 181 100 l 5
 144 100 l 29x70
EndSplineSet
Validated: 1
EndChar

StartChar: uni266C
Encoding: 9836 9836 243
Width: 450
Flags: W
HStem: 0 300<181 294 519 631> 100 100<144 181 481 519> 500 100<369 631> 700 100<369 631>
VStem: 181 150<0 100> 294 75<300 500 600 700> 519 150<0 100> 631 75<300 500 600 700>
LayerCount: 2
Back
Fore
SplineSet
369 600 m 1x35
 631 600 l 29
 631 700 l 1
 369 700 l 25
 369 600 l 1x35
144 100 m 25x78
 144 200 l 1
 181 200 l 25x78
 181 300 l 25xb8
 294 300 l 25xb4
 294 800 l 25
 706 800 l 25
 706 100 l 25x75
 669 100 l 25x72
 669 0 l 25
 519 0 l 25xb2
 519 100 l 25
 481 100 l 25
 481 200 l 25
 519 200 l 25x72
 519 300 l 25xb2
 631 300 l 1xb1
 631 500 l 1
 369 500 l 1
 369 100 l 1x75
 331 100 l 25x78
 331 0 l 25
 181 0 l 25xb8
 181 100 l 1
 144 100 l 25x78
EndSplineSet
Validated: 1
EndChar

StartChar: Idieresis
Encoding: 207 207 244
Width: 450
Flags: W
HStem: 0 100<0 112 188 300> 600 100<0 112 188 300>
VStem: 0 300<0 100 600 700> 112 76<100 600>
LayerCount: 2
Back
Fore
SplineSet
0 700 m 29xe0
 300 700 l 25
 300 600 l 25xe0
 188 600 l 25
 188 100 l 25xd0
 300 100 l 25
 300 0 l 25
 0 0 l 25
 0 100 l 25xe0
 112 100 l 25
 112 600 l 25xd0
 0 600 l 25
 0 700 l 29xe0
EndSplineSet
Validated: 1
EndChar

StartChar: idieresis
Encoding: 239 239 245
Width: 450
Flags: W
HStem: 0 100<38 112 187 262> 480 20G<75 188> 600 100<75 188>
VStem: 75 113<400 500 600 700> 112 76<100 400>
LayerCount: 2
Back
Fore
SplineSet
75 500 m 1xf0
 188 500 l 25xf0
 187 100 l 25
 262 100 l 25
 262 0 l 25
 38 0 l 25
 38 100 l 25
 112 100 l 25
 112 400 l 1xe8
 75 400 l 29
 75 500 l 1xf0
75 700 m 25
 188 700 l 25
 188 600 l 25
 75 600 l 25
 75 700 l 25
EndSplineSet
Validated: 1
EndChar

StartChar: onequarter
Encoding: 188 188 246
Width: 450
Flags: W
HStem: -200 21G<262 338> -100 100<188 262> 500 100<-38 0> 680 20G<0 75>
VStem: -38 113<500 600> 0 75<200 500 600 700> 112 76<0 100> 150 75<100 200> 188 74<200 300> 262 76<-200 -100 0 100>
LayerCount: 2
Back
Fore
SplineSet
188 200 m 29xf080
 188 300 l 29
 262 300 l 29
 262 200 l 29xf080
 225 200 l 29
 225 100 l 29xf1
 188 100 l 29
 188 0 l 29
 262 0 l 29
 262 100 l 29
 338 100 l 29
 338 -200 l 29
 262 -200 l 29
 262 -100 l 29
 112 -100 l 29
 112 100 l 29xf240
 150 100 l 29
 150 200 l 29xf1
 188 200 l 29xf080
0 600 m 25xf4
 0 700 l 25
 75 700 l 25
 75 200 l 25
 0 200 l 25
 0 500 l 25xf4
 -38 500 l 25
 -38 600 l 25xf8
 0 600 l 25xf4
EndSplineSet
Validated: 1
EndChar

StartChar: onehalf
Encoding: 189 189 247
Width: 450
Flags: W
HStem: -200 100<112 150 225 338> 100 100<112 150 300 338> 200 100<188 262> 500 100<-38 0> 680 20G<0 75>
VStem: -38 113<500 600> 0 75<200 500 600 700> 112 76<100 200> 150 75<-100 0> 225 75<0 100> 262 76<100 200>
LayerCount: 2
Back
Fore
SplineSet
112 100 m 29xd920
 112 200 l 25xd920
 150 200 l 25xd880
 150 300 l 25xb880
 300 300 l 25xb840
 300 200 l 25xd840
 338 200 l 25
 338 100 l 25xd820
 300 100 l 25
 300 0 l 25xd840
 225 0 l 25
 225 -100 l 25xd880
 338 -100 l 25
 338 -200 l 25
 112 -200 l 25
 112 -100 l 25xd920
 150 -100 l 25
 150 0 l 25
 225 0 l 25xd880
 225 100 l 25xd840
 262 100 l 25xd820
 262 200 l 25
 188 200 l 25xb920
 188 100 l 25
 112 100 l 29xd920
0 600 m 25xba
 0 700 l 25
 75 700 l 25
 75 200 l 25
 0 200 l 25
 0 500 l 25xba
 -38 500 l 25
 -38 600 l 25xbc
 0 600 l 25xba
EndSplineSet
Validated: 5
EndChar

StartChar: threequarters
Encoding: 190 190 248
Width: 450
Flags: W
HStem: -200 21G<306 381> -100 100<231 306> 200 100<-31 81 269 306> 400 100<6 81> 600 100<-31 81>
VStem: -31 150<200 300> 6 113<400 500> 81 75<300 400 500 600> 156 75<0 100> 194 75<100 200> 231 75<200 300> 306 75<-200 -100 0 100>
LayerCount: 2
Back
Fore
SplineSet
231 200 m 25xf820
 231 300 l 25
 306 300 l 25
 306 200 l 25xf820
 269 200 l 25
 269 100 l 25xf840
 231 100 l 25
 231 0 l 25
 306 0 l 25
 306 100 l 25
 381 100 l 25
 381 -200 l 25
 306 -200 l 25
 306 -100 l 25
 156 -100 l 25
 156 100 l 25xf890
 194 100 l 25
 194 200 l 25xf840
 231 200 l 25xf820
-31 600 m 1xfc
 -31 700 l 1
 156 700 l 1xfc80
 156 500 l 25xf9
 119 500 l 25
 119 400 l 25xfa
 156 400 l 25
 156 300 l 25xf9
 119 300 l 25
 119 200 l 1
 -31 200 l 1
 -31 300 l 1xfc
 81 300 l 1
 81 400 l 25xf9
 6 400 l 25
 6 500 l 25xfa
 81 500 l 25
 81 600 l 1xf9
 -31 600 l 1xfc
EndSplineSet
Validated: 1
EndChar

StartChar: udieresis
Encoding: 252 252 249
Width: 450
Flags: W
HStem: 0 100<81 231> 100 100<231 269> 480 20G<6 81 269 344>
VStem: 6 75<100 500> 231 113<100 200> 269 75<0 100 200 500>
LayerCount: 2
Back
Fore
SplineSet
6 500 m 29x78
 81 500 l 25
 81 100 l 25
 231 100 l 25xb8
 231 200 l 25x78
 269 200 l 25x74
 269 500 l 25
 344 500 l 25
 344 0 l 25
 269 0 l 25xb4
 269 100 l 25x74
 231 100 l 25
 231 0 l 25
 44 0 l 25xb8
 44 100 l 25
 6 100 l 25
 6 500 l 29x78
EndSplineSet
Validated: 5
EndChar

StartChar: oslash
Encoding: 248 248 250
Width: 450
Flags: W
HStem: 0 100<81 269> 400 100<81 269>
VStem: 6 75<100 400> 44 262<0 100 400 500> 269 75<100 400>
LayerCount: 2
Back
Fore
SplineSet
81 400 m 29xe8
 81 100 l 25
 269 100 l 25
 269 400 l 25
 81 400 l 29xe8
44 500 m 25xd0
 306 500 l 25
 306 400 l 25xd0
 344 400 l 25
 344 100 l 25xc8
 306 100 l 25
 306 0 l 25
 44 0 l 25
 44 100 l 25xd0
 6 100 l 25
 6 400 l 25xe0
 44 400 l 25
 44 500 l 25xd0
EndSplineSet
Validated: 1
EndChar

StartChar: copyright
Encoding: 169 169 251
Width: 450
Flags: W
HStem: 0 100<38 262> 200 100<112 225> 400 100<112 225> 600 100<38 262>
VStem: -75 75<200 500> -38 76<100 200 500 600> 0 300<0 100 600 700> 38 74<300 400> 75 150<200 300 400 500> 262 76<100 200 500 600> 300 75<200 500>
LayerCount: 2
Back
Fore
SplineSet
75 400 m 29xf080
 75 500 l 1
 225 500 l 25
 225 400 l 25xf080
 112 400 l 25
 112 300 l 25xf1
 225 300 l 25
 225 200 l 25
 75 200 l 25
 75 300 l 25xf080
 38 300 l 25
 38 400 l 1xf1
 75 400 l 29xf080
38 500 m 25xf440
 0 500 l 25
 0 200 l 25xf8
 38 200 l 25
 38 100 l 25
 262 100 l 25
 262 200 l 25xf440
 300 200 l 25
 300 500 l 25xf020
 262 500 l 25
 262 600 l 25
 38 600 l 25
 38 500 l 25xf440
0 600 m 25xf2
 0 700 l 25
 300 700 l 25
 300 600 l 25xf2
 338 600 l 25
 338 500 l 25xf040
 375 500 l 25
 375 200 l 25xf020
 338 200 l 25
 338 100 l 25xf040
 300 100 l 25
 300 0 l 25
 0 0 l 25
 0 100 l 25xf2
 -38 100 l 25
 -38 200 l 25xf4
 -75 200 l 25
 -75 500 l 25xf8
 -38 500 l 25
 -38 600 l 25xf4
 0 600 l 25xf2
EndSplineSet
Validated: 1
EndChar

StartChar: registered
Encoding: 174 174 252
Width: 450
Flags: W
HStem: 0 100<38 262> 200 100<188 262> 480 20G<75 225> 600 100<38 262>
VStem: -75 75<200 500> -38 76<100 200 500 600> 0 300<0 100 600 700> 75 150<400 500> 75 113<300 400> 75 75<200 300> 188 74<200 300> 262 76<100 200 500 600> 300 75<200 500>
LayerCount: 2
Back
Fore
SplineSet
75 200 m 29xf040
 75 500 l 25
 225 500 l 25
 225 400 l 25xf1
 188 400 l 25
 188 300 l 25xf080
 262 300 l 25
 262 200 l 25
 188 200 l 25xf020
 188 300 l 25xf080
 150 300 l 25
 150 200 l 25
 75 200 l 29xf040
38 500 m 25xf410
 0 500 l 25
 0 200 l 25xf8
 38 200 l 25
 38 100 l 25
 262 100 l 25xf410
 262 200 l 25
 300 200 l 25
 300 500 l 25xf028
 262 500 l 25
 262 600 l 25
 38 600 l 25
 38 500 l 25xf410
0 600 m 25xf2
 0 700 l 25
 300 700 l 25
 300 600 l 25xf2
 338 600 l 25
 338 500 l 25xf010
 375 500 l 25
 375 200 l 25xf008
 338 200 l 25
 338 100 l 25xf010
 300 100 l 25
 300 0 l 25
 0 0 l 25
 0 100 l 25xf2
 -38 100 l 25
 -38 200 l 25xf4
 -75 200 l 25
 -75 500 l 25xf8
 -38 500 l 25
 -38 600 l 25xf4
 0 600 l 25xf2
EndSplineSet
Validated: 5
EndChar

StartChar: uni00B2
Encoding: 178 178 253
Width: 450
Flags: W
HStem: 300 100<38 75 150 262> 500 100<150 188> 600 100<38 75 225 262> 700 100<112 188>
VStem: 38 74<600 700> 75 75<400 500> 150 75<500 600> 188 74<600 700>
LayerCount: 2
Back
Fore
SplineSet
75 700 m 29xa4
 75 800 l 25x94
 225 800 l 25x92
 225 700 l 25xa2
 262 700 l 25
 262 600 l 25xa1
 225 600 l 25xa2
 225 500 l 25xc2
 150 500 l 25
 150 400 l 25xc4
 262 400 l 25
 262 300 l 25
 38 300 l 25
 38 400 l 25xc9
 75 400 l 25
 75 500 l 25
 150 500 l 25xc4
 150 600 l 25xc2
 188 600 l 25
 188 700 l 25
 112 700 l 25xd9
 112 600 l 25
 38 600 l 25
 38 700 l 25xa9
 75 700 l 29xa4
EndSplineSet
Validated: 5
EndChar

StartChar: uni00B3
Encoding: 179 179 254
Width: 450
Flags: W
HStem: 300 100<38 188> 500 100<112 188> 700 100<38 188>
VStem: 38 187<300 400> 112 113<500 600> 188 74<400 500 600 700>
CounterMasks: 1 e0
LayerCount: 2
Back
Fore
SplineSet
38 700 m 29xf0
 38 800 l 29xf0
 262 800 l 29
 262 600 l 29xe4
 225 600 l 29
 225 500 l 29xe8
 262 500 l 29
 262 400 l 29xe4
 225 400 l 29
 225 300 l 29
 38 300 l 29
 38 400 l 29xf0
 188 400 l 29
 188 500 l 29xe4
 112 500 l 29
 112 600 l 29xe8
 188 600 l 29
 188 700 l 29xe4
 38 700 l 29xf0
EndSplineSet
Validated: 1
EndChar

StartChar: uni00B9
Encoding: 185 185 255
Width: 450
Flags: W
VStem: 119 112<600 700> 156 75<400 600 700 800>
LayerCount: 2
Back
Fore
SplineSet
156 700 m 29x40
 156 800 l 25
 231 800 l 25
 231 400 l 25
 156 400 l 25
 156 600 l 25x40
 119 600 l 25
 119 700 l 25x80
 156 700 l 29x40
EndSplineSet
Validated: 1
EndChar

StartChar: Euro
Encoding: 8364 8364 256
Width: 450
Flags: W
HStem: 0 100<112 262> 100 100<300 338> 200 100<-38 0 112 225> 400 100<-38 0 112 225> 500 100<300 338> 600 100<112 262>
VStem: -38 263<200 300 400 500> 38 74<100 200 500 600> 75 225<0 100 600 700> 262 76<100 200 500 600>
LayerCount: 2
Back
Fore
SplineSet
112 500 m 29x1540
 225 500 l 25
 225 400 l 25x16
 75 400 l 25
 75 300 l 25x3480
 225 300 l 25
 225 200 l 25x36
 112 200 l 25
 112 100 l 25
 262 100 l 25
 262 200 l 25xb540
 338 200 l 25
 338 100 l 25x4140
 300 100 l 25x4080
 300 0 l 25
 75 0 l 25x8080
 75 100 l 25x4080
 38 100 l 25x41
 38 200 l 25x21
 -38 200 l 25
 -38 300 l 25
 0 300 l 25
 0 400 l 25
 -38 400 l 25
 -38 500 l 25x32
 38 500 l 25x09
 38 600 l 25x05
 75 600 l 25
 75 700 l 25
 300 700 l 25x0480
 300 600 l 25x0880
 338 600 l 25
 338 500 l 25
 262 500 l 25x0840
 262 600 l 25
 112 600 l 25
 112 500 l 29x1540
EndSplineSet
Validated: 1
EndChar

StartChar: uni20B4
Encoding: 8372 8372 257
Width: 450
Flags: W
HStem: 0 100<81 269> 100 100<306 344> 300 100<81 269> 500 100<6 44> 600 100<81 269>
VStem: 6 75<100 300 500 600> 44 262<0 100 300 400 600 700> 269 75<100 200 400 600>
LayerCount: 2
Back
Fore
SplineSet
6 500 m 29x35
 6 600 l 25x35
 44 600 l 25x32
 44 700 l 25
 306 700 l 25
 306 600 l 25x2a
 344 600 l 25
 344 400 l 25x29
 306 400 l 25
 306 300 l 25x2a
 81 300 l 25
 81 100 l 25
 269 100 l 25xad
 269 200 l 25
 344 200 l 25
 344 100 l 25x65
 306 100 l 25x62
 306 0 l 25
 44 0 l 25xa2
 44 100 l 25x62
 6 100 l 25
 6 300 l 25x64
 44 300 l 25
 44 400 l 25x62
 269 400 l 25
 269 600 l 25
 81 600 l 25x6d
 81 500 l 25
 6 500 l 29x35
EndSplineSet
Validated: 1
EndChar

StartChar: radical
Encoding: 8730 8730 258
Width: 450
Flags: W
HStem: 0 21G<0 112> 600 100<188 375>
VStem: -75 75<200 400> -38 76<100 200> 75 75<100 300> 112 76<300 600>
LayerCount: 2
Back
Fore
SplineSet
-75 200 m 29xe0
 -75 400 l 25
 0 400 l 25
 0 200 l 25xe0
 38 200 l 25
 38 100 l 25
 75 100 l 25
 75 300 l 25xd8
 112 300 l 25
 112 600 l 25xc4
 150 600 l 25
 150 700 l 25xc8
 375 700 l 25
 375 600 l 25
 188 600 l 25
 188 300 l 25xc4
 150 300 l 25
 150 100 l 25xc8
 112 100 l 25
 112 0 l 25
 0 0 l 25
 0 100 l 25xe4
 -38 100 l 25
 -38 200 l 25xd0
 -75 200 l 29xe0
EndSplineSet
Validated: 1
EndChar

StartChar: infinity
Encoding: 8734 8734 259
Width: 450
Flags: W
HStem: 100 100<269 381 569 681> 300 100<456 494> 500 100<269 381 569 681>
VStem: 194 75<200 500> 231 188<100 200 500 600> 381 75<200 300 400 500> 494 75<200 300 400 500> 531 188<100 200 500 600> 681 75<200 500>
CounterMasks: 1 e0
LayerCount: 2
Back
Fore
SplineSet
531 300 m 29xe1
 569 300 l 25
 569 200 l 25
 681 200 l 25
 681 500 l 25
 569 500 l 25
 569 400 l 25xe280
 531 400 l 25
 531 300 l 29xe1
269 200 m 25xf4
 381 200 l 25
 381 300 l 25xf4
 419 300 l 25
 419 400 l 25xe8
 381 400 l 25
 381 500 l 25
 269 500 l 25
 269 200 l 25xf4
194 200 m 25
 194 500 l 25xf0
 231 500 l 25
 231 600 l 25
 419 600 l 25
 419 500 l 25xe8
 456 500 l 25
 456 400 l 25
 494 400 l 25
 494 500 l 25xe6
 531 500 l 25
 531 600 l 25
 719 600 l 25
 719 500 l 25xe1
 756 500 l 25
 756 200 l 25xe080
 719 200 l 25
 719 100 l 25
 531 100 l 25
 531 200 l 25xe1
 494 200 l 25
 494 300 l 25
 456 300 l 25
 456 200 l 25xe6
 419 200 l 25
 419 100 l 25
 231 100 l 25
 231 200 l 25xe8
 194 200 l 25
EndSplineSet
Validated: 1
EndChar

StartChar: uni2B50
Encoding: 11088 11088 260
Width: 450
Flags: W
HStem: 0 100<-38 0 300 338> 400 200<0 75 225 300> 500 100<-75 0 300 375>
VStem: -38 76<0 100> 0 112<100 200> 75 150<300 400 600 700> 188 112<100 200> 262 76<0 100>
LayerCount: 2
Back
Fore
SplineSet
-38 0 m 29xd0
 -38 100 l 25xd0
 0 100 l 25
 0 200 l 25xc8
 38 200 l 25
 38 300 l 25
 75 300 l 25
 75 400 l 25xd4
 0 400 l 25xc8
 0 500 l 25
 -75 500 l 25
 -75 600 l 25xa8
 75 600 l 25
 75 700 l 25xc4
 112 700 l 25
 112 800 l 25
 188 800 l 25
 188 700 l 25xca
 225 700 l 25
 225 600 l 25xc4
 375 600 l 25
 375 500 l 25
 300 500 l 25xa2
 300 400 l 25xc2
 225 400 l 25
 225 300 l 25
 262 300 l 25
 262 200 l 25xc5
 300 200 l 25
 300 100 l 25xc2
 338 100 l 25
 338 0 l 25
 262 0 l 25
 262 100 l 25xc1
 188 100 l 25
 188 200 l 25
 112 200 l 25
 112 100 l 25xca
 38 100 l 25
 38 0 l 25
 -38 0 l 29xd0
EndSplineSet
Validated: 1
EndChar

StartChar: uni274C
Encoding: 10060 10060 261
Width: 450
Flags: W
HStem: 100 100<-38 38 262 338> 200 100<38 75 225 262> 400 100<38 75 225 262> 500 100<-38 38 262 338>
VStem: -38 76<100 200 500 600> 38 74<200 300 400 500> 188 74<200 300 400 500> 262 76<100 200 500 600>
LayerCount: 2
Back
Fore
SplineSet
38 400 m 29x64
 38 500 l 25x68
 112 500 l 25x14
 112 400 l 25
 188 400 l 25x26
 188 500 l 25x16
 262 500 l 25x26
 262 600 l 25
 338 600 l 25
 338 500 l 25x11
 262 500 l 25
 262 400 l 25
 225 400 l 25
 225 300 l 25
 262 300 l 25x62
 262 200 l 25x82
 338 200 l 25
 338 100 l 25
 262 100 l 25x81
 262 200 l 25x82
 188 200 l 25
 188 300 l 25
 112 300 l 25
 112 200 l 25x46
 38 200 l 25
 38 100 l 25
 -38 100 l 25
 -38 200 l 25
 38 200 l 25x88
 38 300 l 25
 75 300 l 25
 75 400 l 25
 38 400 l 29x64
-38 500 m 25x18
 -38 600 l 25
 38 600 l 25x18
 38 500 l 25x28
 -38 500 l 25x18
EndSplineSet
Validated: 5
EndChar

StartChar: uni2713
Encoding: 10003 10003 262
Width: 450
Flags: W
HStem: 0 100<81 119> 680 20G<306 381>
VStem: -31 75<200 300> 6 75<100 200> 119 75<100 200> 156 75<200 300> 194 75<300 400> 231 75<400 500> 269 75<500 600> 306 75<600 700>
LayerCount: 2
Back
Fore
SplineSet
-31 200 m 29xe0
 -31 300 l 1
 44 300 l 25
 44 200 l 25xe0
 81 200 l 25
 81 100 l 25
 119 100 l 25
 119 200 l 25xd8
 156 200 l 25
 156 300 l 25xc4
 194 300 l 25
 194 400 l 25xc2
 231 400 l 25
 231 500 l 25xc1
 269 500 l 25
 269 600 l 25xc080
 306 600 l 25
 306 700 l 25
 381 700 l 25
 381 600 l 25xc040
 344 600 l 25
 344 500 l 25xc080
 306 500 l 25
 306 400 l 25xc1
 269 400 l 25
 269 300 l 25xc2
 231 300 l 25
 231 200 l 25xc4
 194 200 l 25
 194 100 l 25xc8
 156 100 l 25
 156 0 l 25
 44 0 l 25
 44 100 l 25xe4
 6 100 l 25
 6 200 l 1xd0
 -31 200 l 29xe0
EndSplineSet
Validated: 1
EndChar

StartChar: uni2699
Encoding: 9881 9881 263
Width: 450
Flags: W
HStem: 0 100<262 300 600 638> 300 100<188 300 600 712> 600 100<262 300 600 638>
VStem: 188 187<300 400> 262 76<0 100 601 700> 300 112<200 300 400 500> 412 76<-100 100 600 800> 488 112<200 300 400 500> 525 187<300 400> 562 76<0 100 600 700>
CounterMasks: 1 e0
LayerCount: 2
Back
Fore
SplineSet
375 300 m 29xf0
 412 300 l 25
 412 200 l 25
 488 200 l 25
 488 300 l 25xe5
 525 300 l 25
 525 400 l 25xe080
 488 400 l 25
 488 500 l 25
 412 500 l 25
 412 400 l 25xe5
 375 400 l 25
 375 300 l 29xf0
188 300 m 25xf0
 188 400 l 25xf0
 300 400 l 25
 300 601 l 25xe4
 262 600 l 25
 262 700 l 25
 338 700 l 25
 338 600 l 25
 412 600 l 25
 412 800 l 25
 488 800 l 25
 488 600 l 25
 562 600 l 25
 562 700 l 25
 638 700 l 25
 638 600 l 25xea40
 600 600 l 25
 600 400 l 25xe1
 712 400 l 25
 712 300 l 25xe080
 600 300 l 25
 600 100 l 25xe1
 638 100 l 25
 638 0 l 25
 562 0 l 25
 562 100 l 25
 488 100 l 25
 488 -100 l 25
 412 -100 l 25
 412 100 l 25
 338 100 l 25
 338 0 l 25
 262 0 l 25
 262 100 l 25xea40
 300 100 l 25
 300 300 l 25xe4
 188 300 l 25xf0
EndSplineSet
Validated: 1
EndChar

StartChar: uni2139
Encoding: 8505 8505 264
Width: 450
Flags: W
HStem: -100 100<312 688> 500 100<462 538> 700 100<312 688>
VStem: 200 75<100 600> 238 74<0 100 600 700> 462 76<100 400 500 600> 688 74<0 100 600 700> 725 75<100 600>
LayerCount: 2
Back
Fore
SplineSet
462 100 m 25xe4
 462 400 l 25
 538 400 l 25
 538 100 l 25
 462 100 l 25xe4
462 500 m 25
 462 600 l 25
 538 600 l 25
 538 500 l 25
 462 500 l 25
725 600 m 29xe5
 688 600 l 25
 688 700 l 25
 312 700 l 25
 312 600 l 25xee
 275 600 l 25
 275 100 l 25xf4
 312 100 l 25
 312 0 l 25
 688 0 l 25
 688 100 l 25xee
 725 100 l 25
 725 600 l 29xe5
200 100 m 25xf4
 200 600 l 25xf4
 238 600 l 25
 238 700 l 25xec
 275 700 l 25
 275 800 l 25
 725 800 l 25
 725 700 l 25xf5
 762 700 l 25
 762 600 l 25xe6
 800 600 l 25
 800 100 l 25xe5
 762 100 l 25
 762 0 l 25xe6
 725 0 l 25
 725 -100 l 25
 275 -100 l 25
 275 0 l 25xf5
 238 0 l 25
 238 100 l 25xec
 200 100 l 25xf4
EndSplineSet
Validated: 1
EndChar

StartChar: uni2605
Encoding: 9733 9733 265
Width: 450
Flags: W
HStem: 0 100<-38 0 300 338> 400 200<0 75 225 300> 500 100<-75 0 300 375>
VStem: -38 76<0 100> 0 112<100 200> 75 150<300 400 600 700> 188 112<100 200> 262 76<0 100>
LayerCount: 2
Back
Fore
SplineSet
-38 0 m 29xd0
 -38 100 l 25xd0
 0 100 l 25
 0 200 l 25xc8
 38 200 l 25
 38 300 l 25
 75 300 l 25
 75 400 l 25xd4
 0 400 l 25xc8
 0 500 l 25
 -75 500 l 25
 -75 600 l 25xa8
 75 600 l 25
 75 700 l 25xc4
 112 700 l 25
 112 800 l 25
 188 800 l 25
 188 700 l 25xca
 225 700 l 25
 225 600 l 25xc4
 375 600 l 25
 375 500 l 25
 300 500 l 25xa2
 300 400 l 25xc2
 225 400 l 25
 225 300 l 25
 262 300 l 25
 262 200 l 25xc5
 300 200 l 25
 300 100 l 25xc2
 338 100 l 25
 338 0 l 25
 262 0 l 25
 262 100 l 25xc1
 188 100 l 25
 188 200 l 25
 112 200 l 25
 112 100 l 25xca
 38 100 l 25
 38 0 l 25
 -38 0 l 29xd0
EndSplineSet
Validated: 1
EndChar

StartChar: uni23CF
Encoding: 9167 9167 266
Width: 450
Flags: W
HStem: 0 100<-38 338> 200 100<-38 0 300 338> 680 20G<112 188>
VStem: 75 150<500 600>
LayerCount: 2
Back
Fore
SplineSet
-38 0 m 25
 -38 100 l 25
 338 100 l 25
 338 0 l 25
 -38 0 l 25
-38 200 m 29
 -38 300 l 29
 0 300 l 29
 0 400 l 29
 38 400 l 29
 38 500 l 29
 75 500 l 29
 75 600 l 29
 112 600 l 29
 112 700 l 29
 188 700 l 29
 188 600 l 29
 225 600 l 29
 225 500 l 29
 262 500 l 29
 262 400 l 29
 300 400 l 29
 300 300 l 29
 338 300 l 29
 338 200 l 29
 -38 200 l 29
EndSplineSet
Validated: 1
EndChar

StartChar: uni23E9
Encoding: 9193 9193 267
Width: 450
Flags: W
HStem: 0 21G<156 231 494 569> 300 100<381 456 719 794> 680 20G<156 231 494 569>
VStem: 156 225<200 300 400 500> 156 150<100 200 500 600> 156 75<0 100 600 700> 494 225<200 300 400 500> 494 150<100 200 500 600> 494 75<0 100 600 700>
LayerCount: 2
Back
Fore
SplineSet
156 700 m 29xe4
 231 700 l 29
 231 600 l 29xe4
 306 600 l 29
 306 500 l 29xe8
 381 500 l 29
 381 400 l 29
 456 400 l 29
 456 300 l 29
 381 300 l 29
 381 200 l 29xf0
 306 200 l 29
 306 100 l 29xe8
 231 100 l 29
 231 0 l 29
 156 0 l 29
 156 700 l 29xe4
494 700 m 25xe080
 569 700 l 25
 569 600 l 25xe080
 644 600 l 25
 644 500 l 25xe1
 719 500 l 25
 719 400 l 25
 794 400 l 25
 794 300 l 25
 719 300 l 25
 719 200 l 25xe2
 644 200 l 25
 644 100 l 25xe1
 569 100 l 25
 569 0 l 25
 494 0 l 25
 494 700 l 25xe080
EndSplineSet
Validated: 1
EndChar

StartChar: uni23EA
Encoding: 9194 9194 268
Width: 450
Flags: W
HStem: 0 21G<381 456 719 794> 300 100<156 231 494 569> 680 20G<381 456 719 794>
VStem: 231 225<200 300 400 500> 306 150<100 200 500 600> 381 75<0 100 600 700> 569 225<200 300 400 500> 644 150<100 200 500 600> 719 75<0 100 600 700>
LayerCount: 2
Back
Fore
SplineSet
794 700 m 25xe080
 794 0 l 25
 719 0 l 25
 719 100 l 25xe080
 644 100 l 25
 644 200 l 25xe1
 569 200 l 25
 569 300 l 25
 494 300 l 25
 494 400 l 25
 569 400 l 25
 569 500 l 25xe2
 644 500 l 25
 644 600 l 25xe1
 719 600 l 25
 719 700 l 25
 794 700 l 25xe080
456 700 m 29xe4
 456 0 l 29
 381 0 l 29
 381 100 l 29xe4
 306 100 l 29
 306 200 l 29xe8
 231 200 l 29
 231 300 l 29
 156 300 l 29
 156 400 l 29
 231 400 l 29
 231 500 l 29xf0
 306 500 l 29
 306 600 l 29xe8
 381 600 l 29
 381 700 l 29
 456 700 l 29xe4
EndSplineSet
Validated: 1
EndChar

StartChar: uni23ED
Encoding: 9197 9197 269
Width: 450
Flags: W
HStem: 0 21G<81 156 419 494 756 869> 300 100<306 381 644 719> 680 20G<81 156 419 494 756 869>
VStem: 81 225<200 300 400 500> 81 150<100 200 500 600> 81 75<0 100 600 700> 419 225<200 300 400 500> 419 150<100 200 500 600> 419 75<0 100 600 700> 756 113<0 700>
LayerCount: 2
Back
Fore
SplineSet
756 700 m 29xe040
 869 700 l 29
 869 0 l 29
 756 0 l 29
 756 700 l 29xe040
419 700 m 25xe0c0
 494 700 l 25
 494 600 l 25xe0c0
 569 600 l 25
 569 500 l 25xe140
 644 500 l 25
 644 400 l 25
 719 400 l 25
 719 300 l 25
 644 300 l 25
 644 200 l 25xe240
 569 200 l 25
 569 100 l 25xe140
 494 100 l 25
 494 0 l 25
 419 0 l 25
 419 700 l 25xe0c0
81 700 m 25xe440
 156 700 l 25
 156 600 l 25xe440
 231 600 l 25
 231 500 l 25xe840
 306 500 l 25
 306 400 l 25
 381 400 l 25
 381 300 l 25
 306 300 l 25
 306 200 l 25xf040
 231 200 l 25
 231 100 l 25xe840
 156 100 l 25
 156 0 l 25
 81 0 l 25
 81 700 l 25xe440
EndSplineSet
Validated: 1
EndChar

StartChar: uni23EE
Encoding: 9198 9198 270
Width: 450
Flags: W
HStem: 0 21G<81 194 456 531 794 869> 300 100<231 306 569 644> 680 20G<81 194 456 531 794 869>
VStem: 81 113<0 700> 306 225<200 300 400 500> 381 150<100 200 500 600> 456 75<0 100 600 700> 644 225<200 300 400 500> 719 150<100 200 500 600> 794 75<0 100 600 700>
LayerCount: 2
Back
Fore
SplineSet
81 700 m 29xf0
 194 700 l 29
 194 0 l 29
 81 0 l 29
 81 700 l 29xf0
869 700 m 25xf040
 869 0 l 25
 794 0 l 25
 794 100 l 25xf040
 719 100 l 25
 719 200 l 25xf080
 644 200 l 25
 644 300 l 25
 569 300 l 25
 569 400 l 25
 644 400 l 25
 644 500 l 25xf1
 719 500 l 25
 719 600 l 25xf080
 794 600 l 25
 794 700 l 25
 869 700 l 25xf040
531 700 m 25xf2
 531 0 l 25
 456 0 l 25
 456 100 l 25xf2
 381 100 l 25
 381 200 l 25xf4
 306 200 l 25
 306 300 l 25
 231 300 l 25
 231 400 l 25
 306 400 l 25
 306 500 l 25xf8
 381 500 l 25
 381 600 l 25xf4
 456 600 l 25
 456 700 l 25
 531 700 l 25xf2
EndSplineSet
Validated: 1
EndChar

StartChar: uni23EF
Encoding: 9199 9199 271
Width: 450
Flags: W
HStem: 0 21G<119 194 494 606 719 831> 300 100<344 419> 680 20G<119 194 494 606 719 831>
VStem: 119 225<200 300 400 500> 119 150<100 200 500 600> 119 75<0 100 600 700> 494 112<0 700> 719 112<0 700>
LayerCount: 2
Back
Fore
SplineSet
119 700 m 25xe7
 194 700 l 25
 194 600 l 25xe7
 269 600 l 25
 269 500 l 25xeb
 344 500 l 25
 344 400 l 25
 419 400 l 25
 419 300 l 25
 344 300 l 25
 344 200 l 25xf3
 269 200 l 25
 269 100 l 25xeb
 194 100 l 25
 194 0 l 25
 119 0 l 25
 119 700 l 25xe7
494 700 m 29
 606 700 l 29
 606 0 l 29
 494 0 l 29
 494 700 l 29
719 700 m 29
 831 700 l 29
 831 0 l 29
 719 0 l 29
 719 700 l 29
EndSplineSet
Validated: 1
EndChar

StartChar: uni23F8
Encoding: 9208 9208 273
Width: 450
Flags: W
HStem: 0 21G<6 119 231 344> 680 20G<6 119 231 344>
VStem: 6 113<0 700> 231 113<0 700>
LayerCount: 2
Back
Fore
SplineSet
6 700 m 29
 119 700 l 29
 119 0 l 29
 6 0 l 29
 6 700 l 29
231 700 m 29
 344 700 l 29
 344 0 l 29
 231 0 l 29
 231 700 l 29
EndSplineSet
Validated: 1
EndChar

StartChar: uni23F9
Encoding: 9209 9209 274
Width: 450
Flags: W
HStem: 0 21G<-31 381> 680 20G<-31 381>
VStem: -31 412<0 700>
LayerCount: 2
Back
Fore
SplineSet
-31 700 m 29
 381 700 l 25
 381 0 l 25
 -31 0 l 25
 -31 700 l 29
EndSplineSet
Validated: 1
EndChar

StartChar: uni23FA
Encoding: 9210 9210 275
Width: 450
Flags: W
HStem: 0 21G<38 262> 680 20G<38 262>
VStem: 38 224<0 100 600 700>
LayerCount: 2
Back
Fore
SplineSet
-75 500 m 29
 -38 500 l 25
 -38 600 l 25
 38 600 l 25
 38 700 l 25
 262 700 l 25
 262 600 l 25
 338 600 l 25
 338 500 l 25
 375 500 l 25
 375 200 l 25
 338 200 l 25
 338 100 l 25
 262 100 l 25
 262 0 l 25
 38 0 l 25
 38 100 l 25
 -38 100 l 25
 -38 200 l 25
 -75 200 l 25
 -75 500 l 29
EndSplineSet
Validated: 1
EndChar

StartChar: uni23FD
Encoding: 9213 9213 276
Width: 450
Flags: W
HStem: -100 100<350 650> 500 100<350 388 612 650>
VStem: 238 74<100 400> 275 75<0 100 400 500> 312 76<500 600> 462 76<300 800> 612 76<500 600> 650 75<0 100 400 500> 688 74<100 400>
LayerCount: 2
Back
Fore
SplineSet
462 300 m 29xc4
 462 800 l 1
 538 800 l 25
 538 300 l 1
 462 300 l 29xc4
312 500 m 25xcc
 312 600 l 25
 388 600 l 25
 388 500 l 25xcc
 350 500 l 25
 350 400 l 25xd4
 312 400 l 25
 312 100 l 25xe4
 350 100 l 25
 350 0 l 25
 650 0 l 25
 650 100 l 25xd5
 688 100 l 25
 688 400 l 25xc480
 650 400 l 25
 650 500 l 25xc5
 612 500 l 25
 612 600 l 25
 688 600 l 25
 688 500 l 25xc6
 725 500 l 25
 725 400 l 25xc5
 762 400 l 25
 762 100 l 25xc480
 725 100 l 25
 725 0 l 25xc5
 688 0 l 25
 688 -100 l 25
 312 -100 l 25
 312 0 l 25xcc80
 275 0 l 25
 275 100 l 25xd4
 238 100 l 25
 238 400 l 25xe4
 275 400 l 25
 275 500 l 25xd4
 312 500 l 25xcc
EndSplineSet
Validated: 1
EndChar

StartChar: uni2B58
Encoding: 11096 11096 277
Width: 450
Flags: W
HStem: 0 100<425 575> 100 100<350 388 612 650> 600 100<350 388 612 650> 700 100<425 575>
VStem: 238 74<300 500> 275 75<200 300 500 600> 312 113<100 200 600 700> 388 224<0 100 700 800> 462 76<200 600> 575 113<100 200 600 700> 650 75<200 300 500 600> 688 74<300 500>
LayerCount: 2
Back
Fore
SplineSet
462 200 m 29x6080
 462 600 l 25
 538 600 l 25
 538 200 l 25
 462 200 l 29x6080
350 200 m 25x64
 425 200 l 25x62
 425 100 l 25
 575 100 l 25x8240
 575 200 l 25x4240
 650 200 l 25
 650 300 l 25x4020
 688 300 l 25
 688 500 l 25x4010
 650 500 l 25
 650 600 l 25x6020
 575 600 l 25x6040
 575 700 l 25
 425 700 l 25x1240
 425 600 l 25x2240
 350 600 l 25
 350 500 l 25x24
 312 500 l 25
 312 300 l 25x28
 350 300 l 25
 350 200 l 25x64
312 600 m 25
 312 700 l 1x12
 388 700 l 25x21
 388 800 l 25
 612 800 l 25x11
 612 700 l 25x21
 688 700 l 25x1040
 688 600 l 25x2040
 725 600 l 25
 725 500 l 25x2020
 762 500 l 25
 762 300 l 25x2010
 725 300 l 25
 725 200 l 25x6020
 688 200 l 25
 688 100 l 25x6040
 612 100 l 25x61
 612 0 l 25
 388 0 l 25x81
 388 100 l 25x41
 312 100 l 25
 312 200 l 25x42
 275 200 l 25
 275 300 l 25x44
 238 300 l 25
 238 500 l 25x48
 275 500 l 25
 275 600 l 1x64
 312 600 l 25
EndSplineSet
Validated: 1
EndChar

StartChar: trademark
Encoding: 8482 8482 278
Width: 450
Flags: W
HStem: 400 300<269 344 456 531 681 756> 500 100<569 644> 600 100<194 269 344 419 531 569 644 681>
VStem: 269 75<400 600> 456 113<600 700> 456 75<400 600> 569 75<500 600> 644 112<600 700> 681 75<400 600>
LayerCount: 2
Back
Fore
SplineSet
456 400 m 29x94
 456 700 l 25x98
 569 700 l 25x38
 569 600 l 25x58
 644 600 l 25x52
 644 700 l 25x31
 756 700 l 25x91
 756 400 l 25
 681 400 l 25x9080
 681 600 l 25x3080
 644 600 l 25
 644 500 l 25
 569 500 l 25x5280
 569 600 l 25x58
 531 600 l 25x34
 531 400 l 25
 456 400 l 29x94
194 600 m 25x30
 194 701 l 25
 419 700 l 25
 419 600 l 1
 344 600 l 25x30
 344 400 l 1
 269 400 l 25x90
 269 600 l 25
 194 600 l 25x30
EndSplineSet
Validated: 5
EndChar

StartChar: uni25FC
Encoding: 9724 9724 279
Width: 450
Flags: W
HStem: 0 100<112 188> 680 20G<112 188>
VStem: 112 76<0 100 200 700>
LayerCount: 2
Back
Fore
SplineSet
112 700 m 29
 188 700 l 25
 188 200 l 25
 112 200 l 25
 112 700 l 29
188 0 m 25
 112 0 l 1
 112 100 l 25
 188 100 l 1
 188 0 l 25
EndSplineSet
Validated: 1
EndChar

StartChar: filledbox
Encoding: 9632 9632 280
Width: 450
Flags: W
HStem: 0 21G<-75 375>
VStem: -75 450<0 800>
LayerCount: 2
Back
Fore
SplineSet
-75 0 m 29
 -75 800 l 25
 375 800 l 25
 375 0 l 25
 -75 0 l 29
EndSplineSet
Validated: 1
EndChar

StartChar: uni26C7
Encoding: 9927 9927 281
Width: 450
Flags: W
HStem: -100 100<-31 44 306 381> 400 100<6 44 306 344> 500 100<-31 6 44 81 269 306 344 381>
VStem: -31 112<-100 0> -31 37<500 600> 6 38<400 500> 44 75<500 600> 81 188<100 200 400 500 600 700> 156 38<500 600> 231 75<500 600> 269 112<-100 0> 306 38<400 500> 344 37<500 600>
LayerCount: 2
Back
Fore
SplineSet
194 500 m 29xa0c0
 231 500 l 29
 231 600 l 29
 194 600 l 29
 194 500 l 29xa0c0
119 500 m 25xa280
 156 500 l 25
 156 600 l 25
 119 600 l 25
 119 500 l 25xa280
-31 -100 m 25xd020
 -31 0 l 25xd020
 44 0 l 25
 44 100 l 1xc2
 81 100 l 1
 81 200 l 1xc1
 44 200 l 1xc2
 44 400 l 25
 81 400 l 25xc5
 81 500 l 25xa5
 44 500 l 25xc5
 44 600 l 25xa2
 81 600 l 25
 81 700 l 25xa1
 119 700 l 25
 119 800 l 25
 231 800 l 25
 231 700 l 25xa240
 269 700 l 25
 269 600 l 25xa1
 306 600 l 25xa040
 306 500 l 25xc040
 269 500 l 25xa1
 269 400 l 25
 306 400 l 25
 306 200 l 1
 269 200 l 1
 269 100 l 1
 306 100 l 1
 306 0 l 25xc110
 381 0 l 25
 381 -100 l 25
 269 -100 l 25
 269 0 l 25
 81 0 l 25
 81 -100 l 25
 -31 -100 l 25xd020
6 500 m 25xc8
 44 500 l 25
 44 400 l 25
 6 400 l 25xc4
 6 500 l 25xc8
-31 600 m 25xa8
 6 600 l 25xa8
 6 500 l 25xc8
 -31 500 l 25
 -31 600 l 25xa8
306 400 m 25xc010
 306 500 l 25xc040
 344 500 l 25
 344 400 l 25
 306 400 l 25xc010
344 500 m 25xc010
 344 600 l 25
 381 600 l 25
 381 500 l 25xa008
 344 500 l 25xc010
EndSplineSet
Validated: 5
EndChar

StartChar: uni2744
Encoding: 10052 10052 282
Width: 450
Flags: HMW
LayerCount: 2
Back
Fore
SplineSet
488 500 m 29
 525 500 l 25
 525 600 l 25
 488 600 l 25
 488 500 l 29
375 500 m 25
 412 500 l 25
 412 600 l 25
 375 600 l 25
 375 500 l 25
412 400 m 25
 412 300 l 25
 488 300 l 25
 488 400 l 25
 412 400 l 25
112 -100 m 25
 112 100 l 1
 188 100 l 25
 188 0 l 25
 225 0 l 25
 225 100 l 25
 262 100 l 25
 262 200 l 25
 338 200 l 25
 338 300 l 25
 225 300 l 25
 225 200 l 25
 150 200 l 25
 150 300 l 25
 112 300 l 25
 112 400 l 25
 150 400 l 25
 150 500 l 25
 225 500 l 25
 225 400 l 25
 338 400 l 25
 338 500 l 25
 262 500 l 25
 262 600 l 25
 225 600 l 25
 225 700 l 25
 188 700 l 25
 188 600 l 25
 112 600 l 25
 112 800 l 25
 225 800 l 25
 225 700 l 25
 300 700 l 25
 300 600 l 25
 375 600 l 25
 375 700 l 25
 412 700 l 25
 412 800 l 25
 488 800 l 25
 488 700 l 25
 525 700 l 25
 525 600 l 25
 600 600 l 25
 600 700 l 25
 675 700 l 25
 675 800 l 25
 788 800 l 25
 788 600 l 25
 712 600 l 25
 712 700 l 25
 675 700 l 25
 675 600 l 25
 638 600 l 25
 638 500 l 25
 562 500 l 25
 562 400 l 25
 675 400 l 25
 675 500 l 25
 750 500 l 25
 750 400 l 25
 788 400 l 25
 788 300 l 25
 750 300 l 25
 750 200 l 25
 675 200 l 25
 675 300 l 25
 562 300 l 25
 562 200 l 25
 638 200 l 25
 638 100 l 25
 675 100 l 25
 675 0 l 25
 712 0 l 25
 712 100 l 25
 788 100 l 25
 788 -100 l 25
 675 -100 l 25
 675 0 l 25
 600 0 l 25
 600 100 l 25
 525 100 l 25
 525 200 l 25
 488 200 l 25
 488 100 l 25
 525 100 l 25
 525 0 l 25
 488 0 l 25
 488 -100 l 25
 412 -100 l 25
 412 0 l 25
 375 0 l 25
 375 100 l 25
 412 100 l 25
 412 200 l 25
 375 200 l 25
 375 100 l 25
 300 100 l 25
 300 0 l 25
 225 0 l 25
 225 -100 l 1
 112 -100 l 25
EndSplineSet
Validated: 5
EndChar

StartChar: uni26A0
Encoding: 9888 9888 283
Width: 450
Flags: W
HStem: -100 100<188 712> 100 100<412 488> 300 200<262 300 412 488 600 638> 700 100<412 488>
VStem: 112 76<0 100> 150 75<100 200> 188 74<200 300> 225 75<300 400> 262 76<400 500> 300 75<500 600> 338 74<600 700> 412 76<100 200 300 500> 488 74<600 700> 525 75<500 600> 562 76<400 500> 600 75<300 400> 638 74<200 300> 675 75<100 200> 712 76<0 100>
LayerCount: 2
Back
Fore
SplineSet
412 100 m 29xf010
 412 200 l 25
 488 200 l 25
 488 100 l 25
 412 100 l 29xf010
412 300 m 25
 412 500 l 25
 488 500 l 25
 488 300 l 25
 412 300 l 25
412 600 m 25xf028
 375 600 l 25
 375 500 l 25xf040
 338 500 l 25
 338 400 l 25xf080
 300 400 l 25
 300 300 l 25xf1
 262 300 l 25
 262 200 l 25xf2
 225 200 l 25
 225 100 l 25xf4
 188 100 l 25
 188 0 l 25
 712 0 l 25
 712 100 l 25xf80020
 675 100 l 25
 675 200 l 25xf00040
 638 200 l 25
 638 300 l 25xf00080
 600 300 l 25
 600 400 l 25xf001
 562 400 l 25
 562 500 l 25xf002
 525 500 l 25
 525 600 l 25xf004
 488 600 l 25
 488 700 l 25
 412 700 l 25
 412 600 l 25xf028
112 -100 m 25xf80020
 112 100 l 1xf80020
 150 100 l 25
 150 200 l 25xf4
 188 200 l 25
 188 300 l 25xf2
 225 300 l 25
 225 400 l 25xf1
 262 400 l 25
 262 500 l 25xf080
 300 500 l 25
 300 600 l 25xf040
 338 600 l 25
 338 700 l 25xf020
 375 700 l 25
 375 800 l 25
 525 800 l 25
 525 700 l 25xf044
 562 700 l 25
 562 600 l 25xf008
 600 600 l 25
 600 500 l 25xf004
 638 500 l 25
 638 400 l 25xf002
 675 400 l 25
 675 300 l 25xf001
 712 300 l 25
 712 200 l 25xf00080
 750 200 l 25
 750 100 l 25xf00040
 788 100 l 25
 788 -100 l 1
 112 -100 l 25xf80020
EndSplineSet
Validated: 1
EndChar

StartChar: u1F642
Encoding: 128578 128578 284
Width: 450
Flags: W
HStem: -100 100<312 688> 100 100<388 612> 200 100<312 350 650 688> 500 100<350 425 575 650> 700 100<312 688>
VStem: 200 75<100 600> 238 74<0 100 600 700> 312 76<200 300> 350 75<500 600> 575 75<500 600> 612 76<200 300> 688 74<0 100 600 700> 725 75<100 600>
LayerCount: 2
Back
Fore
SplineSet
575 500 m 25x9840
 575 600 l 25
 650 600 l 25
 650 500 l 25
 575 500 l 25x9840
350 500 m 25x9880
 350 600 l 25
 425 600 l 25
 425 500 l 25
 350 500 l 25x9880
312 200 m 25xb9
 312 300 l 1
 388 300 l 25xb9
 388 200 l 25
 612 200 l 25xd920
 612 300 l 25
 688 300 l 25
 688 200 l 25xb920
 650 200 l 25xb840
 650 100 l 25
 350 100 l 25xd8c0
 350 200 l 1xb8c0
 312 200 l 25xb9
312 0 m 25xda
 688 0 l 25
 688 100 l 25xda10
 725 100 l 25
 725 600 l 25xd808
 688 600 l 25
 688 700 l 25
 312 700 l 25
 312 600 l 25xda10
 275 600 l 25
 275 100 l 25xdc
 312 100 l 25
 312 0 l 25xda
200 100 m 25xdc
 200 600 l 25xdc
 238 600 l 25
 238 700 l 25xda
 275 700 l 25
 275 800 l 25
 725 800 l 25
 725 700 l 25xdc08
 762 700 l 25
 762 600 l 25xd810
 800 600 l 25
 800 100 l 25xd808
 762 100 l 25
 762 0 l 25xd810
 725 0 l 25
 725 -100 l 25
 275 -100 l 25
 275 0 l 25xdc08
 238 0 l 25
 238 100 l 25xda
 200 100 l 25xdc
EndSplineSet
Validated: 1
EndChar

StartChar: u1F643
Encoding: 128579 128579 285
Width: 450
Flags: W
HStem: -100 100<312 688> 100 100<350 425 575 650> 400 100<312 350 650 688> 500 100<388 612> 700 100<312 688>
VStem: 200 75<100 600> 238 74<0 100 600 700> 312 76<400 500> 350 75<100 200> 575 75<100 200> 612 76<400 500> 688 74<0 100 600 700> 725 75<100 600>
LayerCount: 2
Back
Fore
SplineSet
312 400 m 29xe920
 312 500 l 25xe920
 350 500 l 25xe880
 350 600 l 25
 650 600 l 25xd8c0
 650 500 l 25xe8c0
 688 500 l 25
 688 400 l 25
 612 400 l 25xe820
 612 500 l 25
 388 500 l 25xd920
 388 400 l 25
 312 400 l 29xe920
575 100 m 25xc840
 575 200 l 25
 650 200 l 25
 650 100 l 25
 575 100 l 25xc840
350 100 m 25xc880
 350 200 l 25
 425 200 l 25
 425 100 l 25
 350 100 l 25xc880
312 0 m 25xda
 688 0 l 25
 688 100 l 25xda10
 725 100 l 25
 725 600 l 25xd808
 688 600 l 25
 688 700 l 25
 312 700 l 25
 312 600 l 25xda10
 275 600 l 25
 275 100 l 25xdc
 312 100 l 25
 312 0 l 25xda
200 100 m 25xdc
 200 600 l 25xdc
 238 600 l 25
 238 700 l 25xda
 275 700 l 25
 275 800 l 25
 725 800 l 25
 725 700 l 25xdc08
 762 700 l 25
 762 600 l 25xd810
 800 600 l 25
 800 100 l 25xd808
 762 100 l 25
 762 0 l 25xd810
 725 0 l 25
 725 -100 l 25
 275 -100 l 25
 275 0 l 25xdc08
 238 0 l 25
 238 100 l 25xda
 200 100 l 25xdc
EndSplineSet
Validated: 1
EndChar

StartChar: u1F604
Encoding: 128516 128516 286
Width: 450
Flags: W
HStem: -100 100<312 688> 100 200<350 650> 200 100<312 350 650 688> 400 100<312 350 425 462 538 575 650 688> 500 100<350 425 575 650> 700 100<312 688>
VStem: 200 75<100 600> 238 74<0 100 600 700> 312 38<400 500> 350 75<500 600> 425 37<400 500> 538 37<400 500> 575 75<500 600> 650 38<400 500> 688 74<0 100 600 700> 725 75<100 600>
LayerCount: 2
Back
Fore
SplineSet
350 100 m 29xc444
 350 200 l 29xa444
 312 200 l 29
 312 300 l 29
 688 300 l 29
 688 200 l 29xa482
 650 200 l 29xa404
 650 100 l 29
 350 100 l 29xc444
538 400 m 25x9410
 538 500 l 25
 575 500 l 25x9410
 575 600 l 25
 650 600 l 25x8c08
 650 500 l 25x9408
 688 500 l 25
 688 400 l 25
 650 400 l 25x9404
 650 500 l 25x9408
 575 500 l 25
 575 400 l 25
 538 400 l 25x9410
312 400 m 25x9480
 312 500 l 25
 350 500 l 25x9480
 350 600 l 25
 425 600 l 25x8c40
 425 500 l 25x9440
 462 500 l 25
 462 400 l 25
 425 400 l 25x9420
 425 500 l 25x9440
 350 500 l 25
 350 400 l 25
 312 400 l 25x9480
312 0 m 25xcd
 688 0 l 25
 688 100 l 25xcd02
 725 100 l 29
 725 600 l 25xcc01
 688 600 l 25
 688 700 l 25
 312 700 l 25
 312 600 l 25xcd02
 275 600 l 25
 275 100 l 25xce
 312 100 l 25
 312 0 l 25xcd
200 100 m 25xce
 200 600 l 25xce
 238 600 l 25
 238 700 l 25xcd
 275 700 l 25
 275 800 l 25
 725 800 l 25
 725 700 l 25xce01
 762 700 l 25
 762 600 l 25xcc02
 800 600 l 25
 800 100 l 25xcc01
 762 100 l 25
 762 0 l 25xcc02
 725 0 l 25
 725 -100 l 25
 275 -100 l 25
 275 0 l 25xce01
 238 0 l 25
 238 100 l 25xcd
 200 100 l 25xce
EndSplineSet
Validated: 5
EndChar

StartChar: u1F606
Encoding: 128518 128518 287
Width: 450
Flags: W
HStem: -100 100<312 688> 100 200<350 650> 200 100<312 350 650 688> 400 100<388 500 650 688> 500 100<312 350 500 612> 700 100<312 688>
VStem: 200 75<100 600> 238 74<0 100 600 700> 312 76<500 600> 350 150<400 500> 500 150<500 600> 612 76<400 500> 688 74<0 100 600 700> 725 75<100 600>
LayerCount: 2
Back
Fore
SplineSet
312 600 m 29x8d
 388 600 l 25x8c80
 388 500 l 25x9480
 500 500 l 25x9440
 500 600 l 25
 650 600 l 25x8c20
 650 500 l 25x9420
 688 500 l 25
 688 400 l 25
 612 400 l 25x9410
 612 500 l 25x8c10
 500 500 l 25
 500 400 l 25
 350 400 l 25x9450
 350 500 l 25x8c50
 312 500 l 25x8c80
 312 600 l 29x8d
350 100 m 25xc440
 350 200 l 25xa440
 312 200 l 25
 312 300 l 25
 688 300 l 25
 688 200 l 25
 650 200 l 25xa4a8
 650 100 l 25xc4a8
 350 100 l 25xc440
725 100 m 1049xc404
312 0 m 25xcd
 688 0 l 25
 688 100 l 25xcd08
 725 100 l 25
 725 600 l 25xcc04
 688 600 l 25
 688 700 l 25
 312 700 l 25
 312 600 l 25xcd08
 275 600 l 25
 275 100 l 25xce
 312 100 l 25
 312 0 l 25xcd
200 100 m 25xce
 200 600 l 25xce
 238 600 l 25
 238 700 l 25xcd
 275 700 l 25
 275 800 l 25
 725 800 l 25
 725 700 l 25xce04
 762 700 l 25
 762 600 l 25xcc08
 800 600 l 25
 800 100 l 25xcc04
 762 100 l 25
 762 0 l 25xcc08
 725 0 l 25
 725 -100 l 25
 275 -100 l 25
 275 0 l 25xce04
 238 0 l 25
 238 100 l 25xcd
 200 100 l 25xce
EndSplineSet
Validated: 5
EndChar

StartChar: u1F60E
Encoding: 128526 128526 288
Width: 450
Flags: W
HStem: -100 100<312 688> 100 100<388 612> 200 100<312 350 650 688> 400 100<312 350 650 688> 500 100<462 538> 700 100<312 688>
VStem: 200 75<100 500> 238 74<0 100 600 700> 312 150<400 500> 312 76<200 300> 350 300<100 200 500 600> 538 150<400 500> 612 76<200 300> 688 74<0 100 600 700> 725 75<100 500>
LayerCount: 2
Back
Fore
SplineSet
312 200 m 29xa440
 312 300 l 5
 388 300 l 29xa440
 388 200 l 29
 612 200 l 29xc448
 612 300 l 29
 688 300 l 29
 688 200 l 29xa448
 650 200 l 29xa420
 650 100 l 29
 350 100 l 29xc420
 350 200 l 5xa420
 312 200 l 29xa440
312 400 m 1x9490
 312 500 l 25x9490
 350 500 l 25x9420
 350 600 l 25
 650 600 l 25x8c20
 650 500 l 25x9420
 688 500 l 25
 688 400 l 25
 538 400 l 25x9410
 538 500 l 25
 462 500 l 1x8c90
 462 400 l 25
 312 400 l 1x9490
312 0 m 25xcd
 688 0 l 25
 688 100 l 25xcd04
 725 100 l 1
 725 500 l 1xcc02
 688 500 l 1x9412
 688 700 l 1
 312 700 l 1x9504
 312 500 l 1x9480
 275 500 l 1
 275 100 l 1xce80
 312 100 l 25
 312 0 l 25xcd
200 100 m 25xce
 200 600 l 25xce
 238 600 l 25
 238 700 l 25xcd
 275 700 l 25
 275 800 l 25
 725 800 l 25
 725 700 l 25xce02
 762 700 l 25
 762 600 l 25xcc04
 800 600 l 25
 800 100 l 25xcc02
 762 100 l 25
 762 0 l 25xcc04
 725 0 l 25
 725 -100 l 25
 275 -100 l 25
 275 0 l 25xce02
 238 0 l 25
 238 100 l 25xcd
 200 100 l 25xce
EndSplineSet
Validated: 5
EndChar

StartChar: u1F621
Encoding: 128545 128545 289
Width: 450
Flags: W
HStem: -100 100<312 688> 100 100<350 388 612 650> 200 100<425 575> 400 100<425 462 538 575> 500 100<312 388 612 688> 700 100<312 688>
VStem: 200 75<100 600> 238 74<0 100 600 700> 312 113<500 600> 350 75<100 200> 388 74<400 500> 538 74<400 500> 575 113<500 600> 575 75<101 200> 688 74<0 100 600 700> 725 75<100 600>
LayerCount: 2
Back
Fore
SplineSet
350 100 m 25xc444
 350 200 l 25xc444
 388 200 l 25xc420
 388 300 l 25
 612 300 l 25xa430
 612 200 l 25xc430
 650 200 l 25
 650 101 l 25
 575 100 l 25xc404
 575 200 l 25
 425 200 l 25xa444
 425 100 l 25
 350 100 l 25xc444
538 400 m 5x9410
 538 500 l 29x9410
 575 500 l 29x9408
 575 600 l 5
 688 600 l 1
 688 500 l 5x8c08
 612 500 l 5x8c10
 612 400 l 29
 538 400 l 5x9410
388 400 m 29x9420
 388 500 l 5x8c20
 312 500 l 5x8c80
 312 600 l 1x8d
 425 600 l 5x8c80
 425 500 l 29x9480
 462 500 l 29
 462 400 l 29
 388 400 l 29x9420
312 0 m 25xcd
 688 0 l 25
 688 100 l 25xcd02
 725 100 l 25
 725 600 l 25
 688 600 l 29xcc09
 688 700 l 25
 312 700 l 25
 312 600 l 29xcd02
 275 600 l 25
 275 100 l 25xce
 312 100 l 25
 312 0 l 25xcd
200 100 m 25xce
 200 600 l 25xce
 238 600 l 25
 238 700 l 25xcd
 275 700 l 25
 275 800 l 25
 725 800 l 25
 725 700 l 25xce01
 762 700 l 25
 762 600 l 25xcc02
 800 600 l 25
 800 100 l 25xcc01
 762 100 l 25
 762 0 l 25xcc02
 725 0 l 25
 725 -100 l 25
 275 -100 l 25
 275 0 l 25xce01
 238 0 l 25
 238 100 l 25xcd
 200 100 l 25xce
EndSplineSet
Validated: 5
EndChar

StartChar: u1F620
Encoding: 128544 128544 290
Width: 450
Flags: W
HStem: -100 100<312 688> 100 100<350 388 612 650> 200 100<425 575> 400 100<425 462 538 575> 500 100<350 388 612 650> 700 100<312 688>
VStem: 200 75<100 600> 238 74<0 100 600 700> 350 75<100 200 500 600> 388 74<400 500> 538 74<400 500> 575 75<101 200 500 600> 688 74<0 100 600 700> 725 75<100 600>
LayerCount: 2
Back
Fore
SplineSet
538 400 m 1x9420
 538 500 l 25x9420
 575 500 l 25x9410
 575 600 l 25
 650 600 l 25
 650 500 l 25x8c10
 612 500 l 1x8c20
 612 400 l 25
 538 400 l 1x9420
388 400 m 25x9440
 388 500 l 25x8c40
 350 500 l 25
 350 600 l 25
 425 600 l 25x8c80
 425 500 l 25x9480
 462 500 l 25
 462 400 l 25
 388 400 l 25x9440
350 100 m 29xc490
 350 200 l 29xc490
 388 200 l 29xc440
 388 300 l 29
 612 300 l 29xa460
 612 200 l 29xc460
 650 200 l 29
 650 101 l 29
 575 100 l 29xc410
 575 200 l 29
 425 200 l 29xa490
 425 100 l 29
 350 100 l 29xc490
312 0 m 25xcd
 688 0 l 25
 688 100 l 25xcd08
 725 100 l 25
 725 600 l 25xcc04
 688 600 l 25
 688 700 l 25
 312 700 l 25
 312 600 l 25xcd08
 275 600 l 25
 275 100 l 25xce
 312 100 l 25
 312 0 l 25xcd
200 100 m 25xce
 200 600 l 25xce
 238 600 l 25
 238 700 l 25xcd
 275 700 l 25
 275 800 l 25
 725 800 l 25
 725 700 l 25xce04
 762 700 l 25
 762 600 l 25xcc08
 800 600 l 25
 800 100 l 25xcc04
 762 100 l 25
 762 0 l 25xcc08
 725 0 l 25
 725 -100 l 25
 275 -100 l 25
 275 0 l 25xce04
 238 0 l 25
 238 100 l 25xcd
 200 100 l 25xce
EndSplineSet
Validated: 1
EndChar

StartChar: u1F62D
Encoding: 128557 128557 291
Width: 450
Flags: W
HStem: -100 100<312 688> 100 200<388 612> 300 100<312 350 650 688> 480 20G<350 388 612 650> 500 100<388 462 538 612> 700 100<312 688>
VStem: 200 75<100 600> 238 74<0 100 600 700> 312 76<300 400> 350 38<400 500> 388 74<500 600> 538 74<500 600> 612 76<300 400> 612 38<400 500> 688 74<0 100 600 700> 725 75<100 600>
LayerCount: 2
Back
Fore
SplineSet
388 100 m 29xc424
 388 300 l 25
 612 300 l 25xc488
 612 100 l 25
 388 100 l 29xc424
612 300 m 25
 612 500 l 25xd410
 650 500 l 25
 650 400 l 25xb404
 688 400 l 25
 688 300 l 25xb408
 612 300 l 25
312 300 m 25xa480
 312 400 l 25xa480
 350 400 l 25
 350 500 l 25
 388 500 l 25xb440
 388 300 l 25xd480
 312 300 l 25xa480
538 500 m 25x8c10
 538 600 l 25
 612 600 l 25x8c10
 612 500 l 25x9410
 538 500 l 25x8c10
388 500 m 25x9440
 388 600 l 25
 462 600 l 25
 462 500 l 25x8c20
 388 500 l 25x9440
312 0 m 25xcd
 688 0 l 25
 688 100 l 25xcd02
 725 100 l 25
 725 600 l 25xcc01
 688 600 l 25
 688 700 l 25
 312 700 l 25
 312 600 l 25xcd02
 275 600 l 25
 275 100 l 25xce
 312 100 l 25
 312 0 l 25xcd
200 100 m 25xce
 200 600 l 25xce
 238 600 l 25
 238 700 l 25xcd
 275 700 l 25
 275 800 l 25
 725 800 l 25
 725 700 l 25xce01
 762 700 l 25
 762 600 l 25xcc02
 800 600 l 25
 800 100 l 25xcc01
 762 100 l 25
 762 0 l 25xcc02
 725 0 l 25
 725 -100 l 25
 275 -100 l 25
 275 0 l 25xce01
 238 0 l 25
 238 100 l 25xcd
 200 100 l 25xce
EndSplineSet
Validated: 5
EndChar

StartChar: u1F50C
Encoding: 128268 128268 292
Width: 450
Flags: W
VStem: 44 75<600 800> 81 188<300 400> 119 112<150 300> 231 75<600 800>
LayerCount: 2
Back
Fore
SplineSet
6 400 m 29x40
 6 600 l 25
 44 600 l 25
 44 800 l 25
 119 800 l 25
 119 600 l 25
 231 600 l 25
 231 800 l 25
 306 800 l 25
 306 600 l 25x90
 344 600 l 25
 344 400 l 25
 269 400 l 25
 269 300 l 25x40
 231 300 l 25
 231 150 l 25
 194 150 l 25
 194 -100 l 25
 156 -100 l 25
 156 150 l 25
 119 150 l 25
 119 300 l 25x20
 81 300 l 25
 81 400 l 25
 6 400 l 29x40
EndSplineSet
Validated: 1
EndChar

StartChar: u1F4FA
Encoding: 128250 128250 293
Width: 450
Flags: W
HStem: -100 200<262 638> 500 100<262 375 525 638> 700 100<300 375 525 600>
VStem: 188 74<100 500> 300 75<700 800> 525 75<700 800> 638 74<100 500>
LayerCount: 2
Back
Fore
SplineSet
262 100 m 29
 638 100 l 25
 638 500 l 25
 262 500 l 25
 262 100 l 29
188 -100 m 25
 188 600 l 25
 375 600 l 25
 375 700 l 25
 300 700 l 25
 300 800 l 25
 375 800 l 25
 375 700 l 25
 525 700 l 25
 525 800 l 25
 600 800 l 25
 600 700 l 25
 525 700 l 25
 525 600 l 25
 712 600 l 25
 712 -100 l 25
 188 -100 l 25
EndSplineSet
Validated: 5
EndChar

StartChar: u1F4FB
Encoding: 128251 128251 294
Width: 450
Flags: W
HStem: -100 100<262 638> 200 100<600 638> 300 100<262 562>
VStem: 188 74<0 300> 300 75<50 250> 488 37<150 250> 562 150<200 300> 638 74<0 200 300 500 700 800> 638 37<500 700>
LayerCount: 2
Back
Fore
SplineSet
488 150 m 29x9c
 488 250 l 25
 525 250 l 25
 525 150 l 25
 488 150 l 29x9c
300 50 m 25
 300 250 l 25
 375 250 l 25
 375 50 l 25
 300 50 l 25
262 0 m 25
 638 0 l 25
 638 200 l 25xdd
 562 200 l 25xde
 562 300 l 25
 262 300 l 25xbe
 262 0 l 25
188 -100 m 25
 188 300 l 25
 225 300 l 25
 225 400 l 25
 600 400 l 25xbd
 600 300 l 25
 638 300 l 25
 638 800 l 25
 712 800 l 25
 712 700 l 25xdd
 675 700 l 25
 675 500 l 25xdc80
 712 500 l 25
 712 -100 l 25
 188 -100 l 25
EndSplineSet
Validated: 1
EndChar

StartChar: u1F4FC
Encoding: 128252 128252 295
Width: 450
Flags: W
HStem: 0 100<225 675> 150 100<338 412 488 562> 250 100<262 300 600 638> 350 100<338 412 488 562> 500 100<225 675>
VStem: 150 75<100 500> 262 76<250 350> 300 300<150 250 350 450> 412 76<250 350> 562 76<250 350> 675 75<100 500>
LayerCount: 2
Back
Fore
SplineSet
338 250 m 29xdea0
 412 250 l 25
 412 350 l 25
 338 350 l 25
 338 250 l 29xdea0
488 250 m 25
 562 250 l 25
 562 350 l 25xdce0
 488 350 l 25
 488 250 l 25
300 150 m 25xcd20
 300 250 l 25xad20
 262 250 l 25
 262 350 l 25xae20
 300 350 l 25xad20
 300 450 l 25
 600 450 l 25x9d20
 600 350 l 25xad20
 638 350 l 25
 638 250 l 25xac60
 600 250 l 25xad20
 600 150 l 25
 300 150 l 25xcd20
225 100 m 25
 675 100 l 25
 675 500 l 25
 225 500 l 25
 225 100 l 25
150 0 m 25
 150 600 l 25
 750 600 l 25
 750 0 l 25
 150 0 l 25
EndSplineSet
Validated: 1
EndChar

StartChar: u1F508
Encoding: 128264 128264 296
Width: 450
Flags: W
HStem: -100 100<262 300> 100 100<112 150> 200 100<0 38> 400 100<0 38> 500 100<112 150> 700 100<262 300>
VStem: -75 75<300 400> 38 74<300 400> 75 113<100 200 500 600> 150 112<0 100 600 700> 225 150<-100 0 700 800> 300 75<0 700>
LayerCount: 2
Back
Fore
SplineSet
112 200 m 29xcf
 188 200 l 29xa680
 188 100 l 29xc680
 262 100 l 29
 262 0 l 29
 300 0 l 29
 300 700 l 29
 262 700 l 29
 262 600 l 29xce50
 188 600 l 29
 188 500 l 29xce80
 112 500 l 29
 112 200 l 29xcf
0 300 m 29
 38 300 l 29
 38 400 l 29
 0 400 l 29xb7
 0 300 l 29
-75 200 m 29
 -75 500 l 29
 75 500 l 29
 75 600 l 29xae80
 150 600 l 29
 150 700 l 29xae40
 225 700 l 29
 225 800 l 29
 375 800 l 29
 375 -100 l 29
 225 -100 l 29
 225 0 l 29xae20
 150 0 l 29
 150 100 l 29xce40
 75 100 l 29xce80
 75 200 l 29xa680
 -75 200 l 29
EndSplineSet
Validated: 1
EndChar

StartChar: u1F507
Encoding: 128263 128263 297
Width: 450
Flags: W
HStem: -100 100<262 300> 0 100<150 225> 200 100<0 38 75 112 225 262> 400 100<0 38 75 112 225 262> 600 100<150 225> 700 100<262 300>
VStem: -75 113<200 300 400 500> -75 75<300 400> 75 75<200 300 400 500> 150 112<0 100 600 700> 188 74<200 300 400 500> 225 150<-100 0 700 800> 300 75<0 700>
LayerCount: 2
Back
Fore
SplineSet
150 600 m 29x3848
 150 700 l 25x3848
 225 700 l 25x3810
 225 800 l 25
 375 800 l 25
 375 -100 l 25
 225 -100 l 25xb410
 225 0 l 25x7010
 150 0 l 25
 150 100 l 25
 262 100 l 25x7040
 262 0 l 25
 300 0 l 25
 300 700 l 25
 262 700 l 25xb448
 262 600 l 25
 150 600 l 29x3848
75 200 m 25x30a0
 75 300 l 25
 112 300 l 25
 112 400 l 25
 75 400 l 25
 75 500 l 25
 150 500 l 25
 150 400 l 25
 188 400 l 25
 188 500 l 25
 262 500 l 25
 262 400 l 25x30a0
 225 400 l 25
 225 300 l 25x3010
 262 300 l 25
 262 200 l 25
 188 200 l 25
 188 300 l 25
 150 300 l 25
 150 200 l 25
 75 200 l 25x30a0
-75 200 m 25x32
 -75 500 l 25
 38 500 l 25
 38 400 l 25x32
 0 400 l 25
 0 300 l 25x31
 38 300 l 25
 38 200 l 25
 -75 200 l 25x32
EndSplineSet
Validated: 1
EndChar

StartChar: u1F509
Encoding: 128265 128265 298
Width: 450
Flags: W
HStem: 0 100<262 300> 600 100<262 300>
VStem: 0 188<200 300 400 500> 0 75<300 400> 150 112<100 200 500 600> 225 113<0 100 600 700> 300 150<-100 0 700 800> 375 75<0 700> 488 74<150 250 450 550> 525 75<250 450>
LayerCount: 2
Back
Fore
SplineSet
488 550 m 29xc080
 562 550 l 29
 562 450 l 29xc080
 600 450 l 29
 600 250 l 29xc040
 562 250 l 29
 562 150 l 29
 488 150 l 29
 488 250 l 29xc080
 525 250 l 29
 525 450 l 29xc040
 488 450 l 29
 488 550 l 29xc080
188 200 m 25xe0
 262 200 l 25
 262 100 l 25xc8
 338 100 l 25
 338 0 l 25
 375 0 l 25
 375 700 l 25
 338 700 l 25
 338 600 l 25xc5
 262 600 l 25
 262 500 l 25xc8
 188 500 l 25
 188 200 l 25xe0
75 300 m 25xd0
 112 300 l 25
 112 400 l 25
 75 400 l 25
 75 300 l 25xd0
0 200 m 25xe0
 0 500 l 25xe0
 150 500 l 25
 150 600 l 25xc8
 225 600 l 25
 225 700 l 25xc4
 300 700 l 25
 300 800 l 25
 450 800 l 25
 450 -100 l 25
 300 -100 l 25
 300 0 l 25xc2
 225 0 l 25
 225 100 l 25xc4
 150 100 l 25
 150 200 l 25xc8
 0 200 l 25xe0
EndSplineSet
Validated: 1
EndChar

StartChar: u1F50A
Encoding: 128266 128266 299
Width: 450
Flags: W
HStem: -100 100<412 450> 100 100<262 300> 150 100<562 600> 200 100<150 188> 400 100<150 188> 450 100<562 600> 500 100<262 300> 700 100<412 450>
VStem: 75 75<300 400> 188 74<300 400> 225 113<100 200 500 600> 300 112<0 100 600 700> 375 150<-100 0 700 800> 450 75<0 700> 562 76<150 250 450 550> 600 75<250 450> 675 75<50 150 550 650> 712 76<150 250 450 550> 750 75<250 450>
LayerCount: 2
Back
Fore
SplineSet
675 550 m 29xa58080
 675 650 l 25
 750 650 l 25
 750 550 l 25xa58080
 788 550 l 25
 788 450 l 25xa58040
 825 450 l 25
 825 250 l 25xa58020
 788 250 l 25
 788 150 l 25xa58040
 750 150 l 25
 750 50 l 25
 675 50 l 25
 675 150 l 25xa58080
 712 150 l 25
 712 250 l 25xa58040
 750 250 l 25
 750 450 l 25xa58020
 712 450 l 25
 712 550 l 25xa58040
 675 550 l 29xa58080
562 550 m 25xa582
 638 550 l 25
 638 450 l 25xa582
 675 450 l 25
 675 250 l 25xa581
 638 250 l 25
 638 150 l 25
 562 150 l 25
 562 250 l 25xa582
 600 250 l 25
 600 450 l 25xa581
 562 450 l 25
 562 550 l 25xa582
262 200 m 25xc3c0
 338 200 l 25x91a0
 338 100 l 25xc1a0
 412 100 l 25
 412 0 l 25
 450 0 l 25
 450 700 l 25
 412 700 l 25
 412 600 l 25xc394
 338 600 l 25
 338 500 l 25xc3a0
 262 500 l 25
 262 200 l 25xc3c0
150 300 m 25
 188 300 l 25
 188 400 l 25
 150 400 l 25x99c0
 150 300 l 25
75 200 m 25
 75 500 l 25
 225 500 l 25
 225 600 l 25x93a0
 300 600 l 25
 300 700 l 25x9390
 375 700 l 25
 375 800 l 25
 525 800 l 25
 525 -100 l 25
 375 -100 l 25
 375 0 l 25x9388
 300 0 l 25
 300 100 l 25xc390
 225 100 l 25xc3a0
 225 200 l 25x91a0
 75 200 l 25
EndSplineSet
Validated: 1
EndChar

StartChar: u1F50B
Encoding: 128267 128267 300
Width: 450
Flags: W
HStem: -100 100<38 262>
VStem: -38 150<300 400 500 600> -38 76<0 100 400 500> 188 150<300 400 500 600> 262 76<0 100 400 500>
LayerCount: 2
Back
Fore
SplineSet
112 300 m 25xc0
 188 300 l 25
 188 400 l 25xd0
 262 400 l 25
 262 500 l 25x88
 188 500 l 25
 188 600 l 25
 112 600 l 25
 112 500 l 25xd0
 38 500 l 25
 38 400 l 25xa0
 112 400 l 25
 112 300 l 25xc0
38 0 m 1xa8
 262 0 l 25
 262 100 l 1
 38 100 l 29
 38 0 l 1xa8
-38 -100 m 25
 -38 700 l 25
 75 700 l 25
 75 800 l 25
 225 800 l 25
 225 700 l 25
 338 700 l 25
 338 -100 l 25
 -38 -100 l 25
EndSplineSet
Validated: 1
EndChar

StartChar: u1F50D
Encoding: 128269 128269 301
Width: 450
Flags: W
HStem: 200 100<81 231> 700 100<81 231>
VStem: -31 75<400 600> 6 75<300 400 600 700> 231 75<300 400 600 700> 269 75<400 600> 306 75<-100 0>
LayerCount: 2
Back
Fore
SplineSet
81 300 m 29xd0
 231 300 l 25
 231 400 l 25xd8
 269 400 l 25
 269 600 l 25xc4
 231 600 l 25
 231 700 l 25
 81 700 l 25
 81 600 l 25xd8
 44 600 l 25
 44 400 l 25xe0
 81 400 l 25
 81 300 l 29xd0
-31 400 m 25xe0
 -31 600 l 25xe0
 6 600 l 25
 6 700 l 25xd0
 44 700 l 25
 44 800 l 25
 269 800 l 25
 269 700 l 25xe4
 306 700 l 25
 306 600 l 25xc8
 344 600 l 25
 344 400 l 25xc4
 306 400 l 25xc8
 306 200 l 25xc2
 344 200 l 25
 344 100 l 25xc4
 381 100 l 25
 381 -100 l 25
 306 -100 l 25
 306 0 l 25xc2
 269 0 l 25
 269 100 l 25xc4
 231 100 l 25
 231 200 l 25
 44 200 l 25
 44 300 l 25xe8
 6 300 l 25
 6 400 l 25xd0
 -31 400 l 25xe0
EndSplineSet
Validated: 1
EndChar

StartChar: u1F50E
Encoding: 128270 128270 302
Width: 450
Flags: W
HStem: 200 100<162 275> 700 100<125 275>
VStem: 12 76<-100 0 400 600> 50 112<100 200> 50 75<300 400 600 700> 88 224<200 300 700 800> 275 75<300 400 600 700> 312 76<400 600>
LayerCount: 2
Back
Fore
SplineSet
125 300 m 29xc8
 275 300 l 25
 275 400 l 25xca
 312 400 l 25
 312 600 l 25xc1
 275 600 l 25
 275 700 l 25
 125 700 l 25
 125 600 l 25xca
 88 600 l 25
 88 400 l 25xe0
 125 400 l 25
 125 300 l 29xc8
12 400 m 25xe0
 12 600 l 25xe0
 50 600 l 25
 50 700 l 25xc8
 88 700 l 25
 88 800 l 25
 312 800 l 25
 312 700 l 25xc4
 350 700 l 25
 350 600 l 25xc2
 388 600 l 25
 388 400 l 25xc1
 350 400 l 25
 350 300 l 25xc2
 312 300 l 25
 312 200 l 25xc4
 162 200 l 25
 162 100 l 25xd0
 125 100 l 25
 125 0 l 25xc8
 88 0 l 25
 88 -100 l 25
 12 -100 l 25
 12 100 l 25xe0
 50 100 l 25
 50 200 l 25xd0
 88 200 l 25
 88 300 l 25xc4
 50 300 l 25
 50 400 l 25xc8
 12 400 l 25xe0
EndSplineSet
Validated: 1
EndChar

StartChar: u1F512
Encoding: 128274 128274 303
Width: 450
Flags: W
HStem: 0 100<162 238> 400 100<125 275> 700 100<125 275>
VStem: 12 150<100 300> 12 76<500 600> 50 75<600 700> 238 150<100 300> 275 75<600 700> 312 76<500 600>
LayerCount: 2
Back
Fore
SplineSet
312 500 m 25xe880
 312 600 l 25xe880
 275 600 l 25
 275 700 l 25
 125 700 l 25
 125 600 l 25xe5
 88 600 l 25
 88 500 l 25
 312 500 l 25xe880
162 100 m 29xf0
 238 100 l 29
 238 300 l 29xf2
 275 300 l 29
 275 400 l 29
 125 400 l 29
 125 300 l 29xe5
 162 300 l 29
 162 100 l 29xf0
12 0 m 25xe880
 12 600 l 25xe880
 50 600 l 25
 50 700 l 25xe4
 88 700 l 25
 88 800 l 25
 312 800 l 25
 312 700 l 25xe880
 350 700 l 25
 350 600 l 25xe1
 388 600 l 25
 388 0 l 25
 12 0 l 25xe880
EndSplineSet
Validated: 1
EndChar

StartChar: u1F513
Encoding: 128275 128275 304
Width: 450
Flags: W
HStem: 0 100<162 238> 400 100<125 275> 600 100<312 350> 700 100<125 275>
VStem: 12 150<100 300> 12 76<500 600> 50 75<600 700> 238 150<100 300> 275 113<300 400> 275 75<600 700>
LayerCount: 2
Back
Fore
SplineSet
162 100 m 29xc8
 238 100 l 29
 238 300 l 29xc9
 275 300 l 29
 275 400 l 29
 125 400 l 29
 125 300 l 29xc280
 162 300 l 29
 162 100 l 29xc8
275 600 m 25xe440
 275 700 l 25
 125 700 l 25xd240
 125 600 l 25xe240
 88 600 l 25
 88 500 l 25
 388 500 l 25
 388 0 l 25
 12 0 l 25
 12 600 l 25xe480
 50 600 l 25xe2
 50 700 l 25xd2
 88 700 l 25
 88 800 l 25
 312 800 l 25xd4
 312 700 l 25
 350 700 l 25
 350 600 l 25
 275 600 l 25xe440
EndSplineSet
Validated: 1
EndChar

StartChar: u1F514
Encoding: 128276 128276 305
Width: 450
Flags: W
HStem: -100 100<456 494>
VStem: 381 75<0 100> 419 112<-100 0 700 800> 494 75<0 100>
LayerCount: 2
Back
Fore
SplineSet
456 0 m 29xd0
 494 0 l 25
 494 100 l 25
 456 100 l 25
 456 0 l 29xd0
231 100 m 25
 231 300 l 25
 269 300 l 25
 269 500 l 25
 306 500 l 25
 306 600 l 25
 344 600 l 25
 344 700 l 25
 419 700 l 25
 419 800 l 25
 531 800 l 25
 531 700 l 25xa0
 606 700 l 25
 606 600 l 25
 644 600 l 25
 644 500 l 25
 681 500 l 25
 681 300 l 25
 719 300 l 25
 719 100 l 25
 569 100 l 25
 569 0 l 25x90
 531 0 l 25
 531 -100 l 25
 419 -100 l 25
 419 0 l 25xa0
 381 0 l 25
 381 100 l 25
 231 100 l 25
EndSplineSet
Validated: 1
EndChar

StartChar: u1F515
Encoding: 128277 128277 306
Width: 450
Flags: W
HStem: 0 100<381 419 531 569> 100 100<306 344 456 494 606 644> 200 100<381 419 531 569> 600 200<419 531> 600 100<381 419 531 569>
VStem: 231 75<200 300> 269 75<300 500> 306 75<500 600> 381 75<0 100 200 300> 419 112<100 200 700 800> 494 75<0 100 200 300> 569 75<500 600> 606 75<300 500> 644 75<200 300>
LayerCount: 2
Back
Fore
SplineSet
381 0 m 29x80a0
 381 100 l 25x80a0
 419 100 l 25
 419 200 l 25xa040
 381 200 l 25
 381 300 l 25
 456 300 l 25xa080
 456 200 l 25
 494 200 l 25x40a0
 494 300 l 25
 569 300 l 25
 569 200 l 25x20a0
 531 200 l 25
 531 100 l 25xa040
 569 100 l 25
 569 0 l 25
 494 0 l 25xa020
 494 100 l 25
 456 100 l 25x40a0
 456 0 l 25
 381 0 l 29x80a0
419 700 m 25x2a40
 419 800 l 25
 531 800 l 25x1240
 531 700 l 25
 606 700 l 25
 606 600 l 25x0a48
 644 600 l 25
 644 500 l 25x0810
 681 500 l 25
 681 300 l 25x2808
 719 300 l 25x2804
 719 100 l 25x4004
 606 100 l 25
 606 200 l 25x4008
 644 200 l 25x4004
 644 300 l 25x2004
 606 300 l 25
 606 500 l 25x2008
 569 500 l 25
 569 600 l 25
 381 600 l 25
 381 500 l 25x2910
 344 500 l 25
 344 300 l 25x2a
 306 300 l 25x2c
 306 200 l 25x44
 344 200 l 25
 344 100 l 25x42
 231 100 l 25x44
 231 300 l 25x24
 269 300 l 25
 269 500 l 25x22
 306 500 l 25
 306 600 l 25x29
 344 600 l 25
 344 700 l 25
 419 700 l 25x2a40
EndSplineSet
Validated: 1
EndChar

StartChar: u1F517
Encoding: 128279 128279 307
Width: 450
Flags: W
HStem: -100 100<462 725> 200 100<275 388> 400 100<612 725> 700 100<275 538>
VStem: 200 75<300 700> 388 74<0 200> 538 74<500 700> 725 75<0 400>
LayerCount: 2
Back
Fore
SplineSet
612 400 m 29
 612 300 l 25
 575 300 l 25
 575 200 l 25
 462 200 l 25
 462 0 l 25
 725 0 l 25
 725 400 l 25
 612 400 l 29
275 700 m 25
 275 300 l 25
 388 300 l 25
 388 400 l 25
 425 400 l 25
 425 500 l 25
 538 500 l 25
 538 700 l 25
 275 700 l 25
238 700 m 25
 238 800 l 25
 575 800 l 25
 575 700 l 25
 612 700 l 25
 612 500 l 25
 762 500 l 25
 762 400 l 25
 800 400 l 25
 800 0 l 25
 762 0 l 25
 762 -100 l 25
 425 -100 l 25
 425 0 l 25
 388 0 l 25
 388 200 l 25
 238 200 l 25
 238 300 l 25
 200 300 l 25
 200 700 l 25
 238 700 l 25
EndSplineSet
Validated: 1
EndChar

StartChar: u1F51E
Encoding: 128286 128286 308
Width: 450
Flags: W
HStem: 0 100<112 150> 100 100<38 75 188 225> 200 100<112 150 262 300 338 375> 300 100<38 75 188 225> 400 100<112 150>
VStem: -75 75<0 400> -38 38<400 500> 38 74<100 200 300 400> 75 113<0 100 200 300 400 500> 150 75<100 200 300 400> 262 113<200 300> 300 38<100 200 300 400>
LayerCount: 2
Back
Fore
SplineSet
300 100 m 29x4010
 300 200 l 25x2010
 262 200 l 25
 262 300 l 25x2020
 300 300 l 25
 300 400 l 25
 338 400 l 25
 338 300 l 25x2810
 375 300 l 25
 375 200 l 25x2820
 338 200 l 25x2810
 338 100 l 25
 300 100 l 29x4010
112 300 m 25x2940
 150 300 l 25
 150 400 l 25
 112 400 l 25
 112 300 l 25x2940
112 100 m 25xa140
 150 100 l 25
 150 200 l 25
 112 200 l 25
 112 100 l 25xa140
75 0 m 25x8080
 75 100 l 25x4080
 38 100 l 25
 38 200 l 25x41
 75 200 l 25
 75 300 l 25x5080
 38 300 l 25
 38 400 l 25x51
 75 400 l 25x5080
 75 500 l 25
 188 500 l 25x0880
 188 400 l 25x1080
 225 400 l 25
 225 300 l 25x1040
 188 300 l 25
 188 200 l 25x5080
 225 200 l 25
 225 100 l 25x5040
 188 100 l 25x5080
 188 0 l 25
 75 0 l 25x8080
-75 0 m 25x8c
 -75 400 l 25x8c
 -38 400 l 25
 -38 500 l 25
 0 500 l 25x8a
 0 0 l 25
 -75 0 l 25x8c
EndSplineSet
Validated: 1
EndChar

StartChar: u1F520
Encoding: 128288 128288 309
Width: 450
Flags: W
HStem: -100 100<-6 106 219 256> 200 100<-6 106 219 256>
VStem: -81 75<0 200 400 500> -44 113<700 800> 31 75<400 500> 144 150<-100 0 200 300 500 600> 144 112<700 800> 144 75<0 200> 256 75<0 200>
LayerCount: 2
Back
Fore
SplineSet
219 0 m 29xc180
 256 0 l 25
 256 200 l 25
 219 200 l 25
 219 0 l 29xc180
144 -100 m 25xc4
 144 300 l 25
 294 300 l 25
 294 200 l 25xc4
 331 200 l 25
 331 0 l 25xc080
 294 0 l 25
 294 -100 l 25
 144 -100 l 25xc4
106 300 m 25xc8
 106 200 l 25
 -6 200 l 25
 -6 0 l 25
 106 0 l 25
 106 -100 l 25xe8
 -44 -100 l 25
 -44 0 l 25xd0
 -81 0 l 25
 -81 200 l 25xe0
 -44 200 l 25
 -44 300 l 25xd0
 106 300 l 25xc8
144 400 m 25xc180
 144 800 l 25
 256 800 l 25
 256 700 l 25xc2
 331 700 l 25
 331 600 l 25xc080
 294 600 l 25
 294 500 l 25xc4
 331 500 l 25
 331 400 l 25
 144 400 l 25xc180
-81 400 m 25xe8
 -81 700 l 25xe8
 -44 700 l 25
 -44 800 l 25
 69 800 l 25
 69 700 l 25xd0
 106 700 l 25
 106 400 l 25
 31 400 l 25
 31 500 l 25
 -6 500 l 25
 -6 400 l 25
 -81 400 l 25xe8
EndSplineSet
Validated: 1
EndChar

StartChar: u1F521
Encoding: 128289 128289 310
Width: 450
Flags: W
HStem: -100 100<0 112 225 262 338 375> 0 100<-75 -38 150 188> 100 100<0 112 225 262> 400 100<0 38 112 150 262 300> 500 100<-75 -38 338 375> 600 100<0 38 262 300>
VStem: -75 75<0 100 500 600> -38 188<400 500> -38 150<-100 0 100 200 600 700> 38 74<500 600> 150 75<0 100> 188 74<500 600 700 800> 262 76<0 100 200 300> 300 75<500 600>
LayerCount: 2
Back
Fore
SplineSet
225 0 m 29xa028
 262 0 l 25
 262 100 l 25
 225 100 l 25
 225 0 l 29xa028
150 0 m 25x4020
 150 100 l 25x4020
 188 100 l 25x4010
 188 200 l 25x2010
 262 200 l 25
 262 300 l 25
 338 300 l 25
 338 0 l 25xa008
 375 0 l 25
 375 -100 l 25
 188 -100 l 25xa014
 188 0 l 25x4014
 150 0 l 25x4020
0 100 m 25x22
 0 0 l 25xa2
 112 0 l 25
 112 -100 l 25
 -38 -100 l 25xa080
 -38 0 l 25x4080
 -75 0 l 25
 -75 100 l 25x42
 -38 100 l 25x4080
 -38 200 l 25
 112 200 l 25
 112 100 l 25x2080
 0 100 l 25x22
262 500 m 25x1414
 300 500 l 25
 300 600 l 25
 262 600 l 25
 262 500 l 25x1414
188 400 m 25
 188 800 l 25
 262 800 l 25
 262 700 l 25x1410
 338 700 l 25x1408
 338 600 l 25x0808
 375 600 l 25
 375 500 l 25x0804
 338 500 l 25x0808
 338 400 l 25x1008
 188 400 l 25
0 500 m 25x1640
 38 500 l 25
 38 600 l 25
 0 600 l 25
 0 500 l 25x1640
-75 500 m 25x0a
 -75 600 l 25x0a
 -38 600 l 25x0880
 -38 700 l 25
 112 700 l 25x0480
 112 500 l 25x1440
 150 500 l 25
 150 400 l 25
 -38 400 l 25x15
 -38 500 l 25x09
 -75 500 l 25x0a
EndSplineSet
Validated: 1
EndChar

